G04 #@! TF.GenerationSoftware,KiCad,Pcbnew,(5.1.4)-1*
G04 #@! TF.CreationDate,2020-01-03T17:16:49+05:00*
G04 #@! TF.ProjectId,speeduino_ntv650,73706565-6475-4696-9e6f-5f6e74763635,rev?*
G04 #@! TF.SameCoordinates,Original*
G04 #@! TF.FileFunction,Legend,Bot*
G04 #@! TF.FilePolarity,Positive*
%FSLAX46Y46*%
G04 Gerber Fmt 4.6, Leading zero omitted, Abs format (unit mm)*
G04 Created by KiCad (PCBNEW (5.1.4)-1) date 2020-01-03 17:16:49*
%MOMM*%
%LPD*%
G04 APERTURE LIST*
%ADD10C,0.100000*%
%ADD11C,0.150000*%
G04 APERTURE END LIST*
D10*
X110806666Y-38620000D02*
G75*
G03X110806666Y-38620000I-1666666J0D01*
G01*
X106640000Y-38620000D02*
X111640000Y-38620000D01*
X109140000Y-36120000D02*
X109140000Y-41120000D01*
X190016666Y-162490000D02*
G75*
G03X190016666Y-162490000I-1666666J0D01*
G01*
X185850000Y-162490000D02*
X190850000Y-162490000D01*
X188350000Y-159990000D02*
X188350000Y-164990000D01*
D11*
X184070000Y-155040000D02*
G75*
G03X184070000Y-155040000I-3000000J0D01*
G01*
D10*
X190286666Y-38760000D02*
G75*
G03X190286666Y-38760000I-1666666J0D01*
G01*
X186120000Y-38760000D02*
X191120000Y-38760000D01*
X188620000Y-36260000D02*
X188620000Y-41260000D01*
X111396666Y-162190000D02*
G75*
G03X111396666Y-162190000I-1666666J0D01*
G01*
X107230000Y-162190000D02*
X112230000Y-162190000D01*
X109730000Y-159690000D02*
X109730000Y-164690000D01*
D11*
X120070000Y-155040000D02*
G75*
G03X120070000Y-155040000I-3000000J0D01*
G01*
X184070000Y-46040000D02*
G75*
G03X184070000Y-46040000I-3000000J0D01*
G01*
X120070000Y-46040000D02*
G75*
G03X120070000Y-46040000I-3000000J0D01*
G01*
D10*
X112070000Y-160040000D02*
X112070000Y-41040000D01*
X186070000Y-160040000D02*
X112070000Y-160040000D01*
X186070000Y-41040000D02*
X186070000Y-160040000D01*
X112070000Y-41040000D02*
X186070000Y-41040000D01*
D11*
X144528571Y-77001904D02*
X144528571Y-77335238D01*
X145052380Y-77478095D02*
X145052380Y-77001904D01*
X144052380Y-77001904D01*
X144052380Y-77478095D01*
X145052380Y-77906666D02*
X144052380Y-77906666D01*
X145052380Y-78478095D01*
X144052380Y-78478095D01*
X162010000Y-71181904D02*
X161962380Y-71277142D01*
X161962380Y-71420000D01*
X162010000Y-71562857D01*
X162105238Y-71658095D01*
X162200476Y-71705714D01*
X162390952Y-71753333D01*
X162533809Y-71753333D01*
X162724285Y-71705714D01*
X162819523Y-71658095D01*
X162914761Y-71562857D01*
X162962380Y-71420000D01*
X162962380Y-71324761D01*
X162914761Y-71181904D01*
X162867142Y-71134285D01*
X162533809Y-71134285D01*
X162533809Y-71324761D01*
X162962380Y-70705714D02*
X161962380Y-70705714D01*
X162962380Y-70134285D01*
X161962380Y-70134285D01*
X162962380Y-69658095D02*
X161962380Y-69658095D01*
X161962380Y-69420000D01*
X162010000Y-69277142D01*
X162105238Y-69181904D01*
X162200476Y-69134285D01*
X162390952Y-69086666D01*
X162533809Y-69086666D01*
X162724285Y-69134285D01*
X162819523Y-69181904D01*
X162914761Y-69277142D01*
X162962380Y-69420000D01*
X162962380Y-69658095D01*
X159312380Y-69421904D02*
X160312380Y-69755238D01*
X159312380Y-70088571D01*
X160312380Y-70850476D02*
X159312380Y-70850476D01*
X160264761Y-70850476D02*
X160312380Y-70755238D01*
X160312380Y-70564761D01*
X160264761Y-70469523D01*
X160217142Y-70421904D01*
X160121904Y-70374285D01*
X159836190Y-70374285D01*
X159740952Y-70421904D01*
X159693333Y-70469523D01*
X159645714Y-70564761D01*
X159645714Y-70755238D01*
X159693333Y-70850476D01*
X160312380Y-71755238D02*
X159312380Y-71755238D01*
X160264761Y-71755238D02*
X160312380Y-71660000D01*
X160312380Y-71469523D01*
X160264761Y-71374285D01*
X160217142Y-71326666D01*
X160121904Y-71279047D01*
X159836190Y-71279047D01*
X159740952Y-71326666D01*
X159693333Y-71374285D01*
X159645714Y-71469523D01*
X159645714Y-71660000D01*
X159693333Y-71755238D01*
X157732380Y-70305714D02*
X157732380Y-69734285D01*
X157732380Y-70020000D02*
X156732380Y-70020000D01*
X156875238Y-69924761D01*
X156970476Y-69829523D01*
X157018095Y-69734285D01*
X157208571Y-71067619D02*
X157256190Y-71210476D01*
X157303809Y-71258095D01*
X157399047Y-71305714D01*
X157541904Y-71305714D01*
X157637142Y-71258095D01*
X157684761Y-71210476D01*
X157732380Y-71115238D01*
X157732380Y-70734285D01*
X156732380Y-70734285D01*
X156732380Y-71067619D01*
X156780000Y-71162857D01*
X156827619Y-71210476D01*
X156922857Y-71258095D01*
X157018095Y-71258095D01*
X157113333Y-71210476D01*
X157160952Y-71162857D01*
X157208571Y-71067619D01*
X157208571Y-70734285D01*
X155262380Y-70477142D02*
X155262380Y-69905714D01*
X155262380Y-70191428D02*
X154262380Y-70191428D01*
X154405238Y-70096190D01*
X154500476Y-70000952D01*
X154548095Y-69905714D01*
X154976666Y-70858095D02*
X154976666Y-71334285D01*
X155262380Y-70762857D02*
X154262380Y-71096190D01*
X155262380Y-71429523D01*
X151647619Y-69975714D02*
X151600000Y-70023333D01*
X151552380Y-70118571D01*
X151552380Y-70356666D01*
X151600000Y-70451904D01*
X151647619Y-70499523D01*
X151742857Y-70547142D01*
X151838095Y-70547142D01*
X151980952Y-70499523D01*
X152552380Y-69928095D01*
X152552380Y-70547142D01*
X152266666Y-70928095D02*
X152266666Y-71404285D01*
X152552380Y-70832857D02*
X151552380Y-71166190D01*
X152552380Y-71499523D01*
X149237619Y-69874285D02*
X149190000Y-69921904D01*
X149142380Y-70017142D01*
X149142380Y-70255238D01*
X149190000Y-70350476D01*
X149237619Y-70398095D01*
X149332857Y-70445714D01*
X149428095Y-70445714D01*
X149570952Y-70398095D01*
X150142380Y-69826666D01*
X150142380Y-70445714D01*
X149618571Y-71207619D02*
X149666190Y-71350476D01*
X149713809Y-71398095D01*
X149809047Y-71445714D01*
X149951904Y-71445714D01*
X150047142Y-71398095D01*
X150094761Y-71350476D01*
X150142380Y-71255238D01*
X150142380Y-70874285D01*
X149142380Y-70874285D01*
X149142380Y-71207619D01*
X149190000Y-71302857D01*
X149237619Y-71350476D01*
X149332857Y-71398095D01*
X149428095Y-71398095D01*
X149523333Y-71350476D01*
X149570952Y-71302857D01*
X149618571Y-71207619D01*
X149618571Y-70874285D01*
X146710000Y-69928095D02*
X146662380Y-69832857D01*
X146662380Y-69690000D01*
X146710000Y-69547142D01*
X146805238Y-69451904D01*
X146900476Y-69404285D01*
X147090952Y-69356666D01*
X147233809Y-69356666D01*
X147424285Y-69404285D01*
X147519523Y-69451904D01*
X147614761Y-69547142D01*
X147662380Y-69690000D01*
X147662380Y-69785238D01*
X147614761Y-69928095D01*
X147567142Y-69975714D01*
X147233809Y-69975714D01*
X147233809Y-69785238D01*
X147662380Y-70404285D02*
X146662380Y-70404285D01*
X147662380Y-70975714D01*
X146662380Y-70975714D01*
X147662380Y-71451904D02*
X146662380Y-71451904D01*
X146662380Y-71690000D01*
X146710000Y-71832857D01*
X146805238Y-71928095D01*
X146900476Y-71975714D01*
X147090952Y-72023333D01*
X147233809Y-72023333D01*
X147424285Y-71975714D01*
X147519523Y-71928095D01*
X147614761Y-71832857D01*
X147662380Y-71690000D01*
X147662380Y-71451904D01*
X144152380Y-69021904D02*
X145152380Y-69355238D01*
X144152380Y-69688571D01*
X145152380Y-70021904D02*
X144485714Y-70021904D01*
X144580952Y-70021904D02*
X144533333Y-70069523D01*
X144485714Y-70164761D01*
X144485714Y-70307619D01*
X144533333Y-70402857D01*
X144628571Y-70450476D01*
X145152380Y-70450476D01*
X144628571Y-70450476D02*
X144533333Y-70498095D01*
X144485714Y-70593333D01*
X144485714Y-70736190D01*
X144533333Y-70831428D01*
X144628571Y-70879047D01*
X145152380Y-70879047D01*
X145152380Y-71498095D02*
X145104761Y-71402857D01*
X145057142Y-71355238D01*
X144961904Y-71307619D01*
X144676190Y-71307619D01*
X144580952Y-71355238D01*
X144533333Y-71402857D01*
X144485714Y-71498095D01*
X144485714Y-71640952D01*
X144533333Y-71736190D01*
X144580952Y-71783809D01*
X144676190Y-71831428D01*
X144961904Y-71831428D01*
X145057142Y-71783809D01*
X145104761Y-71736190D01*
X145152380Y-71640952D01*
X145152380Y-71498095D01*
X144485714Y-72117142D02*
X144485714Y-72498095D01*
X144152380Y-72260000D02*
X145009523Y-72260000D01*
X145104761Y-72307619D01*
X145152380Y-72402857D01*
X145152380Y-72498095D01*
X162992380Y-76540000D02*
X161992380Y-76540000D01*
X161992380Y-76778095D01*
X162040000Y-76920952D01*
X162135238Y-77016190D01*
X162230476Y-77063809D01*
X162420952Y-77111428D01*
X162563809Y-77111428D01*
X162754285Y-77063809D01*
X162849523Y-77016190D01*
X162944761Y-76920952D01*
X162992380Y-76778095D01*
X162992380Y-76540000D01*
X162992380Y-77540000D02*
X161992380Y-77540000D01*
X162992380Y-78587619D02*
X162516190Y-78254285D01*
X162992380Y-78016190D02*
X161992380Y-78016190D01*
X161992380Y-78397142D01*
X162040000Y-78492380D01*
X162087619Y-78540000D01*
X162182857Y-78587619D01*
X162325714Y-78587619D01*
X162420952Y-78540000D01*
X162468571Y-78492380D01*
X162516190Y-78397142D01*
X162516190Y-78016190D01*
X160264761Y-75920952D02*
X160312380Y-76063809D01*
X160312380Y-76301904D01*
X160264761Y-76397142D01*
X160217142Y-76444761D01*
X160121904Y-76492380D01*
X160026666Y-76492380D01*
X159931428Y-76444761D01*
X159883809Y-76397142D01*
X159836190Y-76301904D01*
X159788571Y-76111428D01*
X159740952Y-76016190D01*
X159693333Y-75968571D01*
X159598095Y-75920952D01*
X159502857Y-75920952D01*
X159407619Y-75968571D01*
X159360000Y-76016190D01*
X159312380Y-76111428D01*
X159312380Y-76349523D01*
X159360000Y-76492380D01*
X159312380Y-76778095D02*
X159312380Y-77349523D01*
X160312380Y-77063809D02*
X159312380Y-77063809D01*
X159788571Y-77682857D02*
X159788571Y-78016190D01*
X160312380Y-78159047D02*
X160312380Y-77682857D01*
X159312380Y-77682857D01*
X159312380Y-78159047D01*
X160312380Y-78587619D02*
X159312380Y-78587619D01*
X159312380Y-78968571D01*
X159360000Y-79063809D01*
X159407619Y-79111428D01*
X159502857Y-79159047D01*
X159645714Y-79159047D01*
X159740952Y-79111428D01*
X159788571Y-79063809D01*
X159836190Y-78968571D01*
X159836190Y-78587619D01*
X157794761Y-76319523D02*
X157842380Y-76462380D01*
X157842380Y-76700476D01*
X157794761Y-76795714D01*
X157747142Y-76843333D01*
X157651904Y-76890952D01*
X157556666Y-76890952D01*
X157461428Y-76843333D01*
X157413809Y-76795714D01*
X157366190Y-76700476D01*
X157318571Y-76510000D01*
X157270952Y-76414761D01*
X157223333Y-76367142D01*
X157128095Y-76319523D01*
X157032857Y-76319523D01*
X156937619Y-76367142D01*
X156890000Y-76414761D01*
X156842380Y-76510000D01*
X156842380Y-76748095D01*
X156890000Y-76890952D01*
X157842380Y-77795714D02*
X157842380Y-77319523D01*
X156842380Y-77319523D01*
X157842380Y-78129047D02*
X156842380Y-78129047D01*
X156842380Y-78510000D01*
X156890000Y-78605238D01*
X156937619Y-78652857D01*
X157032857Y-78700476D01*
X157175714Y-78700476D01*
X157270952Y-78652857D01*
X157318571Y-78605238D01*
X157366190Y-78510000D01*
X157366190Y-78129047D01*
X155432380Y-76962380D02*
X154956190Y-76629047D01*
X155432380Y-76390952D02*
X154432380Y-76390952D01*
X154432380Y-76771904D01*
X154480000Y-76867142D01*
X154527619Y-76914761D01*
X154622857Y-76962380D01*
X154765714Y-76962380D01*
X154860952Y-76914761D01*
X154908571Y-76867142D01*
X154956190Y-76771904D01*
X154956190Y-76390952D01*
X155384761Y-77343333D02*
X155432380Y-77486190D01*
X155432380Y-77724285D01*
X155384761Y-77819523D01*
X155337142Y-77867142D01*
X155241904Y-77914761D01*
X155146666Y-77914761D01*
X155051428Y-77867142D01*
X155003809Y-77819523D01*
X154956190Y-77724285D01*
X154908571Y-77533809D01*
X154860952Y-77438571D01*
X154813333Y-77390952D01*
X154718095Y-77343333D01*
X154622857Y-77343333D01*
X154527619Y-77390952D01*
X154480000Y-77438571D01*
X154432380Y-77533809D01*
X154432380Y-77771904D01*
X154480000Y-77914761D01*
X154432380Y-78200476D02*
X154432380Y-78771904D01*
X155432380Y-78486190D02*
X154432380Y-78486190D01*
X152782380Y-76154285D02*
X151782380Y-76154285D01*
X152496666Y-76487619D01*
X151782380Y-76820952D01*
X152782380Y-76820952D01*
X152734761Y-77249523D02*
X152782380Y-77392380D01*
X152782380Y-77630476D01*
X152734761Y-77725714D01*
X152687142Y-77773333D01*
X152591904Y-77820952D01*
X152496666Y-77820952D01*
X152401428Y-77773333D01*
X152353809Y-77725714D01*
X152306190Y-77630476D01*
X152258571Y-77440000D01*
X152210952Y-77344761D01*
X152163333Y-77297142D01*
X152068095Y-77249523D01*
X151972857Y-77249523D01*
X151877619Y-77297142D01*
X151830000Y-77344761D01*
X151782380Y-77440000D01*
X151782380Y-77678095D01*
X151830000Y-77820952D01*
X151782380Y-78154285D02*
X151782380Y-78773333D01*
X152163333Y-78440000D01*
X152163333Y-78582857D01*
X152210952Y-78678095D01*
X152258571Y-78725714D01*
X152353809Y-78773333D01*
X152591904Y-78773333D01*
X152687142Y-78725714D01*
X152734761Y-78678095D01*
X152782380Y-78582857D01*
X152782380Y-78297142D01*
X152734761Y-78201904D01*
X152687142Y-78154285D01*
X150272380Y-76254285D02*
X149272380Y-76254285D01*
X149986666Y-76587619D01*
X149272380Y-76920952D01*
X150272380Y-76920952D01*
X150224761Y-77349523D02*
X150272380Y-77492380D01*
X150272380Y-77730476D01*
X150224761Y-77825714D01*
X150177142Y-77873333D01*
X150081904Y-77920952D01*
X149986666Y-77920952D01*
X149891428Y-77873333D01*
X149843809Y-77825714D01*
X149796190Y-77730476D01*
X149748571Y-77540000D01*
X149700952Y-77444761D01*
X149653333Y-77397142D01*
X149558095Y-77349523D01*
X149462857Y-77349523D01*
X149367619Y-77397142D01*
X149320000Y-77444761D01*
X149272380Y-77540000D01*
X149272380Y-77778095D01*
X149320000Y-77920952D01*
X149367619Y-78301904D02*
X149320000Y-78349523D01*
X149272380Y-78444761D01*
X149272380Y-78682857D01*
X149320000Y-78778095D01*
X149367619Y-78825714D01*
X149462857Y-78873333D01*
X149558095Y-78873333D01*
X149700952Y-78825714D01*
X150272380Y-78254285D01*
X150272380Y-78873333D01*
X147762380Y-76254285D02*
X146762380Y-76254285D01*
X147476666Y-76587619D01*
X146762380Y-76920952D01*
X147762380Y-76920952D01*
X147714761Y-77349523D02*
X147762380Y-77492380D01*
X147762380Y-77730476D01*
X147714761Y-77825714D01*
X147667142Y-77873333D01*
X147571904Y-77920952D01*
X147476666Y-77920952D01*
X147381428Y-77873333D01*
X147333809Y-77825714D01*
X147286190Y-77730476D01*
X147238571Y-77540000D01*
X147190952Y-77444761D01*
X147143333Y-77397142D01*
X147048095Y-77349523D01*
X146952857Y-77349523D01*
X146857619Y-77397142D01*
X146810000Y-77444761D01*
X146762380Y-77540000D01*
X146762380Y-77778095D01*
X146810000Y-77920952D01*
X147762380Y-78873333D02*
X147762380Y-78301904D01*
X147762380Y-78587619D02*
X146762380Y-78587619D01*
X146905238Y-78492380D01*
X147000476Y-78397142D01*
X147048095Y-78301904D01*
M02*
