G04 #@! TF.GenerationSoftware,KiCad,Pcbnew,(5.1.4)-1*
G04 #@! TF.CreationDate,2019-11-27T23:22:20+05:00*
G04 #@! TF.ProjectId,speeduino_ntv650,73706565-6475-4696-9e6f-5f6e74763635,rev?*
G04 #@! TF.SameCoordinates,Original*
G04 #@! TF.FileFunction,Legend,Bot*
G04 #@! TF.FilePolarity,Positive*
%FSLAX46Y46*%
G04 Gerber Fmt 4.6, Leading zero omitted, Abs format (unit mm)*
G04 Created by KiCad (PCBNEW (5.1.4)-1) date 2019-11-27 23:22:20*
%MOMM*%
%LPD*%
G04 APERTURE LIST*
%ADD10C,0.100000*%
%ADD11C,0.150000*%
G04 APERTURE END LIST*
D10*
X110806666Y-38620000D02*
G75*
G03X110806666Y-38620000I-1666666J0D01*
G01*
X106640000Y-38620000D02*
X111640000Y-38620000D01*
X109140000Y-36120000D02*
X109140000Y-41120000D01*
X190016666Y-162490000D02*
G75*
G03X190016666Y-162490000I-1666666J0D01*
G01*
X185850000Y-162490000D02*
X190850000Y-162490000D01*
X188350000Y-159990000D02*
X188350000Y-164990000D01*
D11*
X184070000Y-155040000D02*
G75*
G03X184070000Y-155040000I-3000000J0D01*
G01*
D10*
X190286666Y-38760000D02*
G75*
G03X190286666Y-38760000I-1666666J0D01*
G01*
X186120000Y-38760000D02*
X191120000Y-38760000D01*
X188620000Y-36260000D02*
X188620000Y-41260000D01*
X111396666Y-162190000D02*
G75*
G03X111396666Y-162190000I-1666666J0D01*
G01*
X107230000Y-162190000D02*
X112230000Y-162190000D01*
X109730000Y-159690000D02*
X109730000Y-164690000D01*
D11*
X120070000Y-155040000D02*
G75*
G03X120070000Y-155040000I-3000000J0D01*
G01*
X184070000Y-46040000D02*
G75*
G03X184070000Y-46040000I-3000000J0D01*
G01*
X120070000Y-46040000D02*
G75*
G03X120070000Y-46040000I-3000000J0D01*
G01*
D10*
X112070000Y-160040000D02*
X112070000Y-41040000D01*
X186070000Y-160040000D02*
X112070000Y-160040000D01*
X186070000Y-41040000D02*
X186070000Y-160040000D01*
X112070000Y-41040000D02*
X186070000Y-41040000D01*
D11*
X142278571Y-76901904D02*
X142278571Y-77235238D01*
X142802380Y-77378095D02*
X142802380Y-76901904D01*
X141802380Y-76901904D01*
X141802380Y-77378095D01*
X142802380Y-77806666D02*
X141802380Y-77806666D01*
X142802380Y-78378095D01*
X141802380Y-78378095D01*
X159760000Y-71081904D02*
X159712380Y-71177142D01*
X159712380Y-71320000D01*
X159760000Y-71462857D01*
X159855238Y-71558095D01*
X159950476Y-71605714D01*
X160140952Y-71653333D01*
X160283809Y-71653333D01*
X160474285Y-71605714D01*
X160569523Y-71558095D01*
X160664761Y-71462857D01*
X160712380Y-71320000D01*
X160712380Y-71224761D01*
X160664761Y-71081904D01*
X160617142Y-71034285D01*
X160283809Y-71034285D01*
X160283809Y-71224761D01*
X160712380Y-70605714D02*
X159712380Y-70605714D01*
X160712380Y-70034285D01*
X159712380Y-70034285D01*
X160712380Y-69558095D02*
X159712380Y-69558095D01*
X159712380Y-69320000D01*
X159760000Y-69177142D01*
X159855238Y-69081904D01*
X159950476Y-69034285D01*
X160140952Y-68986666D01*
X160283809Y-68986666D01*
X160474285Y-69034285D01*
X160569523Y-69081904D01*
X160664761Y-69177142D01*
X160712380Y-69320000D01*
X160712380Y-69558095D01*
X157062380Y-69321904D02*
X158062380Y-69655238D01*
X157062380Y-69988571D01*
X158062380Y-70750476D02*
X157062380Y-70750476D01*
X158014761Y-70750476D02*
X158062380Y-70655238D01*
X158062380Y-70464761D01*
X158014761Y-70369523D01*
X157967142Y-70321904D01*
X157871904Y-70274285D01*
X157586190Y-70274285D01*
X157490952Y-70321904D01*
X157443333Y-70369523D01*
X157395714Y-70464761D01*
X157395714Y-70655238D01*
X157443333Y-70750476D01*
X158062380Y-71655238D02*
X157062380Y-71655238D01*
X158014761Y-71655238D02*
X158062380Y-71560000D01*
X158062380Y-71369523D01*
X158014761Y-71274285D01*
X157967142Y-71226666D01*
X157871904Y-71179047D01*
X157586190Y-71179047D01*
X157490952Y-71226666D01*
X157443333Y-71274285D01*
X157395714Y-71369523D01*
X157395714Y-71560000D01*
X157443333Y-71655238D01*
X155482380Y-70205714D02*
X155482380Y-69634285D01*
X155482380Y-69920000D02*
X154482380Y-69920000D01*
X154625238Y-69824761D01*
X154720476Y-69729523D01*
X154768095Y-69634285D01*
X154958571Y-70967619D02*
X155006190Y-71110476D01*
X155053809Y-71158095D01*
X155149047Y-71205714D01*
X155291904Y-71205714D01*
X155387142Y-71158095D01*
X155434761Y-71110476D01*
X155482380Y-71015238D01*
X155482380Y-70634285D01*
X154482380Y-70634285D01*
X154482380Y-70967619D01*
X154530000Y-71062857D01*
X154577619Y-71110476D01*
X154672857Y-71158095D01*
X154768095Y-71158095D01*
X154863333Y-71110476D01*
X154910952Y-71062857D01*
X154958571Y-70967619D01*
X154958571Y-70634285D01*
X153012380Y-70377142D02*
X153012380Y-69805714D01*
X153012380Y-70091428D02*
X152012380Y-70091428D01*
X152155238Y-69996190D01*
X152250476Y-69900952D01*
X152298095Y-69805714D01*
X152726666Y-70758095D02*
X152726666Y-71234285D01*
X153012380Y-70662857D02*
X152012380Y-70996190D01*
X153012380Y-71329523D01*
X149397619Y-69875714D02*
X149350000Y-69923333D01*
X149302380Y-70018571D01*
X149302380Y-70256666D01*
X149350000Y-70351904D01*
X149397619Y-70399523D01*
X149492857Y-70447142D01*
X149588095Y-70447142D01*
X149730952Y-70399523D01*
X150302380Y-69828095D01*
X150302380Y-70447142D01*
X150016666Y-70828095D02*
X150016666Y-71304285D01*
X150302380Y-70732857D02*
X149302380Y-71066190D01*
X150302380Y-71399523D01*
X146987619Y-69774285D02*
X146940000Y-69821904D01*
X146892380Y-69917142D01*
X146892380Y-70155238D01*
X146940000Y-70250476D01*
X146987619Y-70298095D01*
X147082857Y-70345714D01*
X147178095Y-70345714D01*
X147320952Y-70298095D01*
X147892380Y-69726666D01*
X147892380Y-70345714D01*
X147368571Y-71107619D02*
X147416190Y-71250476D01*
X147463809Y-71298095D01*
X147559047Y-71345714D01*
X147701904Y-71345714D01*
X147797142Y-71298095D01*
X147844761Y-71250476D01*
X147892380Y-71155238D01*
X147892380Y-70774285D01*
X146892380Y-70774285D01*
X146892380Y-71107619D01*
X146940000Y-71202857D01*
X146987619Y-71250476D01*
X147082857Y-71298095D01*
X147178095Y-71298095D01*
X147273333Y-71250476D01*
X147320952Y-71202857D01*
X147368571Y-71107619D01*
X147368571Y-70774285D01*
X144460000Y-69828095D02*
X144412380Y-69732857D01*
X144412380Y-69590000D01*
X144460000Y-69447142D01*
X144555238Y-69351904D01*
X144650476Y-69304285D01*
X144840952Y-69256666D01*
X144983809Y-69256666D01*
X145174285Y-69304285D01*
X145269523Y-69351904D01*
X145364761Y-69447142D01*
X145412380Y-69590000D01*
X145412380Y-69685238D01*
X145364761Y-69828095D01*
X145317142Y-69875714D01*
X144983809Y-69875714D01*
X144983809Y-69685238D01*
X145412380Y-70304285D02*
X144412380Y-70304285D01*
X145412380Y-70875714D01*
X144412380Y-70875714D01*
X145412380Y-71351904D02*
X144412380Y-71351904D01*
X144412380Y-71590000D01*
X144460000Y-71732857D01*
X144555238Y-71828095D01*
X144650476Y-71875714D01*
X144840952Y-71923333D01*
X144983809Y-71923333D01*
X145174285Y-71875714D01*
X145269523Y-71828095D01*
X145364761Y-71732857D01*
X145412380Y-71590000D01*
X145412380Y-71351904D01*
X141902380Y-68921904D02*
X142902380Y-69255238D01*
X141902380Y-69588571D01*
X142902380Y-69921904D02*
X142235714Y-69921904D01*
X142330952Y-69921904D02*
X142283333Y-69969523D01*
X142235714Y-70064761D01*
X142235714Y-70207619D01*
X142283333Y-70302857D01*
X142378571Y-70350476D01*
X142902380Y-70350476D01*
X142378571Y-70350476D02*
X142283333Y-70398095D01*
X142235714Y-70493333D01*
X142235714Y-70636190D01*
X142283333Y-70731428D01*
X142378571Y-70779047D01*
X142902380Y-70779047D01*
X142902380Y-71398095D02*
X142854761Y-71302857D01*
X142807142Y-71255238D01*
X142711904Y-71207619D01*
X142426190Y-71207619D01*
X142330952Y-71255238D01*
X142283333Y-71302857D01*
X142235714Y-71398095D01*
X142235714Y-71540952D01*
X142283333Y-71636190D01*
X142330952Y-71683809D01*
X142426190Y-71731428D01*
X142711904Y-71731428D01*
X142807142Y-71683809D01*
X142854761Y-71636190D01*
X142902380Y-71540952D01*
X142902380Y-71398095D01*
X142235714Y-72017142D02*
X142235714Y-72398095D01*
X141902380Y-72160000D02*
X142759523Y-72160000D01*
X142854761Y-72207619D01*
X142902380Y-72302857D01*
X142902380Y-72398095D01*
X160742380Y-76440000D02*
X159742380Y-76440000D01*
X159742380Y-76678095D01*
X159790000Y-76820952D01*
X159885238Y-76916190D01*
X159980476Y-76963809D01*
X160170952Y-77011428D01*
X160313809Y-77011428D01*
X160504285Y-76963809D01*
X160599523Y-76916190D01*
X160694761Y-76820952D01*
X160742380Y-76678095D01*
X160742380Y-76440000D01*
X160742380Y-77440000D02*
X159742380Y-77440000D01*
X160742380Y-78487619D02*
X160266190Y-78154285D01*
X160742380Y-77916190D02*
X159742380Y-77916190D01*
X159742380Y-78297142D01*
X159790000Y-78392380D01*
X159837619Y-78440000D01*
X159932857Y-78487619D01*
X160075714Y-78487619D01*
X160170952Y-78440000D01*
X160218571Y-78392380D01*
X160266190Y-78297142D01*
X160266190Y-77916190D01*
X158014761Y-75820952D02*
X158062380Y-75963809D01*
X158062380Y-76201904D01*
X158014761Y-76297142D01*
X157967142Y-76344761D01*
X157871904Y-76392380D01*
X157776666Y-76392380D01*
X157681428Y-76344761D01*
X157633809Y-76297142D01*
X157586190Y-76201904D01*
X157538571Y-76011428D01*
X157490952Y-75916190D01*
X157443333Y-75868571D01*
X157348095Y-75820952D01*
X157252857Y-75820952D01*
X157157619Y-75868571D01*
X157110000Y-75916190D01*
X157062380Y-76011428D01*
X157062380Y-76249523D01*
X157110000Y-76392380D01*
X157062380Y-76678095D02*
X157062380Y-77249523D01*
X158062380Y-76963809D02*
X157062380Y-76963809D01*
X157538571Y-77582857D02*
X157538571Y-77916190D01*
X158062380Y-78059047D02*
X158062380Y-77582857D01*
X157062380Y-77582857D01*
X157062380Y-78059047D01*
X158062380Y-78487619D02*
X157062380Y-78487619D01*
X157062380Y-78868571D01*
X157110000Y-78963809D01*
X157157619Y-79011428D01*
X157252857Y-79059047D01*
X157395714Y-79059047D01*
X157490952Y-79011428D01*
X157538571Y-78963809D01*
X157586190Y-78868571D01*
X157586190Y-78487619D01*
X155544761Y-76219523D02*
X155592380Y-76362380D01*
X155592380Y-76600476D01*
X155544761Y-76695714D01*
X155497142Y-76743333D01*
X155401904Y-76790952D01*
X155306666Y-76790952D01*
X155211428Y-76743333D01*
X155163809Y-76695714D01*
X155116190Y-76600476D01*
X155068571Y-76410000D01*
X155020952Y-76314761D01*
X154973333Y-76267142D01*
X154878095Y-76219523D01*
X154782857Y-76219523D01*
X154687619Y-76267142D01*
X154640000Y-76314761D01*
X154592380Y-76410000D01*
X154592380Y-76648095D01*
X154640000Y-76790952D01*
X155592380Y-77695714D02*
X155592380Y-77219523D01*
X154592380Y-77219523D01*
X155592380Y-78029047D02*
X154592380Y-78029047D01*
X154592380Y-78410000D01*
X154640000Y-78505238D01*
X154687619Y-78552857D01*
X154782857Y-78600476D01*
X154925714Y-78600476D01*
X155020952Y-78552857D01*
X155068571Y-78505238D01*
X155116190Y-78410000D01*
X155116190Y-78029047D01*
X153182380Y-76862380D02*
X152706190Y-76529047D01*
X153182380Y-76290952D02*
X152182380Y-76290952D01*
X152182380Y-76671904D01*
X152230000Y-76767142D01*
X152277619Y-76814761D01*
X152372857Y-76862380D01*
X152515714Y-76862380D01*
X152610952Y-76814761D01*
X152658571Y-76767142D01*
X152706190Y-76671904D01*
X152706190Y-76290952D01*
X153134761Y-77243333D02*
X153182380Y-77386190D01*
X153182380Y-77624285D01*
X153134761Y-77719523D01*
X153087142Y-77767142D01*
X152991904Y-77814761D01*
X152896666Y-77814761D01*
X152801428Y-77767142D01*
X152753809Y-77719523D01*
X152706190Y-77624285D01*
X152658571Y-77433809D01*
X152610952Y-77338571D01*
X152563333Y-77290952D01*
X152468095Y-77243333D01*
X152372857Y-77243333D01*
X152277619Y-77290952D01*
X152230000Y-77338571D01*
X152182380Y-77433809D01*
X152182380Y-77671904D01*
X152230000Y-77814761D01*
X152182380Y-78100476D02*
X152182380Y-78671904D01*
X153182380Y-78386190D02*
X152182380Y-78386190D01*
X150532380Y-76054285D02*
X149532380Y-76054285D01*
X150246666Y-76387619D01*
X149532380Y-76720952D01*
X150532380Y-76720952D01*
X150484761Y-77149523D02*
X150532380Y-77292380D01*
X150532380Y-77530476D01*
X150484761Y-77625714D01*
X150437142Y-77673333D01*
X150341904Y-77720952D01*
X150246666Y-77720952D01*
X150151428Y-77673333D01*
X150103809Y-77625714D01*
X150056190Y-77530476D01*
X150008571Y-77340000D01*
X149960952Y-77244761D01*
X149913333Y-77197142D01*
X149818095Y-77149523D01*
X149722857Y-77149523D01*
X149627619Y-77197142D01*
X149580000Y-77244761D01*
X149532380Y-77340000D01*
X149532380Y-77578095D01*
X149580000Y-77720952D01*
X149532380Y-78054285D02*
X149532380Y-78673333D01*
X149913333Y-78340000D01*
X149913333Y-78482857D01*
X149960952Y-78578095D01*
X150008571Y-78625714D01*
X150103809Y-78673333D01*
X150341904Y-78673333D01*
X150437142Y-78625714D01*
X150484761Y-78578095D01*
X150532380Y-78482857D01*
X150532380Y-78197142D01*
X150484761Y-78101904D01*
X150437142Y-78054285D01*
X148022380Y-76154285D02*
X147022380Y-76154285D01*
X147736666Y-76487619D01*
X147022380Y-76820952D01*
X148022380Y-76820952D01*
X147974761Y-77249523D02*
X148022380Y-77392380D01*
X148022380Y-77630476D01*
X147974761Y-77725714D01*
X147927142Y-77773333D01*
X147831904Y-77820952D01*
X147736666Y-77820952D01*
X147641428Y-77773333D01*
X147593809Y-77725714D01*
X147546190Y-77630476D01*
X147498571Y-77440000D01*
X147450952Y-77344761D01*
X147403333Y-77297142D01*
X147308095Y-77249523D01*
X147212857Y-77249523D01*
X147117619Y-77297142D01*
X147070000Y-77344761D01*
X147022380Y-77440000D01*
X147022380Y-77678095D01*
X147070000Y-77820952D01*
X147117619Y-78201904D02*
X147070000Y-78249523D01*
X147022380Y-78344761D01*
X147022380Y-78582857D01*
X147070000Y-78678095D01*
X147117619Y-78725714D01*
X147212857Y-78773333D01*
X147308095Y-78773333D01*
X147450952Y-78725714D01*
X148022380Y-78154285D01*
X148022380Y-78773333D01*
X145512380Y-76154285D02*
X144512380Y-76154285D01*
X145226666Y-76487619D01*
X144512380Y-76820952D01*
X145512380Y-76820952D01*
X145464761Y-77249523D02*
X145512380Y-77392380D01*
X145512380Y-77630476D01*
X145464761Y-77725714D01*
X145417142Y-77773333D01*
X145321904Y-77820952D01*
X145226666Y-77820952D01*
X145131428Y-77773333D01*
X145083809Y-77725714D01*
X145036190Y-77630476D01*
X144988571Y-77440000D01*
X144940952Y-77344761D01*
X144893333Y-77297142D01*
X144798095Y-77249523D01*
X144702857Y-77249523D01*
X144607619Y-77297142D01*
X144560000Y-77344761D01*
X144512380Y-77440000D01*
X144512380Y-77678095D01*
X144560000Y-77820952D01*
X145512380Y-78773333D02*
X145512380Y-78201904D01*
X145512380Y-78487619D02*
X144512380Y-78487619D01*
X144655238Y-78392380D01*
X144750476Y-78297142D01*
X144798095Y-78201904D01*
M02*
