G04 #@! TF.GenerationSoftware,KiCad,Pcbnew,(5.1.4)-1*
G04 #@! TF.CreationDate,2020-01-03T17:16:49+05:00*
G04 #@! TF.ProjectId,speeduino_ntv650,73706565-6475-4696-9e6f-5f6e74763635,rev?*
G04 #@! TF.SameCoordinates,Original*
G04 #@! TF.FileFunction,Other,User*
%FSLAX46Y46*%
G04 Gerber Fmt 4.6, Leading zero omitted, Abs format (unit mm)*
G04 Created by KiCad (PCBNEW (5.1.4)-1) date 2020-01-03 17:16:49*
%MOMM*%
%LPD*%
G04 APERTURE LIST*
%ADD10C,0.100000*%
%ADD11C,0.150000*%
%ADD12C,0.050000*%
G04 APERTURE END LIST*
D10*
X110806666Y-38620000D02*
G75*
G03X110806666Y-38620000I-1666666J0D01*
G01*
X106640000Y-38620000D02*
X111640000Y-38620000D01*
X109140000Y-36120000D02*
X109140000Y-41120000D01*
X190016666Y-162490000D02*
G75*
G03X190016666Y-162490000I-1666666J0D01*
G01*
X185850000Y-162490000D02*
X190850000Y-162490000D01*
X188350000Y-159990000D02*
X188350000Y-164990000D01*
D11*
X184070000Y-155040000D02*
G75*
G03X184070000Y-155040000I-3000000J0D01*
G01*
D10*
X190286666Y-38760000D02*
G75*
G03X190286666Y-38760000I-1666666J0D01*
G01*
X186120000Y-38760000D02*
X191120000Y-38760000D01*
X188620000Y-36260000D02*
X188620000Y-41260000D01*
X111396666Y-162190000D02*
G75*
G03X111396666Y-162190000I-1666666J0D01*
G01*
X107230000Y-162190000D02*
X112230000Y-162190000D01*
X109730000Y-159690000D02*
X109730000Y-164690000D01*
D11*
X120070000Y-155040000D02*
G75*
G03X120070000Y-155040000I-3000000J0D01*
G01*
X184070000Y-46040000D02*
G75*
G03X184070000Y-46040000I-3000000J0D01*
G01*
X120070000Y-46040000D02*
G75*
G03X120070000Y-46040000I-3000000J0D01*
G01*
D10*
X112070000Y-160040000D02*
X112070000Y-41040000D01*
X186070000Y-160040000D02*
X112070000Y-160040000D01*
X186070000Y-41040000D02*
X186070000Y-160040000D01*
X112070000Y-41040000D02*
X186070000Y-41040000D01*
D12*
X115900000Y-78020000D02*
X123400000Y-78020000D01*
X115900000Y-81720000D02*
X115900000Y-78020000D01*
X123400000Y-81720000D02*
X115900000Y-81720000D01*
X123400000Y-78020000D02*
X123400000Y-81720000D01*
X120880000Y-76020000D02*
X115980000Y-76020000D01*
X120880000Y-73780000D02*
X120880000Y-76020000D01*
X115980000Y-73780000D02*
X120880000Y-73780000D01*
X115980000Y-76020000D02*
X115980000Y-73780000D01*
X122830000Y-73880000D02*
X127730000Y-73880000D01*
X122830000Y-76120000D02*
X122830000Y-73880000D01*
X127730000Y-76120000D02*
X122830000Y-76120000D01*
X127730000Y-73880000D02*
X127730000Y-76120000D01*
X161732000Y-84310000D02*
X161732000Y-89210000D01*
X159492000Y-84310000D02*
X161732000Y-84310000D01*
X159492000Y-89210000D02*
X159492000Y-84310000D01*
X161732000Y-89210000D02*
X159492000Y-89210000D01*
X153625000Y-126310000D02*
X158525000Y-126310000D01*
X153625000Y-128550000D02*
X153625000Y-126310000D01*
X158525000Y-128550000D02*
X153625000Y-128550000D01*
X158525000Y-126310000D02*
X158525000Y-128550000D01*
X162698000Y-90360000D02*
X162698000Y-95260000D01*
X160458000Y-90360000D02*
X162698000Y-90360000D01*
X160458000Y-95260000D02*
X160458000Y-90360000D01*
X162698000Y-95260000D02*
X160458000Y-95260000D01*
X176910000Y-122810000D02*
X172010000Y-122810000D01*
X176910000Y-120570000D02*
X176910000Y-122810000D01*
X172010000Y-120570000D02*
X176910000Y-120570000D01*
X172010000Y-122810000D02*
X172010000Y-120570000D01*
X177078000Y-129550000D02*
X172178000Y-129550000D01*
X177078000Y-127310000D02*
X177078000Y-129550000D01*
X172178000Y-127310000D02*
X177078000Y-127310000D01*
X172178000Y-129550000D02*
X172178000Y-127310000D01*
X176138000Y-89210000D02*
X176138000Y-84310000D01*
X178378000Y-89210000D02*
X176138000Y-89210000D01*
X178378000Y-84310000D02*
X178378000Y-89210000D01*
X176138000Y-84310000D02*
X178378000Y-84310000D01*
X151318000Y-61800000D02*
X156218000Y-61800000D01*
X151318000Y-64040000D02*
X151318000Y-61800000D01*
X156218000Y-64040000D02*
X151318000Y-64040000D01*
X156218000Y-61800000D02*
X156218000Y-64040000D01*
X153625000Y-130960000D02*
X158525000Y-130960000D01*
X153625000Y-133200000D02*
X153625000Y-130960000D01*
X158525000Y-133200000D02*
X153625000Y-133200000D01*
X158525000Y-130960000D02*
X158525000Y-133200000D01*
X182510000Y-90360000D02*
X182510000Y-95260000D01*
X180270000Y-90360000D02*
X182510000Y-90360000D01*
X180270000Y-95260000D02*
X180270000Y-90360000D01*
X182510000Y-95260000D02*
X180270000Y-95260000D01*
X158525000Y-142430000D02*
X153625000Y-142430000D01*
X158525000Y-140190000D02*
X158525000Y-142430000D01*
X153625000Y-140190000D02*
X158525000Y-140190000D01*
X153625000Y-142430000D02*
X153625000Y-140190000D01*
X178618000Y-117185000D02*
X183518000Y-117185000D01*
X178618000Y-119425000D02*
X178618000Y-117185000D01*
X183518000Y-119425000D02*
X178618000Y-119425000D01*
X183518000Y-117185000D02*
X183518000Y-119425000D01*
X171977000Y-89210000D02*
X171977000Y-84310000D01*
X174217000Y-89210000D02*
X171977000Y-89210000D01*
X174217000Y-84310000D02*
X174217000Y-89210000D01*
X171977000Y-84310000D02*
X174217000Y-84310000D01*
X158525000Y-147350000D02*
X153625000Y-147350000D01*
X158525000Y-145110000D02*
X158525000Y-147350000D01*
X153625000Y-145110000D02*
X158525000Y-145110000D01*
X153625000Y-147350000D02*
X153625000Y-145110000D01*
X177572000Y-90360000D02*
X177572000Y-95260000D01*
X175332000Y-90360000D02*
X177572000Y-90360000D01*
X175332000Y-95260000D02*
X175332000Y-90360000D01*
X177572000Y-95260000D02*
X175332000Y-95260000D01*
X165169000Y-64040000D02*
X160269000Y-64040000D01*
X165169000Y-61800000D02*
X165169000Y-64040000D01*
X160269000Y-61800000D02*
X165169000Y-61800000D01*
X160269000Y-64040000D02*
X160269000Y-61800000D01*
X169220000Y-61800000D02*
X174120000Y-61800000D01*
X169220000Y-64040000D02*
X169220000Y-61800000D01*
X174120000Y-64040000D02*
X169220000Y-64040000D01*
X174120000Y-61800000D02*
X174120000Y-64040000D01*
X141600000Y-142843000D02*
X136700000Y-142843000D01*
X141600000Y-140603000D02*
X141600000Y-142843000D01*
X136700000Y-140603000D02*
X141600000Y-140603000D01*
X136700000Y-142843000D02*
X136700000Y-140603000D01*
X165396000Y-95260000D02*
X165396000Y-90360000D01*
X167636000Y-95260000D02*
X165396000Y-95260000D01*
X167636000Y-90360000D02*
X167636000Y-95260000D01*
X165396000Y-90360000D02*
X167636000Y-90360000D01*
X118800000Y-123710000D02*
X113900000Y-123710000D01*
X118800000Y-121470000D02*
X118800000Y-123710000D01*
X113900000Y-121470000D02*
X118800000Y-121470000D01*
X113900000Y-123710000D02*
X113900000Y-121470000D01*
X118800000Y-128650000D02*
X113900000Y-128650000D01*
X118800000Y-126410000D02*
X118800000Y-128650000D01*
X113900000Y-126410000D02*
X118800000Y-126410000D01*
X113900000Y-128650000D02*
X113900000Y-126410000D01*
X118800000Y-113830000D02*
X113900000Y-113830000D01*
X118800000Y-111590000D02*
X118800000Y-113830000D01*
X113900000Y-111590000D02*
X118800000Y-111590000D01*
X113900000Y-113830000D02*
X113900000Y-111590000D01*
X118800000Y-118770000D02*
X113900000Y-118770000D01*
X118800000Y-116530000D02*
X118800000Y-118770000D01*
X113900000Y-116530000D02*
X118800000Y-116530000D01*
X113900000Y-118770000D02*
X113900000Y-116530000D01*
X136800000Y-145270000D02*
X141700000Y-145270000D01*
X136800000Y-147510000D02*
X136800000Y-145270000D01*
X141700000Y-147510000D02*
X136800000Y-147510000D01*
X141700000Y-145270000D02*
X141700000Y-147510000D01*
X141700000Y-128783000D02*
X136800000Y-128783000D01*
X141700000Y-126543000D02*
X141700000Y-128783000D01*
X136800000Y-126543000D02*
X141700000Y-126543000D01*
X136800000Y-128783000D02*
X136800000Y-126543000D01*
X125250000Y-123760000D02*
X120350000Y-123760000D01*
X125250000Y-121520000D02*
X125250000Y-123760000D01*
X120350000Y-121520000D02*
X125250000Y-121520000D01*
X120350000Y-123760000D02*
X120350000Y-121520000D01*
X125250000Y-128700000D02*
X120350000Y-128700000D01*
X125250000Y-126460000D02*
X125250000Y-128700000D01*
X120350000Y-126460000D02*
X125250000Y-126460000D01*
X120350000Y-128700000D02*
X120350000Y-126460000D01*
X155490000Y-95160000D02*
X155490000Y-90260000D01*
X157730000Y-95160000D02*
X155490000Y-95160000D01*
X157730000Y-90260000D02*
X157730000Y-95160000D01*
X155490000Y-90260000D02*
X157730000Y-90260000D01*
X172604000Y-90260000D02*
X172604000Y-95160000D01*
X170364000Y-90260000D02*
X172604000Y-90260000D01*
X170364000Y-95160000D02*
X170364000Y-90260000D01*
X172604000Y-95160000D02*
X170364000Y-95160000D01*
X178618000Y-122248000D02*
X183518000Y-122248000D01*
X178618000Y-124488000D02*
X178618000Y-122248000D01*
X183518000Y-124488000D02*
X178618000Y-124488000D01*
X183518000Y-122248000D02*
X183518000Y-124488000D01*
X178618000Y-127310000D02*
X183518000Y-127310000D01*
X178618000Y-129550000D02*
X178618000Y-127310000D01*
X183518000Y-129550000D02*
X178618000Y-129550000D01*
X183518000Y-127310000D02*
X183518000Y-129550000D01*
X141700000Y-119390000D02*
X136800000Y-119390000D01*
X141700000Y-117150000D02*
X141700000Y-119390000D01*
X136800000Y-117150000D02*
X141700000Y-117150000D01*
X136800000Y-119390000D02*
X136800000Y-117150000D01*
X141700000Y-124087000D02*
X136800000Y-124087000D01*
X141700000Y-121847000D02*
X141700000Y-124087000D01*
X136800000Y-121847000D02*
X141700000Y-121847000D01*
X136800000Y-124087000D02*
X136800000Y-121847000D01*
X136800000Y-131240000D02*
X141700000Y-131240000D01*
X136800000Y-133480000D02*
X136800000Y-131240000D01*
X141700000Y-133480000D02*
X136800000Y-133480000D01*
X141700000Y-131240000D02*
X141700000Y-133480000D01*
X141700000Y-138177000D02*
X136800000Y-138177000D01*
X141700000Y-135937000D02*
X141700000Y-138177000D01*
X136800000Y-135937000D02*
X141700000Y-135937000D01*
X136800000Y-138177000D02*
X136800000Y-135937000D01*
X125250000Y-118820000D02*
X120350000Y-118820000D01*
X125250000Y-116580000D02*
X125250000Y-118820000D01*
X120350000Y-116580000D02*
X125250000Y-116580000D01*
X120350000Y-118820000D02*
X120350000Y-116580000D01*
X158350000Y-123800000D02*
X153450000Y-123800000D01*
X158350000Y-121560000D02*
X158350000Y-123800000D01*
X153450000Y-121560000D02*
X158350000Y-121560000D01*
X153450000Y-123800000D02*
X153450000Y-121560000D01*
X157570000Y-84310000D02*
X157570000Y-89210000D01*
X155330000Y-84310000D02*
X157570000Y-84310000D01*
X155330000Y-89210000D02*
X155330000Y-84310000D01*
X157570000Y-89210000D02*
X155330000Y-89210000D01*
X176632000Y-116070000D02*
X171732000Y-116070000D01*
X176632000Y-113830000D02*
X176632000Y-116070000D01*
X171732000Y-113830000D02*
X176632000Y-113830000D01*
X171732000Y-116070000D02*
X171732000Y-113830000D01*
X183710000Y-114362000D02*
X178810000Y-114362000D01*
X183710000Y-112122000D02*
X183710000Y-114362000D01*
X178810000Y-112122000D02*
X183710000Y-112122000D01*
X178810000Y-114362000D02*
X178810000Y-112122000D01*
X178810000Y-107060000D02*
X183710000Y-107060000D01*
X178810000Y-109300000D02*
X178810000Y-107060000D01*
X183710000Y-109300000D02*
X178810000Y-109300000D01*
X183710000Y-107060000D02*
X183710000Y-109300000D01*
X180300000Y-89210000D02*
X180300000Y-84310000D01*
X182540000Y-89210000D02*
X180300000Y-89210000D01*
X182540000Y-84310000D02*
X182540000Y-89210000D01*
X180300000Y-84310000D02*
X182540000Y-84310000D01*
X153760000Y-54800000D02*
X153760000Y-59700000D01*
X151520000Y-54800000D02*
X153760000Y-54800000D01*
X151520000Y-59700000D02*
X151520000Y-54800000D01*
X153760000Y-59700000D02*
X151520000Y-59700000D01*
X171810000Y-107090000D02*
X176710000Y-107090000D01*
X171810000Y-109330000D02*
X171810000Y-107090000D01*
X176710000Y-109330000D02*
X171810000Y-109330000D01*
X176710000Y-107090000D02*
X176710000Y-109330000D01*
X158625000Y-137740000D02*
X153725000Y-137740000D01*
X158625000Y-135500000D02*
X158625000Y-137740000D01*
X153725000Y-135500000D02*
X158625000Y-135500000D01*
X153725000Y-137740000D02*
X153725000Y-135500000D01*
X157812000Y-54800000D02*
X157812000Y-59700000D01*
X155572000Y-54800000D02*
X157812000Y-54800000D01*
X155572000Y-59700000D02*
X155572000Y-54800000D01*
X157812000Y-59700000D02*
X155572000Y-59700000D01*
X163676000Y-59700000D02*
X163676000Y-54800000D01*
X165916000Y-59700000D02*
X163676000Y-59700000D01*
X165916000Y-54800000D02*
X165916000Y-59700000D01*
X163676000Y-54800000D02*
X165916000Y-54800000D01*
X159624000Y-59700000D02*
X159624000Y-54800000D01*
X161864000Y-59700000D02*
X159624000Y-59700000D01*
X161864000Y-54800000D02*
X161864000Y-59700000D01*
X159624000Y-54800000D02*
X161864000Y-54800000D01*
X167728000Y-59700000D02*
X167728000Y-54800000D01*
X169968000Y-59700000D02*
X167728000Y-59700000D01*
X169968000Y-54800000D02*
X169968000Y-59700000D01*
X167728000Y-54800000D02*
X169968000Y-54800000D01*
X171780000Y-59700000D02*
X171780000Y-54800000D01*
X174020000Y-59700000D02*
X171780000Y-59700000D01*
X174020000Y-54800000D02*
X174020000Y-59700000D01*
X171780000Y-54800000D02*
X174020000Y-54800000D01*
X163653000Y-89210000D02*
X163653000Y-84310000D01*
X165893000Y-89210000D02*
X163653000Y-89210000D01*
X165893000Y-84310000D02*
X165893000Y-89210000D01*
X163653000Y-84310000D02*
X165893000Y-84310000D01*
X167815000Y-89210000D02*
X167815000Y-84310000D01*
X170055000Y-89210000D02*
X167815000Y-89210000D01*
X170055000Y-84310000D02*
X170055000Y-89210000D01*
X167815000Y-84310000D02*
X170055000Y-84310000D01*
X125250000Y-113880000D02*
X120350000Y-113880000D01*
X125250000Y-111640000D02*
X125250000Y-113880000D01*
X120350000Y-111640000D02*
X125250000Y-111640000D01*
X120350000Y-113880000D02*
X120350000Y-111640000D01*
X122410000Y-66170000D02*
X114190000Y-66170000D01*
X122410000Y-71890000D02*
X122410000Y-66170000D01*
X114190000Y-71890000D02*
X122410000Y-71890000D01*
X114190000Y-66170000D02*
X114190000Y-71890000D01*
X125160000Y-51170000D02*
X112660000Y-51170000D01*
X125160000Y-55570000D02*
X112660000Y-55570000D01*
X112660000Y-55570000D02*
X112660000Y-51170000D01*
X125160000Y-55570000D02*
X125160000Y-51170000D01*
X182320000Y-100540000D02*
G75*
G03X182320000Y-100540000I-3250000J0D01*
G01*
X122320000Y-100540000D02*
G75*
G03X122320000Y-100540000I-3250000J0D01*
G01*
X182320000Y-140040000D02*
G75*
G03X182320000Y-140040000I-3250000J0D01*
G01*
X182320000Y-61040000D02*
G75*
G03X182320000Y-61040000I-3250000J0D01*
G01*
X122320000Y-61040000D02*
G75*
G03X122320000Y-61040000I-3250000J0D01*
G01*
X122320000Y-140040000D02*
G75*
G03X122320000Y-140040000I-3250000J0D01*
G01*
X121970000Y-50860000D02*
X176120000Y-50860000D01*
X121970000Y-32760000D02*
X121970000Y-50860000D01*
X176120000Y-32760000D02*
X121970000Y-32760000D01*
X176120000Y-50860000D02*
X176120000Y-32760000D01*
X150940000Y-95060000D02*
X150940000Y-84360000D01*
X150940000Y-84360000D02*
X141140000Y-84360000D01*
X141140000Y-84360000D02*
X141140000Y-95060000D01*
X141140000Y-95060000D02*
X150940000Y-95060000D01*
X140980000Y-55630000D02*
X137780000Y-55630000D01*
X137780000Y-55630000D02*
X137780000Y-60880000D01*
X137780000Y-60880000D02*
X140980000Y-60880000D01*
X140980000Y-60880000D02*
X140980000Y-55630000D01*
X145550000Y-55740000D02*
X142350000Y-55740000D01*
X142350000Y-55740000D02*
X142350000Y-60990000D01*
X142350000Y-60990000D02*
X145550000Y-60990000D01*
X145550000Y-60990000D02*
X145550000Y-55740000D01*
X172380000Y-70910000D02*
X172380000Y-76560000D01*
X179780000Y-70910000D02*
X179780000Y-76560000D01*
X172380000Y-70910000D02*
X179780000Y-70910000D01*
X172380000Y-76560000D02*
X179780000Y-76560000D01*
X131640000Y-64410000D02*
X127740000Y-64410000D01*
X127740000Y-64410000D02*
X127740000Y-72610000D01*
X127740000Y-72610000D02*
X131640000Y-72610000D01*
X131640000Y-72610000D02*
X131640000Y-64410000D01*
X131710000Y-62630000D02*
X131710000Y-52130000D01*
X126800000Y-62630000D02*
X131710000Y-62630000D01*
X126800000Y-52130000D02*
X126800000Y-62630000D01*
X131710000Y-52130000D02*
X126800000Y-52130000D01*
X135700000Y-95060000D02*
X135700000Y-84560000D01*
X130790000Y-95060000D02*
X135700000Y-95060000D01*
X130790000Y-84560000D02*
X130790000Y-95060000D01*
X135700000Y-84560000D02*
X130790000Y-84560000D01*
X127980000Y-95060000D02*
X127980000Y-84560000D01*
X123070000Y-95060000D02*
X127980000Y-95060000D01*
X123070000Y-84560000D02*
X123070000Y-95060000D01*
X127980000Y-84560000D02*
X123070000Y-84560000D01*
X120220000Y-95060000D02*
X120220000Y-84560000D01*
X115310000Y-95060000D02*
X120220000Y-95060000D01*
X115310000Y-84560000D02*
X115310000Y-95060000D01*
X120220000Y-84560000D02*
X115310000Y-84560000D01*
X145552000Y-116108000D02*
X153052000Y-116108000D01*
X145552000Y-110608000D02*
X153052000Y-110608000D01*
X153052000Y-110608000D02*
X153052000Y-116108000D01*
X145552000Y-110608000D02*
X145552000Y-116108000D01*
M02*
