M48
; DRILL file {KiCad (5.1.4)-1} date 27.11.2019 23:23:00
; FORMAT={-:-/ absolute / metric / decimal}
; #@! TF.CreationDate,2019-11-27T23:23:00+05:00
; #@! TF.GenerationSoftware,Kicad,Pcbnew,(5.1.4)-1
; #@! TF.FileFunction,Plated,1,2,PTH
FMAT,2
METRIC
T1C0.600
T2C0.762
T3C0.800
T4C1.000
T5C1.020
T6C1.100
T7C1.300
T8C3.000
T9C3.200
%
G90
G05
T1
X115.595Y-104.25
X116.71Y-128.639
X116.759Y-122.439
X134.005Y-102.85
X136.25Y-87.252
X136.788Y-75.805
X137.167Y-126.313
X139.007Y-70.549
X140.636Y-70.151
X145.127Y-113.825
X145.499Y-117.463
X152.55Y-94.707
X153.477Y-111.632
X153.7Y-84.468
X153.904Y-54.767
X154.371Y-143.023
X155.516Y-114.104
X155.86Y-119.894
X156.976Y-113.029
X158.865Y-86.451
X159.393Y-115.646
X160.253Y-93.588
X161.111Y-110.278
X163.3Y-80.548
X164.829Y-54.299
X165.068Y-66.715
X167.858Y-94.16
X168.202Y-54.45
X169.606Y-121.24
X169.827Y-74.602
X171.224Y-51.798
X172.69Y-118.09
X172.837Y-92.627
X173.283Y-111.252
X174.535Y-89.853
T2
X130.065Y-106.645
X130.065Y-109.185
X130.065Y-111.725
X130.065Y-114.265
X130.065Y-116.805
X130.065Y-119.345
X130.065Y-121.885
X130.065Y-124.425
X130.065Y-126.965
X130.065Y-129.505
X130.065Y-132.045
X130.065Y-134.585
X130.065Y-137.125
X130.065Y-139.665
X130.065Y-142.205
X130.065Y-144.745
X130.065Y-147.285
X130.065Y-149.825
X130.065Y-152.365
X130.065Y-154.905
X132.605Y-106.645
X132.605Y-109.185
X132.605Y-111.725
X132.605Y-114.265
X132.605Y-116.805
X132.605Y-119.345
X132.605Y-121.885
X132.605Y-124.425
X132.605Y-126.965
X132.605Y-129.505
X132.605Y-132.045
X132.605Y-134.585
X132.605Y-137.125
X132.605Y-139.665
X132.605Y-142.205
X132.605Y-144.745
X132.605Y-147.285
X132.605Y-149.825
X132.605Y-152.365
X132.605Y-154.905
X142.765Y-152.365
X142.765Y-154.905
X144.445Y-106.645
X145.305Y-152.365
X145.305Y-154.905
X146.985Y-106.645
X147.845Y-152.365
X147.845Y-154.905
X149.525Y-106.645
X152.065Y-106.645
X154.605Y-106.645
X155.465Y-152.365
X155.465Y-154.905
X158.005Y-152.365
X158.005Y-154.905
X160.545Y-152.365
X160.545Y-154.905
X163.085Y-116.795
X163.085Y-119.335
X163.085Y-121.875
X163.085Y-124.415
X163.085Y-126.955
X163.085Y-129.495
X163.085Y-132.035
X163.085Y-134.575
X163.085Y-137.115
X163.085Y-139.655
X163.085Y-142.195
X163.085Y-144.735
X163.085Y-147.275
X163.085Y-149.815
X163.085Y-152.365
X163.085Y-154.905
X165.625Y-116.795
X165.625Y-119.335
X165.625Y-121.875
X165.625Y-124.415
X165.625Y-126.955
X165.625Y-129.495
X165.625Y-132.035
X165.625Y-134.575
X165.625Y-137.115
X165.625Y-139.655
X165.625Y-142.195
X165.625Y-144.735
X165.625Y-147.275
X165.625Y-149.815
X165.625Y-152.365
X165.625Y-154.905
T3
X142.22Y-85.89
X142.22Y-88.43
X142.22Y-90.97
X142.22Y-93.51
X149.84Y-85.89
X149.84Y-88.43
X149.84Y-90.97
X149.84Y-93.51
X139.38Y-57.23
X139.38Y-59.77
X115.16Y-52.67
X122.66Y-54.07
X143.95Y-57.34
X143.95Y-59.88
T4
X117.47Y-87.27
X117.47Y-89.81
X117.47Y-92.35
X125.23Y-87.27
X125.23Y-89.81
X125.23Y-92.35
X132.42Y-47.61
X133.805Y-44.77
X135.19Y-47.61
X136.575Y-44.77
X137.96Y-47.61
X139.345Y-44.77
X140.73Y-47.61
X142.115Y-44.77
X143.5Y-47.61
X144.885Y-44.77
X146.27Y-47.61
X147.655Y-44.77
X149.04Y-47.61
X150.425Y-44.77
X151.81Y-47.61
X153.195Y-44.77
X154.58Y-47.61
X155.965Y-44.77
X157.35Y-47.61
X158.735Y-44.77
X160.12Y-47.61
X161.505Y-44.77
X162.89Y-47.61
X164.275Y-44.77
X165.66Y-47.61
X132.95Y-87.27
X132.95Y-89.81
X132.95Y-92.35
X128.96Y-54.84
X128.96Y-57.38
X128.96Y-59.92
T5
X142.47Y-67.51
X142.47Y-80.21
X145.01Y-67.51
X145.01Y-80.21
X147.55Y-67.51
X147.55Y-80.21
X150.09Y-67.51
X150.09Y-80.21
X152.63Y-67.51
X152.63Y-80.21
X155.17Y-67.51
X155.17Y-80.21
X157.71Y-67.51
X157.71Y-80.21
X160.25Y-67.51
X160.25Y-80.21
T6
X129.69Y-65.86
X129.69Y-70.94
T7
X117.31Y-69.59
X122.39Y-69.59
T8
X119.07Y-100.54
X119.07Y-61.04
X179.07Y-100.54
X179.07Y-61.04
X179.07Y-140.04
X119.07Y-140.04
T9
X125.49Y-47.31
X172.59Y-47.31
T0
M30
