M48
; DRILL file {KiCad (5.1.4)-1} date 03.01.2020 18:21:35
; FORMAT={-:-/ absolute / metric / decimal}
; #@! TF.CreationDate,2020-01-03T18:21:35+05:00
; #@! TF.GenerationSoftware,Kicad,Pcbnew,(5.1.4)-1
; #@! TF.FileFunction,Plated,1,2,PTH
FMAT,2
METRIC
T1C0.600
T2C0.762
T3C0.800
T4C1.000
T5C1.020
T6C1.100
T7C1.300
T8C3.000
T9C3.200
%
G90
G05
T1
X124.194Y-55.155
X130.119Y-101.745
X130.32Y-100.133
X131.714Y-93.972
X137.295Y-111.939
X139.263Y-52.409
X153.66Y-111.589
X157.046Y-112.76
X157.169Y-114.817
X157.869Y-116.881
X158.235Y-85.872
X158.837Y-89.698
X159.834Y-112.901
X160.1Y-66.899
X160.189Y-80.21
X162.157Y-111.959
X162.377Y-65.644
X162.386Y-78.859
X163.037Y-51.185
X163.452Y-113.52
X164.825Y-108.996
X165.378Y-105.248
X166.974Y-46.801
X168.067Y-76.002
X168.097Y-93.887
X168.177Y-89.669
X168.268Y-43.989
X171.814Y-96.626
X174.833Y-88.035
X175.789Y-105.128
X180.154Y-114.968
X180.237Y-121.242
X182.382Y-86.84
T2
X130.065Y-106.645
X130.065Y-109.185
X130.065Y-111.725
X130.065Y-114.265
X130.065Y-116.805
X130.065Y-119.345
X130.065Y-121.885
X130.065Y-124.425
X130.065Y-126.965
X130.065Y-129.505
X130.065Y-132.045
X130.065Y-134.585
X130.065Y-137.125
X130.065Y-139.665
X130.065Y-142.205
X130.065Y-144.745
X130.065Y-147.285
X130.065Y-149.825
X130.065Y-152.365
X130.065Y-154.905
X132.605Y-106.645
X132.605Y-109.185
X132.605Y-111.725
X132.605Y-114.265
X132.605Y-116.805
X132.605Y-119.345
X132.605Y-121.885
X132.605Y-124.425
X132.605Y-126.965
X132.605Y-129.505
X132.605Y-132.045
X132.605Y-134.585
X132.605Y-137.125
X132.605Y-139.665
X132.605Y-142.205
X132.605Y-144.745
X132.605Y-147.285
X132.605Y-149.825
X132.605Y-152.365
X132.605Y-154.905
X142.765Y-152.365
X142.765Y-154.905
X144.445Y-106.645
X145.305Y-152.365
X145.305Y-154.905
X146.985Y-106.645
X147.845Y-152.365
X147.845Y-154.905
X149.525Y-106.645
X152.065Y-106.645
X154.605Y-106.645
X155.465Y-152.365
X155.465Y-154.905
X158.005Y-152.365
X158.005Y-154.905
X160.545Y-152.365
X160.545Y-154.905
X163.085Y-116.795
X163.085Y-119.335
X163.085Y-121.875
X163.085Y-124.415
X163.085Y-126.955
X163.085Y-129.495
X163.085Y-132.035
X163.085Y-134.575
X163.085Y-137.115
X163.085Y-139.655
X163.085Y-142.195
X163.085Y-144.735
X163.085Y-147.275
X163.085Y-149.815
X163.085Y-152.365
X163.085Y-154.905
X165.625Y-116.795
X165.625Y-119.335
X165.625Y-121.875
X165.625Y-124.415
X165.625Y-126.955
X165.625Y-129.495
X165.625Y-132.035
X165.625Y-134.575
X165.625Y-137.115
X165.625Y-139.655
X165.625Y-142.195
X165.625Y-144.735
X165.625Y-147.275
X165.625Y-149.815
X165.625Y-152.365
X165.625Y-154.905
T3
X142.22Y-85.89
X142.22Y-88.43
X142.22Y-90.97
X142.22Y-93.51
X149.84Y-85.89
X149.84Y-88.43
X149.84Y-90.97
X149.84Y-93.51
X115.16Y-52.67
X122.66Y-54.07
T4
X125.23Y-87.27
X125.23Y-89.81
X125.23Y-92.35
X132.42Y-47.61
X133.805Y-44.77
X135.19Y-47.61
X136.575Y-44.77
X137.96Y-47.61
X139.345Y-44.77
X140.73Y-47.61
X142.115Y-44.77
X143.5Y-47.61
X144.885Y-44.77
X146.27Y-47.61
X147.655Y-44.77
X149.04Y-47.61
X150.425Y-44.77
X151.81Y-47.61
X153.195Y-44.77
X154.58Y-47.61
X155.965Y-44.77
X157.35Y-47.61
X158.735Y-44.77
X160.12Y-47.61
X161.505Y-44.77
X162.89Y-47.61
X164.275Y-44.77
X165.66Y-47.61
X132.95Y-87.27
X132.95Y-89.81
X132.95Y-92.35
X128.96Y-54.84
X128.96Y-57.38
X128.96Y-59.92
X117.47Y-87.27
X117.47Y-89.81
X117.47Y-92.35
T5
X137.58Y-67.05
X137.58Y-79.75
X140.12Y-67.05
X140.12Y-79.75
X142.66Y-67.05
X142.66Y-79.75
X145.2Y-67.05
X145.2Y-79.75
X147.74Y-67.05
X147.74Y-79.75
X150.28Y-67.05
X150.28Y-79.75
X152.82Y-67.05
X152.82Y-79.75
X155.36Y-67.05
X155.36Y-79.75
T6
X129.69Y-65.86
X129.69Y-70.94
T7
X117.05Y-69.03
X120.86Y-69.03
T8
X119.07Y-100.54
X179.07Y-100.54
X179.07Y-61.04
X179.07Y-140.04
X119.07Y-140.04
X119.07Y-61.04
T9
X125.49Y-47.31
X172.59Y-47.31
T0
M30
