G04 #@! TF.GenerationSoftware,KiCad,Pcbnew,(5.1.4)-1*
G04 #@! TF.CreationDate,2020-01-03T18:21:15+05:00*
G04 #@! TF.ProjectId,speeduino_ntv650,73706565-6475-4696-9e6f-5f6e74763635,rev?*
G04 #@! TF.SameCoordinates,Original*
G04 #@! TF.FileFunction,Legend,Top*
G04 #@! TF.FilePolarity,Positive*
%FSLAX46Y46*%
G04 Gerber Fmt 4.6, Leading zero omitted, Abs format (unit mm)*
G04 Created by KiCad (PCBNEW (5.1.4)-1) date 2020-01-03 18:21:15*
%MOMM*%
%LPD*%
G04 APERTURE LIST*
%ADD10C,0.300000*%
%ADD11C,0.100000*%
%ADD12C,0.150000*%
%ADD13C,0.120000*%
G04 APERTURE END LIST*
D10*
X131497442Y-100408822D02*
X131711728Y-100480251D01*
X132068871Y-100480251D01*
X132211728Y-100408822D01*
X132283157Y-100337394D01*
X132354585Y-100194537D01*
X132354585Y-100051680D01*
X132283157Y-99908822D01*
X132211728Y-99837394D01*
X132068871Y-99765965D01*
X131783157Y-99694537D01*
X131640300Y-99623108D01*
X131568871Y-99551680D01*
X131497442Y-99408822D01*
X131497442Y-99265965D01*
X131568871Y-99123108D01*
X131640300Y-99051680D01*
X131783157Y-98980251D01*
X132140300Y-98980251D01*
X132354585Y-99051680D01*
X132997442Y-99480251D02*
X132997442Y-100980251D01*
X132997442Y-99551680D02*
X133140300Y-99480251D01*
X133426014Y-99480251D01*
X133568871Y-99551680D01*
X133640300Y-99623108D01*
X133711728Y-99765965D01*
X133711728Y-100194537D01*
X133640300Y-100337394D01*
X133568871Y-100408822D01*
X133426014Y-100480251D01*
X133140300Y-100480251D01*
X132997442Y-100408822D01*
X134926014Y-100408822D02*
X134783157Y-100480251D01*
X134497442Y-100480251D01*
X134354585Y-100408822D01*
X134283157Y-100265965D01*
X134283157Y-99694537D01*
X134354585Y-99551680D01*
X134497442Y-99480251D01*
X134783157Y-99480251D01*
X134926014Y-99551680D01*
X134997442Y-99694537D01*
X134997442Y-99837394D01*
X134283157Y-99980251D01*
X136211728Y-100408822D02*
X136068871Y-100480251D01*
X135783157Y-100480251D01*
X135640300Y-100408822D01*
X135568871Y-100265965D01*
X135568871Y-99694537D01*
X135640300Y-99551680D01*
X135783157Y-99480251D01*
X136068871Y-99480251D01*
X136211728Y-99551680D01*
X136283157Y-99694537D01*
X136283157Y-99837394D01*
X135568871Y-99980251D01*
X137568871Y-100480251D02*
X137568871Y-98980251D01*
X137568871Y-100408822D02*
X137426014Y-100480251D01*
X137140300Y-100480251D01*
X136997442Y-100408822D01*
X136926014Y-100337394D01*
X136854585Y-100194537D01*
X136854585Y-99765965D01*
X136926014Y-99623108D01*
X136997442Y-99551680D01*
X137140300Y-99480251D01*
X137426014Y-99480251D01*
X137568871Y-99551680D01*
X138926014Y-99480251D02*
X138926014Y-100480251D01*
X138283157Y-99480251D02*
X138283157Y-100265965D01*
X138354585Y-100408822D01*
X138497442Y-100480251D01*
X138711728Y-100480251D01*
X138854585Y-100408822D01*
X138926014Y-100337394D01*
X139640300Y-100480251D02*
X139640300Y-99480251D01*
X139640300Y-98980251D02*
X139568871Y-99051680D01*
X139640300Y-99123108D01*
X139711728Y-99051680D01*
X139640300Y-98980251D01*
X139640300Y-99123108D01*
X140354585Y-99480251D02*
X140354585Y-100480251D01*
X140354585Y-99623108D02*
X140426014Y-99551680D01*
X140568871Y-99480251D01*
X140783157Y-99480251D01*
X140926014Y-99551680D01*
X140997442Y-99694537D01*
X140997442Y-100480251D01*
X141926014Y-100480251D02*
X141783157Y-100408822D01*
X141711728Y-100337394D01*
X141640300Y-100194537D01*
X141640300Y-99765965D01*
X141711728Y-99623108D01*
X141783157Y-99551680D01*
X141926014Y-99480251D01*
X142140300Y-99480251D01*
X142283157Y-99551680D01*
X142354585Y-99623108D01*
X142426014Y-99765965D01*
X142426014Y-100194537D01*
X142354585Y-100337394D01*
X142283157Y-100408822D01*
X142140300Y-100480251D01*
X141926014Y-100480251D01*
X143997442Y-98980251D02*
X144497442Y-100480251D01*
X144997442Y-98980251D01*
X145497442Y-99908822D02*
X146640300Y-99908822D01*
X147140300Y-99480251D02*
X147711728Y-99480251D01*
X147354585Y-98980251D02*
X147354585Y-100265965D01*
X147426014Y-100408822D01*
X147568871Y-100480251D01*
X147711728Y-100480251D01*
X148068871Y-99480251D02*
X148354585Y-100480251D01*
X148640300Y-99765965D01*
X148926014Y-100480251D01*
X149211728Y-99480251D01*
X150354585Y-100408822D02*
X150211728Y-100480251D01*
X149926014Y-100480251D01*
X149783157Y-100408822D01*
X149711728Y-100265965D01*
X149711728Y-99694537D01*
X149783157Y-99551680D01*
X149926014Y-99480251D01*
X150211728Y-99480251D01*
X150354585Y-99551680D01*
X150426014Y-99694537D01*
X150426014Y-99837394D01*
X149711728Y-99980251D01*
X151640300Y-100408822D02*
X151497442Y-100480251D01*
X151211728Y-100480251D01*
X151068871Y-100408822D01*
X150997442Y-100265965D01*
X150997442Y-99694537D01*
X151068871Y-99551680D01*
X151211728Y-99480251D01*
X151497442Y-99480251D01*
X151640300Y-99551680D01*
X151711728Y-99694537D01*
X151711728Y-99837394D01*
X150997442Y-99980251D01*
X152354585Y-99480251D02*
X152354585Y-100480251D01*
X152354585Y-99623108D02*
X152426014Y-99551680D01*
X152568871Y-99480251D01*
X152783157Y-99480251D01*
X152926014Y-99551680D01*
X152997442Y-99694537D01*
X152997442Y-100480251D01*
X155140300Y-98980251D02*
X155283157Y-98980251D01*
X155426014Y-99051680D01*
X155497442Y-99123108D01*
X155568871Y-99265965D01*
X155640300Y-99551680D01*
X155640300Y-99908822D01*
X155568871Y-100194537D01*
X155497442Y-100337394D01*
X155426014Y-100408822D01*
X155283157Y-100480251D01*
X155140300Y-100480251D01*
X154997442Y-100408822D01*
X154926014Y-100337394D01*
X154854585Y-100194537D01*
X154783157Y-99908822D01*
X154783157Y-99551680D01*
X154854585Y-99265965D01*
X154926014Y-99123108D01*
X154997442Y-99051680D01*
X155140300Y-98980251D01*
X156283157Y-100337394D02*
X156354585Y-100408822D01*
X156283157Y-100480251D01*
X156211728Y-100408822D01*
X156283157Y-100337394D01*
X156283157Y-100480251D01*
X157783157Y-100480251D02*
X156926014Y-100480251D01*
X157354585Y-100480251D02*
X157354585Y-98980251D01*
X157211728Y-99194537D01*
X157068871Y-99337394D01*
X156926014Y-99408822D01*
D11*
X110806666Y-38620000D02*
G75*
G03X110806666Y-38620000I-1666666J0D01*
G01*
X106640000Y-38620000D02*
X111640000Y-38620000D01*
X109140000Y-36120000D02*
X109140000Y-41120000D01*
X190016666Y-162490000D02*
G75*
G03X190016666Y-162490000I-1666666J0D01*
G01*
X185850000Y-162490000D02*
X190850000Y-162490000D01*
X188350000Y-159990000D02*
X188350000Y-164990000D01*
D12*
X184070000Y-155040000D02*
G75*
G03X184070000Y-155040000I-3000000J0D01*
G01*
D11*
X190286666Y-38760000D02*
G75*
G03X190286666Y-38760000I-1666666J0D01*
G01*
X186120000Y-38760000D02*
X191120000Y-38760000D01*
X188620000Y-36260000D02*
X188620000Y-41260000D01*
X111396666Y-162190000D02*
G75*
G03X111396666Y-162190000I-1666666J0D01*
G01*
X107230000Y-162190000D02*
X112230000Y-162190000D01*
X109730000Y-159690000D02*
X109730000Y-164690000D01*
D12*
X120070000Y-155040000D02*
G75*
G03X120070000Y-155040000I-3000000J0D01*
G01*
X184070000Y-46040000D02*
G75*
G03X184070000Y-46040000I-3000000J0D01*
G01*
X120070000Y-46040000D02*
G75*
G03X120070000Y-46040000I-3000000J0D01*
G01*
D11*
X112070000Y-160040000D02*
X112070000Y-41040000D01*
X186070000Y-160040000D02*
X112070000Y-160040000D01*
X186070000Y-41040000D02*
X186070000Y-160040000D01*
X112070000Y-41040000D02*
X186070000Y-41040000D01*
D13*
X142050000Y-56537936D02*
X142050000Y-60642064D01*
X145470000Y-56537936D02*
X145470000Y-60642064D01*
X135650000Y-56507936D02*
X135650000Y-60612064D01*
X139070000Y-56507936D02*
X139070000Y-60612064D01*
X123410000Y-78160000D02*
X116650000Y-78160000D01*
X123410000Y-81580000D02*
X123410000Y-78160000D01*
X116650000Y-81580000D02*
X123410000Y-81580000D01*
X117827936Y-75810000D02*
X119032064Y-75810000D01*
X117827936Y-73990000D02*
X119032064Y-73990000D01*
X125882064Y-74090000D02*
X124677936Y-74090000D01*
X125882064Y-75910000D02*
X124677936Y-75910000D01*
X161522000Y-87362064D02*
X161522000Y-86157936D01*
X159702000Y-87362064D02*
X159702000Y-86157936D01*
X156677064Y-126520000D02*
X155472936Y-126520000D01*
X156677064Y-128340000D02*
X155472936Y-128340000D01*
X162488000Y-93412064D02*
X162488000Y-92207936D01*
X160668000Y-93412064D02*
X160668000Y-92207936D01*
X173857936Y-122600000D02*
X175062064Y-122600000D01*
X173857936Y-120780000D02*
X175062064Y-120780000D01*
X174025936Y-129340000D02*
X175230064Y-129340000D01*
X174025936Y-127520000D02*
X175230064Y-127520000D01*
X176348000Y-86157936D02*
X176348000Y-87362064D01*
X178168000Y-86157936D02*
X178168000Y-87362064D01*
X152244064Y-61570000D02*
X151039936Y-61570000D01*
X152244064Y-63390000D02*
X151039936Y-63390000D01*
X156677064Y-131170000D02*
X155472936Y-131170000D01*
X156677064Y-132990000D02*
X155472936Y-132990000D01*
X182300000Y-93412064D02*
X182300000Y-92207936D01*
X180480000Y-93412064D02*
X180480000Y-92207936D01*
X155472936Y-142220000D02*
X156677064Y-142220000D01*
X155472936Y-140400000D02*
X156677064Y-140400000D01*
X181670064Y-117395000D02*
X180465936Y-117395000D01*
X181670064Y-119215000D02*
X180465936Y-119215000D01*
X172187000Y-86157936D02*
X172187000Y-87362064D01*
X174007000Y-86157936D02*
X174007000Y-87362064D01*
X155472936Y-147140000D02*
X156677064Y-147140000D01*
X155472936Y-145320000D02*
X156677064Y-145320000D01*
X177362000Y-93412064D02*
X177362000Y-92207936D01*
X175542000Y-93412064D02*
X175542000Y-92207936D01*
X159053936Y-63390000D02*
X160258064Y-63390000D01*
X159053936Y-61570000D02*
X160258064Y-61570000D01*
X168272064Y-61570000D02*
X167067936Y-61570000D01*
X168272064Y-63390000D02*
X167067936Y-63390000D01*
X138547936Y-142633000D02*
X139752064Y-142633000D01*
X138547936Y-140813000D02*
X139752064Y-140813000D01*
X165606000Y-92207936D02*
X165606000Y-93412064D01*
X167426000Y-92207936D02*
X167426000Y-93412064D01*
X113890000Y-123725000D02*
X117950000Y-123725000D01*
X113890000Y-121455000D02*
X113890000Y-123725000D01*
X117950000Y-121455000D02*
X113890000Y-121455000D01*
X113890000Y-128665000D02*
X117950000Y-128665000D01*
X113890000Y-126395000D02*
X113890000Y-128665000D01*
X117950000Y-126395000D02*
X113890000Y-126395000D01*
X113890000Y-113845000D02*
X117950000Y-113845000D01*
X113890000Y-111575000D02*
X113890000Y-113845000D01*
X117950000Y-111575000D02*
X113890000Y-111575000D01*
X113890000Y-118785000D02*
X117950000Y-118785000D01*
X113890000Y-116515000D02*
X113890000Y-118785000D01*
X117950000Y-116515000D02*
X113890000Y-116515000D01*
X139852064Y-145480000D02*
X138647936Y-145480000D01*
X139852064Y-147300000D02*
X138647936Y-147300000D01*
X138647936Y-128573000D02*
X139852064Y-128573000D01*
X138647936Y-126753000D02*
X139852064Y-126753000D01*
X122197936Y-123550000D02*
X123402064Y-123550000D01*
X122197936Y-121730000D02*
X123402064Y-121730000D01*
X122197936Y-128490000D02*
X123402064Y-128490000D01*
X122197936Y-126670000D02*
X123402064Y-126670000D01*
X155700000Y-92107936D02*
X155700000Y-93312064D01*
X157520000Y-92107936D02*
X157520000Y-93312064D01*
X172394000Y-93312064D02*
X172394000Y-92107936D01*
X170574000Y-93312064D02*
X170574000Y-92107936D01*
X181670064Y-122458000D02*
X180465936Y-122458000D01*
X181670064Y-124278000D02*
X180465936Y-124278000D01*
X181670064Y-127520000D02*
X180465936Y-127520000D01*
X181670064Y-129340000D02*
X180465936Y-129340000D01*
X138647936Y-119180000D02*
X139852064Y-119180000D01*
X138647936Y-117360000D02*
X139852064Y-117360000D01*
X138647936Y-123877000D02*
X139852064Y-123877000D01*
X138647936Y-122057000D02*
X139852064Y-122057000D01*
X139852064Y-131450000D02*
X138647936Y-131450000D01*
X139852064Y-133270000D02*
X138647936Y-133270000D01*
X138647936Y-137967000D02*
X139852064Y-137967000D01*
X138647936Y-136147000D02*
X139852064Y-136147000D01*
X122197936Y-118610000D02*
X123402064Y-118610000D01*
X122197936Y-116790000D02*
X123402064Y-116790000D01*
X155297936Y-123590000D02*
X156502064Y-123590000D01*
X155297936Y-121770000D02*
X156502064Y-121770000D01*
X157360000Y-87362064D02*
X157360000Y-86157936D01*
X155540000Y-87362064D02*
X155540000Y-86157936D01*
X173579936Y-115860000D02*
X174784064Y-115860000D01*
X173579936Y-114040000D02*
X174784064Y-114040000D01*
X180657936Y-114152000D02*
X181862064Y-114152000D01*
X180657936Y-112332000D02*
X181862064Y-112332000D01*
X181862064Y-107270000D02*
X180657936Y-107270000D01*
X181862064Y-109090000D02*
X180657936Y-109090000D01*
X180510000Y-86157936D02*
X180510000Y-87362064D01*
X182330000Y-86157936D02*
X182330000Y-87362064D01*
X151270000Y-57734564D02*
X151270000Y-56530436D01*
X149450000Y-57734564D02*
X149450000Y-56530436D01*
X174862064Y-107300000D02*
X173657936Y-107300000D01*
X174862064Y-109120000D02*
X173657936Y-109120000D01*
X155572936Y-137530000D02*
X156777064Y-137530000D01*
X155572936Y-135710000D02*
X156777064Y-135710000D01*
X154998000Y-57734564D02*
X154998000Y-56530436D01*
X153178000Y-57734564D02*
X153178000Y-56530436D01*
X160634000Y-56530436D02*
X160634000Y-57734564D01*
X162454000Y-56530436D02*
X162454000Y-57734564D01*
X156906000Y-56530436D02*
X156906000Y-57734564D01*
X158726000Y-56530436D02*
X158726000Y-57734564D01*
X164362000Y-56530436D02*
X164362000Y-57734564D01*
X166182000Y-56530436D02*
X166182000Y-57734564D01*
X168090000Y-56530436D02*
X168090000Y-57734564D01*
X169910000Y-56530436D02*
X169910000Y-57734564D01*
X163863000Y-86157936D02*
X163863000Y-87362064D01*
X165683000Y-86157936D02*
X165683000Y-87362064D01*
X168025000Y-86157936D02*
X168025000Y-87362064D01*
X169845000Y-86157936D02*
X169845000Y-87362064D01*
X122197936Y-113670000D02*
X123402064Y-113670000D01*
X122197936Y-111850000D02*
X123402064Y-111850000D01*
X119359420Y-70420182D02*
G75*
G02X119411361Y-67730000I-2309420J1390182D01*
G01*
D12*
X124910000Y-51420000D02*
X112910000Y-51420000D01*
X124910000Y-55320000D02*
X112910000Y-55320000D01*
X112910000Y-55320000D02*
X112910000Y-51420000D01*
X124910000Y-55320000D02*
X124910000Y-51420000D01*
D13*
X132420000Y-50831325D02*
X132670000Y-51264338D01*
X132170000Y-51264338D02*
X132420000Y-50831325D01*
X132670000Y-51264338D02*
X132170000Y-51264338D01*
X122430000Y-50370000D02*
X122430000Y-39890000D01*
X175650000Y-50370000D02*
X122430000Y-50370000D01*
X175650000Y-39890000D02*
X175650000Y-50370000D01*
X145030000Y-94840000D02*
G75*
G02X147030000Y-94840000I1000000J0D01*
G01*
X147030000Y-94840000D02*
X148680000Y-94840000D01*
X148680000Y-94840000D02*
X148680000Y-84560000D01*
X148680000Y-84560000D02*
X143380000Y-84560000D01*
X143380000Y-84560000D02*
X143380000Y-94840000D01*
X143380000Y-94840000D02*
X145030000Y-94840000D01*
D12*
X165185700Y-77035000D02*
X168894300Y-77035000D01*
X163515000Y-71635000D02*
X168898600Y-71635000D01*
D13*
X129690000Y-67550635D02*
X129690000Y-69540000D01*
X130579000Y-67807333D02*
X128801000Y-67807333D01*
X129690000Y-67807333D02*
X130579000Y-68992667D01*
X130579000Y-68992667D02*
X128801000Y-68992667D01*
X128801000Y-68992667D02*
X129690000Y-67807333D01*
X131380635Y-70940000D02*
G75*
G03X131380635Y-70940000I-1690635J0D01*
G01*
D12*
X128785000Y-104305000D02*
X166785000Y-104305000D01*
X128785000Y-104305000D02*
X128785000Y-156305000D01*
X128755000Y-156355000D02*
X166755000Y-156355000D01*
X166755000Y-156355000D02*
X166785000Y-104305000D01*
X159895000Y-118785000D02*
G75*
G03X159895000Y-118785000I-1600000J0D01*
G01*
X153155000Y-153555000D02*
G75*
G03X153155000Y-153555000I-1600000J0D01*
G01*
D13*
X131580000Y-59231000D02*
X130070000Y-59231000D01*
X131580000Y-55530000D02*
X130070000Y-55530000D01*
X130070000Y-52260000D02*
X130070000Y-62500000D01*
X131580000Y-62500000D02*
X126939000Y-62500000D01*
X131580000Y-52260000D02*
X126939000Y-52260000D01*
X126939000Y-52260000D02*
X126939000Y-62500000D01*
X131580000Y-52260000D02*
X131580000Y-62500000D01*
X135570000Y-91661000D02*
X134060000Y-91661000D01*
X135570000Y-87960000D02*
X134060000Y-87960000D01*
X134060000Y-84690000D02*
X134060000Y-94930000D01*
X135570000Y-94930000D02*
X130929000Y-94930000D01*
X135570000Y-84690000D02*
X130929000Y-84690000D01*
X130929000Y-84690000D02*
X130929000Y-94930000D01*
X135570000Y-84690000D02*
X135570000Y-94930000D01*
X127850000Y-91661000D02*
X126340000Y-91661000D01*
X127850000Y-87960000D02*
X126340000Y-87960000D01*
X126340000Y-84690000D02*
X126340000Y-94930000D01*
X127850000Y-94930000D02*
X123209000Y-94930000D01*
X127850000Y-84690000D02*
X123209000Y-84690000D01*
X123209000Y-84690000D02*
X123209000Y-94930000D01*
X127850000Y-84690000D02*
X127850000Y-94930000D01*
X120090000Y-91661000D02*
X118580000Y-91661000D01*
X120090000Y-87960000D02*
X118580000Y-87960000D01*
X118580000Y-84690000D02*
X118580000Y-94930000D01*
X120090000Y-94930000D02*
X115449000Y-94930000D01*
X120090000Y-84690000D02*
X115449000Y-84690000D01*
X115449000Y-84690000D02*
X115449000Y-94930000D01*
X120090000Y-84690000D02*
X120090000Y-94930000D01*
D12*
X147227000Y-110833000D02*
X145827000Y-110833000D01*
X147227000Y-115933000D02*
X151377000Y-115933000D01*
X147227000Y-110783000D02*
X151377000Y-110783000D01*
X147227000Y-115933000D02*
X147227000Y-115788000D01*
X151377000Y-115933000D02*
X151377000Y-115788000D01*
X151377000Y-110783000D02*
X151377000Y-110928000D01*
X147227000Y-110783000D02*
X147227000Y-110833000D01*
X136310000Y-81020000D02*
X156610000Y-81020000D01*
X156610000Y-81020000D02*
X156610000Y-65820000D01*
X136310000Y-65820000D02*
X156610000Y-65820000D01*
X136310000Y-81020000D02*
X136310000Y-65820000D01*
X141992380Y-60102857D02*
X141516190Y-60436190D01*
X141992380Y-60674285D02*
X140992380Y-60674285D01*
X140992380Y-60293333D01*
X141040000Y-60198095D01*
X141087619Y-60150476D01*
X141182857Y-60102857D01*
X141325714Y-60102857D01*
X141420952Y-60150476D01*
X141468571Y-60198095D01*
X141516190Y-60293333D01*
X141516190Y-60674285D01*
X141087619Y-59721904D02*
X141040000Y-59674285D01*
X140992380Y-59579047D01*
X140992380Y-59340952D01*
X141040000Y-59245714D01*
X141087619Y-59198095D01*
X141182857Y-59150476D01*
X141278095Y-59150476D01*
X141420952Y-59198095D01*
X141992380Y-59769523D01*
X141992380Y-59150476D01*
X141992380Y-58674285D02*
X141992380Y-58483809D01*
X141944761Y-58388571D01*
X141897142Y-58340952D01*
X141754285Y-58245714D01*
X141563809Y-58198095D01*
X141182857Y-58198095D01*
X141087619Y-58245714D01*
X141040000Y-58293333D01*
X140992380Y-58388571D01*
X140992380Y-58579047D01*
X141040000Y-58674285D01*
X141087619Y-58721904D01*
X141182857Y-58769523D01*
X141420952Y-58769523D01*
X141516190Y-58721904D01*
X141563809Y-58674285D01*
X141611428Y-58579047D01*
X141611428Y-58388571D01*
X141563809Y-58293333D01*
X141516190Y-58245714D01*
X141420952Y-58198095D01*
X135232380Y-60132857D02*
X134756190Y-60466190D01*
X135232380Y-60704285D02*
X134232380Y-60704285D01*
X134232380Y-60323333D01*
X134280000Y-60228095D01*
X134327619Y-60180476D01*
X134422857Y-60132857D01*
X134565714Y-60132857D01*
X134660952Y-60180476D01*
X134708571Y-60228095D01*
X134756190Y-60323333D01*
X134756190Y-60704285D01*
X134232380Y-59799523D02*
X134232380Y-59180476D01*
X134613333Y-59513809D01*
X134613333Y-59370952D01*
X134660952Y-59275714D01*
X134708571Y-59228095D01*
X134803809Y-59180476D01*
X135041904Y-59180476D01*
X135137142Y-59228095D01*
X135184761Y-59275714D01*
X135232380Y-59370952D01*
X135232380Y-59656666D01*
X135184761Y-59751904D01*
X135137142Y-59799523D01*
X134232380Y-58561428D02*
X134232380Y-58466190D01*
X134280000Y-58370952D01*
X134327619Y-58323333D01*
X134422857Y-58275714D01*
X134613333Y-58228095D01*
X134851428Y-58228095D01*
X135041904Y-58275714D01*
X135137142Y-58323333D01*
X135184761Y-58370952D01*
X135232380Y-58466190D01*
X135232380Y-58561428D01*
X135184761Y-58656666D01*
X135137142Y-58704285D01*
X135041904Y-58751904D01*
X134851428Y-58799523D01*
X134613333Y-58799523D01*
X134422857Y-58751904D01*
X134327619Y-58704285D01*
X134280000Y-58656666D01*
X134232380Y-58561428D01*
X117917142Y-73397142D02*
X117869523Y-73444761D01*
X117726666Y-73492380D01*
X117631428Y-73492380D01*
X117488571Y-73444761D01*
X117393333Y-73349523D01*
X117345714Y-73254285D01*
X117298095Y-73063809D01*
X117298095Y-72920952D01*
X117345714Y-72730476D01*
X117393333Y-72635238D01*
X117488571Y-72540000D01*
X117631428Y-72492380D01*
X117726666Y-72492380D01*
X117869523Y-72540000D01*
X117917142Y-72587619D01*
X118869523Y-73492380D02*
X118298095Y-73492380D01*
X118583809Y-73492380D02*
X118583809Y-72492380D01*
X118488571Y-72635238D01*
X118393333Y-72730476D01*
X118298095Y-72778095D01*
X119345714Y-73492380D02*
X119536190Y-73492380D01*
X119631428Y-73444761D01*
X119679047Y-73397142D01*
X119774285Y-73254285D01*
X119821904Y-73063809D01*
X119821904Y-72682857D01*
X119774285Y-72587619D01*
X119726666Y-72540000D01*
X119631428Y-72492380D01*
X119440952Y-72492380D01*
X119345714Y-72540000D01*
X119298095Y-72587619D01*
X119250476Y-72682857D01*
X119250476Y-72920952D01*
X119298095Y-73016190D01*
X119345714Y-73063809D01*
X119440952Y-73111428D01*
X119631428Y-73111428D01*
X119726666Y-73063809D01*
X119774285Y-73016190D01*
X119821904Y-72920952D01*
X123101428Y-77910952D02*
X123101428Y-77149047D01*
X123482380Y-77530000D02*
X122720476Y-77530000D01*
X119287142Y-77697142D02*
X119239523Y-77744761D01*
X119096666Y-77792380D01*
X119001428Y-77792380D01*
X118858571Y-77744761D01*
X118763333Y-77649523D01*
X118715714Y-77554285D01*
X118668095Y-77363809D01*
X118668095Y-77220952D01*
X118715714Y-77030476D01*
X118763333Y-76935238D01*
X118858571Y-76840000D01*
X119001428Y-76792380D01*
X119096666Y-76792380D01*
X119239523Y-76840000D01*
X119287142Y-76887619D01*
X119668095Y-76887619D02*
X119715714Y-76840000D01*
X119810952Y-76792380D01*
X120049047Y-76792380D01*
X120144285Y-76840000D01*
X120191904Y-76887619D01*
X120239523Y-76982857D01*
X120239523Y-77078095D01*
X120191904Y-77220952D01*
X119620476Y-77792380D01*
X120239523Y-77792380D01*
X121191904Y-77792380D02*
X120620476Y-77792380D01*
X120906190Y-77792380D02*
X120906190Y-76792380D01*
X120810952Y-76935238D01*
X120715714Y-77030476D01*
X120620476Y-77078095D01*
X114221428Y-78290952D02*
X114221428Y-77529047D01*
X114602380Y-77910000D02*
X113840476Y-77910000D01*
X124517142Y-73487142D02*
X124469523Y-73534761D01*
X124326666Y-73582380D01*
X124231428Y-73582380D01*
X124088571Y-73534761D01*
X123993333Y-73439523D01*
X123945714Y-73344285D01*
X123898095Y-73153809D01*
X123898095Y-73010952D01*
X123945714Y-72820476D01*
X123993333Y-72725238D01*
X124088571Y-72630000D01*
X124231428Y-72582380D01*
X124326666Y-72582380D01*
X124469523Y-72630000D01*
X124517142Y-72677619D01*
X124898095Y-72677619D02*
X124945714Y-72630000D01*
X125040952Y-72582380D01*
X125279047Y-72582380D01*
X125374285Y-72630000D01*
X125421904Y-72677619D01*
X125469523Y-72772857D01*
X125469523Y-72868095D01*
X125421904Y-73010952D01*
X124850476Y-73582380D01*
X125469523Y-73582380D01*
X126088571Y-72582380D02*
X126183809Y-72582380D01*
X126279047Y-72630000D01*
X126326666Y-72677619D01*
X126374285Y-72772857D01*
X126421904Y-72963333D01*
X126421904Y-73201428D01*
X126374285Y-73391904D01*
X126326666Y-73487142D01*
X126279047Y-73534761D01*
X126183809Y-73582380D01*
X126088571Y-73582380D01*
X125993333Y-73534761D01*
X125945714Y-73487142D01*
X125898095Y-73391904D01*
X125850476Y-73201428D01*
X125850476Y-72963333D01*
X125898095Y-72772857D01*
X125945714Y-72677619D01*
X125993333Y-72630000D01*
X126088571Y-72582380D01*
X159219142Y-87402857D02*
X159266761Y-87450476D01*
X159314380Y-87593333D01*
X159314380Y-87688571D01*
X159266761Y-87831428D01*
X159171523Y-87926666D01*
X159076285Y-87974285D01*
X158885809Y-88021904D01*
X158742952Y-88021904D01*
X158552476Y-87974285D01*
X158457238Y-87926666D01*
X158362000Y-87831428D01*
X158314380Y-87688571D01*
X158314380Y-87593333D01*
X158362000Y-87450476D01*
X158409619Y-87402857D01*
X159314380Y-86450476D02*
X159314380Y-87021904D01*
X159314380Y-86736190D02*
X158314380Y-86736190D01*
X158457238Y-86831428D01*
X158552476Y-86926666D01*
X158600095Y-87021904D01*
X158742952Y-85879047D02*
X158695333Y-85974285D01*
X158647714Y-86021904D01*
X158552476Y-86069523D01*
X158504857Y-86069523D01*
X158409619Y-86021904D01*
X158362000Y-85974285D01*
X158314380Y-85879047D01*
X158314380Y-85688571D01*
X158362000Y-85593333D01*
X158409619Y-85545714D01*
X158504857Y-85498095D01*
X158552476Y-85498095D01*
X158647714Y-85545714D01*
X158695333Y-85593333D01*
X158742952Y-85688571D01*
X158742952Y-85879047D01*
X158790571Y-85974285D01*
X158838190Y-86021904D01*
X158933428Y-86069523D01*
X159123904Y-86069523D01*
X159219142Y-86021904D01*
X159266761Y-85974285D01*
X159314380Y-85879047D01*
X159314380Y-85688571D01*
X159266761Y-85593333D01*
X159219142Y-85545714D01*
X159123904Y-85498095D01*
X158933428Y-85498095D01*
X158838190Y-85545714D01*
X158790571Y-85593333D01*
X158742952Y-85688571D01*
X155447142Y-125937142D02*
X155399523Y-125984761D01*
X155256666Y-126032380D01*
X155161428Y-126032380D01*
X155018571Y-125984761D01*
X154923333Y-125889523D01*
X154875714Y-125794285D01*
X154828095Y-125603809D01*
X154828095Y-125460952D01*
X154875714Y-125270476D01*
X154923333Y-125175238D01*
X155018571Y-125080000D01*
X155161428Y-125032380D01*
X155256666Y-125032380D01*
X155399523Y-125080000D01*
X155447142Y-125127619D01*
X156399523Y-126032380D02*
X155828095Y-126032380D01*
X156113809Y-126032380D02*
X156113809Y-125032380D01*
X156018571Y-125175238D01*
X155923333Y-125270476D01*
X155828095Y-125318095D01*
X156732857Y-125032380D02*
X157399523Y-125032380D01*
X156970952Y-126032380D01*
X160185142Y-93452857D02*
X160232761Y-93500476D01*
X160280380Y-93643333D01*
X160280380Y-93738571D01*
X160232761Y-93881428D01*
X160137523Y-93976666D01*
X160042285Y-94024285D01*
X159851809Y-94071904D01*
X159708952Y-94071904D01*
X159518476Y-94024285D01*
X159423238Y-93976666D01*
X159328000Y-93881428D01*
X159280380Y-93738571D01*
X159280380Y-93643333D01*
X159328000Y-93500476D01*
X159375619Y-93452857D01*
X160280380Y-92500476D02*
X160280380Y-93071904D01*
X160280380Y-92786190D02*
X159280380Y-92786190D01*
X159423238Y-92881428D01*
X159518476Y-92976666D01*
X159566095Y-93071904D01*
X159280380Y-91643333D02*
X159280380Y-91833809D01*
X159328000Y-91929047D01*
X159375619Y-91976666D01*
X159518476Y-92071904D01*
X159708952Y-92119523D01*
X160089904Y-92119523D01*
X160185142Y-92071904D01*
X160232761Y-92024285D01*
X160280380Y-91929047D01*
X160280380Y-91738571D01*
X160232761Y-91643333D01*
X160185142Y-91595714D01*
X160089904Y-91548095D01*
X159851809Y-91548095D01*
X159756571Y-91595714D01*
X159708952Y-91643333D01*
X159661333Y-91738571D01*
X159661333Y-91929047D01*
X159708952Y-92024285D01*
X159756571Y-92071904D01*
X159851809Y-92119523D01*
X173817142Y-120297142D02*
X173769523Y-120344761D01*
X173626666Y-120392380D01*
X173531428Y-120392380D01*
X173388571Y-120344761D01*
X173293333Y-120249523D01*
X173245714Y-120154285D01*
X173198095Y-119963809D01*
X173198095Y-119820952D01*
X173245714Y-119630476D01*
X173293333Y-119535238D01*
X173388571Y-119440000D01*
X173531428Y-119392380D01*
X173626666Y-119392380D01*
X173769523Y-119440000D01*
X173817142Y-119487619D01*
X174769523Y-120392380D02*
X174198095Y-120392380D01*
X174483809Y-120392380D02*
X174483809Y-119392380D01*
X174388571Y-119535238D01*
X174293333Y-119630476D01*
X174198095Y-119678095D01*
X175674285Y-119392380D02*
X175198095Y-119392380D01*
X175150476Y-119868571D01*
X175198095Y-119820952D01*
X175293333Y-119773333D01*
X175531428Y-119773333D01*
X175626666Y-119820952D01*
X175674285Y-119868571D01*
X175721904Y-119963809D01*
X175721904Y-120201904D01*
X175674285Y-120297142D01*
X175626666Y-120344761D01*
X175531428Y-120392380D01*
X175293333Y-120392380D01*
X175198095Y-120344761D01*
X175150476Y-120297142D01*
X173985142Y-127037142D02*
X173937523Y-127084761D01*
X173794666Y-127132380D01*
X173699428Y-127132380D01*
X173556571Y-127084761D01*
X173461333Y-126989523D01*
X173413714Y-126894285D01*
X173366095Y-126703809D01*
X173366095Y-126560952D01*
X173413714Y-126370476D01*
X173461333Y-126275238D01*
X173556571Y-126180000D01*
X173699428Y-126132380D01*
X173794666Y-126132380D01*
X173937523Y-126180000D01*
X173985142Y-126227619D01*
X174937523Y-127132380D02*
X174366095Y-127132380D01*
X174651809Y-127132380D02*
X174651809Y-126132380D01*
X174556571Y-126275238D01*
X174461333Y-126370476D01*
X174366095Y-126418095D01*
X175794666Y-126465714D02*
X175794666Y-127132380D01*
X175556571Y-126084761D02*
X175318476Y-126799047D01*
X175937523Y-126799047D01*
X175737142Y-87352857D02*
X175784761Y-87400476D01*
X175832380Y-87543333D01*
X175832380Y-87638571D01*
X175784761Y-87781428D01*
X175689523Y-87876666D01*
X175594285Y-87924285D01*
X175403809Y-87971904D01*
X175260952Y-87971904D01*
X175070476Y-87924285D01*
X174975238Y-87876666D01*
X174880000Y-87781428D01*
X174832380Y-87638571D01*
X174832380Y-87543333D01*
X174880000Y-87400476D01*
X174927619Y-87352857D01*
X175832380Y-86400476D02*
X175832380Y-86971904D01*
X175832380Y-86686190D02*
X174832380Y-86686190D01*
X174975238Y-86781428D01*
X175070476Y-86876666D01*
X175118095Y-86971904D01*
X174832380Y-86067142D02*
X174832380Y-85448095D01*
X175213333Y-85781428D01*
X175213333Y-85638571D01*
X175260952Y-85543333D01*
X175308571Y-85495714D01*
X175403809Y-85448095D01*
X175641904Y-85448095D01*
X175737142Y-85495714D01*
X175784761Y-85543333D01*
X175832380Y-85638571D01*
X175832380Y-85924285D01*
X175784761Y-86019523D01*
X175737142Y-86067142D01*
X150811142Y-60917142D02*
X150763523Y-60964761D01*
X150620666Y-61012380D01*
X150525428Y-61012380D01*
X150382571Y-60964761D01*
X150287333Y-60869523D01*
X150239714Y-60774285D01*
X150192095Y-60583809D01*
X150192095Y-60440952D01*
X150239714Y-60250476D01*
X150287333Y-60155238D01*
X150382571Y-60060000D01*
X150525428Y-60012380D01*
X150620666Y-60012380D01*
X150763523Y-60060000D01*
X150811142Y-60107619D01*
X151763523Y-61012380D02*
X151192095Y-61012380D01*
X151477809Y-61012380D02*
X151477809Y-60012380D01*
X151382571Y-60155238D01*
X151287333Y-60250476D01*
X151192095Y-60298095D01*
X152144476Y-60107619D02*
X152192095Y-60060000D01*
X152287333Y-60012380D01*
X152525428Y-60012380D01*
X152620666Y-60060000D01*
X152668285Y-60107619D01*
X152715904Y-60202857D01*
X152715904Y-60298095D01*
X152668285Y-60440952D01*
X152096857Y-61012380D01*
X152715904Y-61012380D01*
X155347142Y-130657142D02*
X155299523Y-130704761D01*
X155156666Y-130752380D01*
X155061428Y-130752380D01*
X154918571Y-130704761D01*
X154823333Y-130609523D01*
X154775714Y-130514285D01*
X154728095Y-130323809D01*
X154728095Y-130180952D01*
X154775714Y-129990476D01*
X154823333Y-129895238D01*
X154918571Y-129800000D01*
X155061428Y-129752380D01*
X155156666Y-129752380D01*
X155299523Y-129800000D01*
X155347142Y-129847619D01*
X156299523Y-130752380D02*
X155728095Y-130752380D01*
X156013809Y-130752380D02*
X156013809Y-129752380D01*
X155918571Y-129895238D01*
X155823333Y-129990476D01*
X155728095Y-130038095D01*
X157251904Y-130752380D02*
X156680476Y-130752380D01*
X156966190Y-130752380D02*
X156966190Y-129752380D01*
X156870952Y-129895238D01*
X156775714Y-129990476D01*
X156680476Y-130038095D01*
X179997142Y-93452857D02*
X180044761Y-93500476D01*
X180092380Y-93643333D01*
X180092380Y-93738571D01*
X180044761Y-93881428D01*
X179949523Y-93976666D01*
X179854285Y-94024285D01*
X179663809Y-94071904D01*
X179520952Y-94071904D01*
X179330476Y-94024285D01*
X179235238Y-93976666D01*
X179140000Y-93881428D01*
X179092380Y-93738571D01*
X179092380Y-93643333D01*
X179140000Y-93500476D01*
X179187619Y-93452857D01*
X180092380Y-92500476D02*
X180092380Y-93071904D01*
X180092380Y-92786190D02*
X179092380Y-92786190D01*
X179235238Y-92881428D01*
X179330476Y-92976666D01*
X179378095Y-93071904D01*
X179092380Y-91881428D02*
X179092380Y-91786190D01*
X179140000Y-91690952D01*
X179187619Y-91643333D01*
X179282857Y-91595714D01*
X179473333Y-91548095D01*
X179711428Y-91548095D01*
X179901904Y-91595714D01*
X179997142Y-91643333D01*
X180044761Y-91690952D01*
X180092380Y-91786190D01*
X180092380Y-91881428D01*
X180044761Y-91976666D01*
X179997142Y-92024285D01*
X179901904Y-92071904D01*
X179711428Y-92119523D01*
X179473333Y-92119523D01*
X179282857Y-92071904D01*
X179187619Y-92024285D01*
X179140000Y-91976666D01*
X179092380Y-91881428D01*
X155908333Y-139917142D02*
X155860714Y-139964761D01*
X155717857Y-140012380D01*
X155622619Y-140012380D01*
X155479761Y-139964761D01*
X155384523Y-139869523D01*
X155336904Y-139774285D01*
X155289285Y-139583809D01*
X155289285Y-139440952D01*
X155336904Y-139250476D01*
X155384523Y-139155238D01*
X155479761Y-139060000D01*
X155622619Y-139012380D01*
X155717857Y-139012380D01*
X155860714Y-139060000D01*
X155908333Y-139107619D01*
X156384523Y-140012380D02*
X156575000Y-140012380D01*
X156670238Y-139964761D01*
X156717857Y-139917142D01*
X156813095Y-139774285D01*
X156860714Y-139583809D01*
X156860714Y-139202857D01*
X156813095Y-139107619D01*
X156765476Y-139060000D01*
X156670238Y-139012380D01*
X156479761Y-139012380D01*
X156384523Y-139060000D01*
X156336904Y-139107619D01*
X156289285Y-139202857D01*
X156289285Y-139440952D01*
X156336904Y-139536190D01*
X156384523Y-139583809D01*
X156479761Y-139631428D01*
X156670238Y-139631428D01*
X156765476Y-139583809D01*
X156813095Y-139536190D01*
X156860714Y-139440952D01*
X180743333Y-116817142D02*
X180695714Y-116864761D01*
X180552857Y-116912380D01*
X180457619Y-116912380D01*
X180314761Y-116864761D01*
X180219523Y-116769523D01*
X180171904Y-116674285D01*
X180124285Y-116483809D01*
X180124285Y-116340952D01*
X180171904Y-116150476D01*
X180219523Y-116055238D01*
X180314761Y-115960000D01*
X180457619Y-115912380D01*
X180552857Y-115912380D01*
X180695714Y-115960000D01*
X180743333Y-116007619D01*
X181314761Y-116340952D02*
X181219523Y-116293333D01*
X181171904Y-116245714D01*
X181124285Y-116150476D01*
X181124285Y-116102857D01*
X181171904Y-116007619D01*
X181219523Y-115960000D01*
X181314761Y-115912380D01*
X181505238Y-115912380D01*
X181600476Y-115960000D01*
X181648095Y-116007619D01*
X181695714Y-116102857D01*
X181695714Y-116150476D01*
X181648095Y-116245714D01*
X181600476Y-116293333D01*
X181505238Y-116340952D01*
X181314761Y-116340952D01*
X181219523Y-116388571D01*
X181171904Y-116436190D01*
X181124285Y-116531428D01*
X181124285Y-116721904D01*
X181171904Y-116817142D01*
X181219523Y-116864761D01*
X181314761Y-116912380D01*
X181505238Y-116912380D01*
X181600476Y-116864761D01*
X181648095Y-116817142D01*
X181695714Y-116721904D01*
X181695714Y-116531428D01*
X181648095Y-116436190D01*
X181600476Y-116388571D01*
X181505238Y-116340952D01*
X171747142Y-86976666D02*
X171794761Y-87024285D01*
X171842380Y-87167142D01*
X171842380Y-87262380D01*
X171794761Y-87405238D01*
X171699523Y-87500476D01*
X171604285Y-87548095D01*
X171413809Y-87595714D01*
X171270952Y-87595714D01*
X171080476Y-87548095D01*
X170985238Y-87500476D01*
X170890000Y-87405238D01*
X170842380Y-87262380D01*
X170842380Y-87167142D01*
X170890000Y-87024285D01*
X170937619Y-86976666D01*
X170842380Y-86643333D02*
X170842380Y-85976666D01*
X171842380Y-86405238D01*
X155908333Y-144837142D02*
X155860714Y-144884761D01*
X155717857Y-144932380D01*
X155622619Y-144932380D01*
X155479761Y-144884761D01*
X155384523Y-144789523D01*
X155336904Y-144694285D01*
X155289285Y-144503809D01*
X155289285Y-144360952D01*
X155336904Y-144170476D01*
X155384523Y-144075238D01*
X155479761Y-143980000D01*
X155622619Y-143932380D01*
X155717857Y-143932380D01*
X155860714Y-143980000D01*
X155908333Y-144027619D01*
X156765476Y-143932380D02*
X156575000Y-143932380D01*
X156479761Y-143980000D01*
X156432142Y-144027619D01*
X156336904Y-144170476D01*
X156289285Y-144360952D01*
X156289285Y-144741904D01*
X156336904Y-144837142D01*
X156384523Y-144884761D01*
X156479761Y-144932380D01*
X156670238Y-144932380D01*
X156765476Y-144884761D01*
X156813095Y-144837142D01*
X156860714Y-144741904D01*
X156860714Y-144503809D01*
X156813095Y-144408571D01*
X156765476Y-144360952D01*
X156670238Y-144313333D01*
X156479761Y-144313333D01*
X156384523Y-144360952D01*
X156336904Y-144408571D01*
X156289285Y-144503809D01*
X175059142Y-92976666D02*
X175106761Y-93024285D01*
X175154380Y-93167142D01*
X175154380Y-93262380D01*
X175106761Y-93405238D01*
X175011523Y-93500476D01*
X174916285Y-93548095D01*
X174725809Y-93595714D01*
X174582952Y-93595714D01*
X174392476Y-93548095D01*
X174297238Y-93500476D01*
X174202000Y-93405238D01*
X174154380Y-93262380D01*
X174154380Y-93167142D01*
X174202000Y-93024285D01*
X174249619Y-92976666D01*
X174154380Y-92071904D02*
X174154380Y-92548095D01*
X174630571Y-92595714D01*
X174582952Y-92548095D01*
X174535333Y-92452857D01*
X174535333Y-92214761D01*
X174582952Y-92119523D01*
X174630571Y-92071904D01*
X174725809Y-92024285D01*
X174963904Y-92024285D01*
X175059142Y-92071904D01*
X175106761Y-92119523D01*
X175154380Y-92214761D01*
X175154380Y-92452857D01*
X175106761Y-92548095D01*
X175059142Y-92595714D01*
X159489333Y-61087142D02*
X159441714Y-61134761D01*
X159298857Y-61182380D01*
X159203619Y-61182380D01*
X159060761Y-61134761D01*
X158965523Y-61039523D01*
X158917904Y-60944285D01*
X158870285Y-60753809D01*
X158870285Y-60610952D01*
X158917904Y-60420476D01*
X158965523Y-60325238D01*
X159060761Y-60230000D01*
X159203619Y-60182380D01*
X159298857Y-60182380D01*
X159441714Y-60230000D01*
X159489333Y-60277619D01*
X160346476Y-60515714D02*
X160346476Y-61182380D01*
X160108380Y-60134761D02*
X159870285Y-60849047D01*
X160489333Y-60849047D01*
X167323333Y-61077142D02*
X167275714Y-61124761D01*
X167132857Y-61172380D01*
X167037619Y-61172380D01*
X166894761Y-61124761D01*
X166799523Y-61029523D01*
X166751904Y-60934285D01*
X166704285Y-60743809D01*
X166704285Y-60600952D01*
X166751904Y-60410476D01*
X166799523Y-60315238D01*
X166894761Y-60220000D01*
X167037619Y-60172380D01*
X167132857Y-60172380D01*
X167275714Y-60220000D01*
X167323333Y-60267619D01*
X167656666Y-60172380D02*
X168275714Y-60172380D01*
X167942380Y-60553333D01*
X168085238Y-60553333D01*
X168180476Y-60600952D01*
X168228095Y-60648571D01*
X168275714Y-60743809D01*
X168275714Y-60981904D01*
X168228095Y-61077142D01*
X168180476Y-61124761D01*
X168085238Y-61172380D01*
X167799523Y-61172380D01*
X167704285Y-61124761D01*
X167656666Y-61077142D01*
X138983333Y-140330142D02*
X138935714Y-140377761D01*
X138792857Y-140425380D01*
X138697619Y-140425380D01*
X138554761Y-140377761D01*
X138459523Y-140282523D01*
X138411904Y-140187285D01*
X138364285Y-139996809D01*
X138364285Y-139853952D01*
X138411904Y-139663476D01*
X138459523Y-139568238D01*
X138554761Y-139473000D01*
X138697619Y-139425380D01*
X138792857Y-139425380D01*
X138935714Y-139473000D01*
X138983333Y-139520619D01*
X139364285Y-139520619D02*
X139411904Y-139473000D01*
X139507142Y-139425380D01*
X139745238Y-139425380D01*
X139840476Y-139473000D01*
X139888095Y-139520619D01*
X139935714Y-139615857D01*
X139935714Y-139711095D01*
X139888095Y-139853952D01*
X139316666Y-140425380D01*
X139935714Y-140425380D01*
X164997142Y-92716666D02*
X165044761Y-92764285D01*
X165092380Y-92907142D01*
X165092380Y-93002380D01*
X165044761Y-93145238D01*
X164949523Y-93240476D01*
X164854285Y-93288095D01*
X164663809Y-93335714D01*
X164520952Y-93335714D01*
X164330476Y-93288095D01*
X164235238Y-93240476D01*
X164140000Y-93145238D01*
X164092380Y-93002380D01*
X164092380Y-92907142D01*
X164140000Y-92764285D01*
X164187619Y-92716666D01*
X165092380Y-91764285D02*
X165092380Y-92335714D01*
X165092380Y-92050000D02*
X164092380Y-92050000D01*
X164235238Y-92145238D01*
X164330476Y-92240476D01*
X164378095Y-92335714D01*
X115611904Y-121342380D02*
X115611904Y-120342380D01*
X115850000Y-120342380D01*
X115992857Y-120390000D01*
X116088095Y-120485238D01*
X116135714Y-120580476D01*
X116183333Y-120770952D01*
X116183333Y-120913809D01*
X116135714Y-121104285D01*
X116088095Y-121199523D01*
X115992857Y-121294761D01*
X115850000Y-121342380D01*
X115611904Y-121342380D01*
X117040476Y-120675714D02*
X117040476Y-121342380D01*
X116802380Y-120294761D02*
X116564285Y-121009047D01*
X117183333Y-121009047D01*
X115611904Y-126282380D02*
X115611904Y-125282380D01*
X115850000Y-125282380D01*
X115992857Y-125330000D01*
X116088095Y-125425238D01*
X116135714Y-125520476D01*
X116183333Y-125710952D01*
X116183333Y-125853809D01*
X116135714Y-126044285D01*
X116088095Y-126139523D01*
X115992857Y-126234761D01*
X115850000Y-126282380D01*
X115611904Y-126282380D01*
X116516666Y-125282380D02*
X117135714Y-125282380D01*
X116802380Y-125663333D01*
X116945238Y-125663333D01*
X117040476Y-125710952D01*
X117088095Y-125758571D01*
X117135714Y-125853809D01*
X117135714Y-126091904D01*
X117088095Y-126187142D01*
X117040476Y-126234761D01*
X116945238Y-126282380D01*
X116659523Y-126282380D01*
X116564285Y-126234761D01*
X116516666Y-126187142D01*
X115611904Y-111462380D02*
X115611904Y-110462380D01*
X115850000Y-110462380D01*
X115992857Y-110510000D01*
X116088095Y-110605238D01*
X116135714Y-110700476D01*
X116183333Y-110890952D01*
X116183333Y-111033809D01*
X116135714Y-111224285D01*
X116088095Y-111319523D01*
X115992857Y-111414761D01*
X115850000Y-111462380D01*
X115611904Y-111462380D01*
X116564285Y-110557619D02*
X116611904Y-110510000D01*
X116707142Y-110462380D01*
X116945238Y-110462380D01*
X117040476Y-110510000D01*
X117088095Y-110557619D01*
X117135714Y-110652857D01*
X117135714Y-110748095D01*
X117088095Y-110890952D01*
X116516666Y-111462380D01*
X117135714Y-111462380D01*
X115611904Y-116402380D02*
X115611904Y-115402380D01*
X115850000Y-115402380D01*
X115992857Y-115450000D01*
X116088095Y-115545238D01*
X116135714Y-115640476D01*
X116183333Y-115830952D01*
X116183333Y-115973809D01*
X116135714Y-116164285D01*
X116088095Y-116259523D01*
X115992857Y-116354761D01*
X115850000Y-116402380D01*
X115611904Y-116402380D01*
X117135714Y-116402380D02*
X116564285Y-116402380D01*
X116850000Y-116402380D02*
X116850000Y-115402380D01*
X116754761Y-115545238D01*
X116659523Y-115640476D01*
X116564285Y-115688095D01*
X138547142Y-144992380D02*
X138213809Y-144516190D01*
X137975714Y-144992380D02*
X137975714Y-143992380D01*
X138356666Y-143992380D01*
X138451904Y-144040000D01*
X138499523Y-144087619D01*
X138547142Y-144182857D01*
X138547142Y-144325714D01*
X138499523Y-144420952D01*
X138451904Y-144468571D01*
X138356666Y-144516190D01*
X137975714Y-144516190D01*
X138880476Y-143992380D02*
X139499523Y-143992380D01*
X139166190Y-144373333D01*
X139309047Y-144373333D01*
X139404285Y-144420952D01*
X139451904Y-144468571D01*
X139499523Y-144563809D01*
X139499523Y-144801904D01*
X139451904Y-144897142D01*
X139404285Y-144944761D01*
X139309047Y-144992380D01*
X139023333Y-144992380D01*
X138928095Y-144944761D01*
X138880476Y-144897142D01*
X139880476Y-144087619D02*
X139928095Y-144040000D01*
X140023333Y-143992380D01*
X140261428Y-143992380D01*
X140356666Y-144040000D01*
X140404285Y-144087619D01*
X140451904Y-144182857D01*
X140451904Y-144278095D01*
X140404285Y-144420952D01*
X139832857Y-144992380D01*
X140451904Y-144992380D01*
X138607142Y-126415380D02*
X138273809Y-125939190D01*
X138035714Y-126415380D02*
X138035714Y-125415380D01*
X138416666Y-125415380D01*
X138511904Y-125463000D01*
X138559523Y-125510619D01*
X138607142Y-125605857D01*
X138607142Y-125748714D01*
X138559523Y-125843952D01*
X138511904Y-125891571D01*
X138416666Y-125939190D01*
X138035714Y-125939190D01*
X138940476Y-125415380D02*
X139559523Y-125415380D01*
X139226190Y-125796333D01*
X139369047Y-125796333D01*
X139464285Y-125843952D01*
X139511904Y-125891571D01*
X139559523Y-125986809D01*
X139559523Y-126224904D01*
X139511904Y-126320142D01*
X139464285Y-126367761D01*
X139369047Y-126415380D01*
X139083333Y-126415380D01*
X138988095Y-126367761D01*
X138940476Y-126320142D01*
X140511904Y-126415380D02*
X139940476Y-126415380D01*
X140226190Y-126415380D02*
X140226190Y-125415380D01*
X140130952Y-125558238D01*
X140035714Y-125653476D01*
X139940476Y-125701095D01*
X122157142Y-121392380D02*
X121823809Y-120916190D01*
X121585714Y-121392380D02*
X121585714Y-120392380D01*
X121966666Y-120392380D01*
X122061904Y-120440000D01*
X122109523Y-120487619D01*
X122157142Y-120582857D01*
X122157142Y-120725714D01*
X122109523Y-120820952D01*
X122061904Y-120868571D01*
X121966666Y-120916190D01*
X121585714Y-120916190D01*
X122538095Y-120487619D02*
X122585714Y-120440000D01*
X122680952Y-120392380D01*
X122919047Y-120392380D01*
X123014285Y-120440000D01*
X123061904Y-120487619D01*
X123109523Y-120582857D01*
X123109523Y-120678095D01*
X123061904Y-120820952D01*
X122490476Y-121392380D01*
X123109523Y-121392380D01*
X123680952Y-120820952D02*
X123585714Y-120773333D01*
X123538095Y-120725714D01*
X123490476Y-120630476D01*
X123490476Y-120582857D01*
X123538095Y-120487619D01*
X123585714Y-120440000D01*
X123680952Y-120392380D01*
X123871428Y-120392380D01*
X123966666Y-120440000D01*
X124014285Y-120487619D01*
X124061904Y-120582857D01*
X124061904Y-120630476D01*
X124014285Y-120725714D01*
X123966666Y-120773333D01*
X123871428Y-120820952D01*
X123680952Y-120820952D01*
X123585714Y-120868571D01*
X123538095Y-120916190D01*
X123490476Y-121011428D01*
X123490476Y-121201904D01*
X123538095Y-121297142D01*
X123585714Y-121344761D01*
X123680952Y-121392380D01*
X123871428Y-121392380D01*
X123966666Y-121344761D01*
X124014285Y-121297142D01*
X124061904Y-121201904D01*
X124061904Y-121011428D01*
X124014285Y-120916190D01*
X123966666Y-120868571D01*
X123871428Y-120820952D01*
X122157142Y-126332380D02*
X121823809Y-125856190D01*
X121585714Y-126332380D02*
X121585714Y-125332380D01*
X121966666Y-125332380D01*
X122061904Y-125380000D01*
X122109523Y-125427619D01*
X122157142Y-125522857D01*
X122157142Y-125665714D01*
X122109523Y-125760952D01*
X122061904Y-125808571D01*
X121966666Y-125856190D01*
X121585714Y-125856190D01*
X122538095Y-125427619D02*
X122585714Y-125380000D01*
X122680952Y-125332380D01*
X122919047Y-125332380D01*
X123014285Y-125380000D01*
X123061904Y-125427619D01*
X123109523Y-125522857D01*
X123109523Y-125618095D01*
X123061904Y-125760952D01*
X122490476Y-126332380D01*
X123109523Y-126332380D01*
X123442857Y-125332380D02*
X124109523Y-125332380D01*
X123680952Y-126332380D01*
X155092380Y-93192857D02*
X154616190Y-93526190D01*
X155092380Y-93764285D02*
X154092380Y-93764285D01*
X154092380Y-93383333D01*
X154140000Y-93288095D01*
X154187619Y-93240476D01*
X154282857Y-93192857D01*
X154425714Y-93192857D01*
X154520952Y-93240476D01*
X154568571Y-93288095D01*
X154616190Y-93383333D01*
X154616190Y-93764285D01*
X154187619Y-92811904D02*
X154140000Y-92764285D01*
X154092380Y-92669047D01*
X154092380Y-92430952D01*
X154140000Y-92335714D01*
X154187619Y-92288095D01*
X154282857Y-92240476D01*
X154378095Y-92240476D01*
X154520952Y-92288095D01*
X155092380Y-92859523D01*
X155092380Y-92240476D01*
X154092380Y-91383333D02*
X154092380Y-91573809D01*
X154140000Y-91669047D01*
X154187619Y-91716666D01*
X154330476Y-91811904D01*
X154520952Y-91859523D01*
X154901904Y-91859523D01*
X154997142Y-91811904D01*
X155044761Y-91764285D01*
X155092380Y-91669047D01*
X155092380Y-91478571D01*
X155044761Y-91383333D01*
X154997142Y-91335714D01*
X154901904Y-91288095D01*
X154663809Y-91288095D01*
X154568571Y-91335714D01*
X154520952Y-91383333D01*
X154473333Y-91478571D01*
X154473333Y-91669047D01*
X154520952Y-91764285D01*
X154568571Y-91811904D01*
X154663809Y-91859523D01*
X170236380Y-93352857D02*
X169760190Y-93686190D01*
X170236380Y-93924285D02*
X169236380Y-93924285D01*
X169236380Y-93543333D01*
X169284000Y-93448095D01*
X169331619Y-93400476D01*
X169426857Y-93352857D01*
X169569714Y-93352857D01*
X169664952Y-93400476D01*
X169712571Y-93448095D01*
X169760190Y-93543333D01*
X169760190Y-93924285D01*
X169331619Y-92971904D02*
X169284000Y-92924285D01*
X169236380Y-92829047D01*
X169236380Y-92590952D01*
X169284000Y-92495714D01*
X169331619Y-92448095D01*
X169426857Y-92400476D01*
X169522095Y-92400476D01*
X169664952Y-92448095D01*
X170236380Y-93019523D01*
X170236380Y-92400476D01*
X169236380Y-91495714D02*
X169236380Y-91971904D01*
X169712571Y-92019523D01*
X169664952Y-91971904D01*
X169617333Y-91876666D01*
X169617333Y-91638571D01*
X169664952Y-91543333D01*
X169712571Y-91495714D01*
X169807809Y-91448095D01*
X170045904Y-91448095D01*
X170141142Y-91495714D01*
X170188761Y-91543333D01*
X170236380Y-91638571D01*
X170236380Y-91876666D01*
X170188761Y-91971904D01*
X170141142Y-92019523D01*
X180425142Y-122042380D02*
X180091809Y-121566190D01*
X179853714Y-122042380D02*
X179853714Y-121042380D01*
X180234666Y-121042380D01*
X180329904Y-121090000D01*
X180377523Y-121137619D01*
X180425142Y-121232857D01*
X180425142Y-121375714D01*
X180377523Y-121470952D01*
X180329904Y-121518571D01*
X180234666Y-121566190D01*
X179853714Y-121566190D01*
X180806095Y-121137619D02*
X180853714Y-121090000D01*
X180948952Y-121042380D01*
X181187047Y-121042380D01*
X181282285Y-121090000D01*
X181329904Y-121137619D01*
X181377523Y-121232857D01*
X181377523Y-121328095D01*
X181329904Y-121470952D01*
X180758476Y-122042380D01*
X181377523Y-122042380D01*
X182234666Y-121375714D02*
X182234666Y-122042380D01*
X181996571Y-120994761D02*
X181758476Y-121709047D01*
X182377523Y-121709047D01*
X180217142Y-127122380D02*
X179883809Y-126646190D01*
X179645714Y-127122380D02*
X179645714Y-126122380D01*
X180026666Y-126122380D01*
X180121904Y-126170000D01*
X180169523Y-126217619D01*
X180217142Y-126312857D01*
X180217142Y-126455714D01*
X180169523Y-126550952D01*
X180121904Y-126598571D01*
X180026666Y-126646190D01*
X179645714Y-126646190D01*
X180598095Y-126217619D02*
X180645714Y-126170000D01*
X180740952Y-126122380D01*
X180979047Y-126122380D01*
X181074285Y-126170000D01*
X181121904Y-126217619D01*
X181169523Y-126312857D01*
X181169523Y-126408095D01*
X181121904Y-126550952D01*
X180550476Y-127122380D01*
X181169523Y-127122380D01*
X181502857Y-126122380D02*
X182121904Y-126122380D01*
X181788571Y-126503333D01*
X181931428Y-126503333D01*
X182026666Y-126550952D01*
X182074285Y-126598571D01*
X182121904Y-126693809D01*
X182121904Y-126931904D01*
X182074285Y-127027142D01*
X182026666Y-127074761D01*
X181931428Y-127122380D01*
X181645714Y-127122380D01*
X181550476Y-127074761D01*
X181502857Y-127027142D01*
X138607142Y-117022380D02*
X138273809Y-116546190D01*
X138035714Y-117022380D02*
X138035714Y-116022380D01*
X138416666Y-116022380D01*
X138511904Y-116070000D01*
X138559523Y-116117619D01*
X138607142Y-116212857D01*
X138607142Y-116355714D01*
X138559523Y-116450952D01*
X138511904Y-116498571D01*
X138416666Y-116546190D01*
X138035714Y-116546190D01*
X138988095Y-116117619D02*
X139035714Y-116070000D01*
X139130952Y-116022380D01*
X139369047Y-116022380D01*
X139464285Y-116070000D01*
X139511904Y-116117619D01*
X139559523Y-116212857D01*
X139559523Y-116308095D01*
X139511904Y-116450952D01*
X138940476Y-117022380D01*
X139559523Y-117022380D01*
X139940476Y-116117619D02*
X139988095Y-116070000D01*
X140083333Y-116022380D01*
X140321428Y-116022380D01*
X140416666Y-116070000D01*
X140464285Y-116117619D01*
X140511904Y-116212857D01*
X140511904Y-116308095D01*
X140464285Y-116450952D01*
X139892857Y-117022380D01*
X140511904Y-117022380D01*
X138607142Y-121719380D02*
X138273809Y-121243190D01*
X138035714Y-121719380D02*
X138035714Y-120719380D01*
X138416666Y-120719380D01*
X138511904Y-120767000D01*
X138559523Y-120814619D01*
X138607142Y-120909857D01*
X138607142Y-121052714D01*
X138559523Y-121147952D01*
X138511904Y-121195571D01*
X138416666Y-121243190D01*
X138035714Y-121243190D01*
X138988095Y-120814619D02*
X139035714Y-120767000D01*
X139130952Y-120719380D01*
X139369047Y-120719380D01*
X139464285Y-120767000D01*
X139511904Y-120814619D01*
X139559523Y-120909857D01*
X139559523Y-121005095D01*
X139511904Y-121147952D01*
X138940476Y-121719380D01*
X139559523Y-121719380D01*
X140511904Y-121719380D02*
X139940476Y-121719380D01*
X140226190Y-121719380D02*
X140226190Y-120719380D01*
X140130952Y-120862238D01*
X140035714Y-120957476D01*
X139940476Y-121005095D01*
X138647142Y-131092380D02*
X138313809Y-130616190D01*
X138075714Y-131092380D02*
X138075714Y-130092380D01*
X138456666Y-130092380D01*
X138551904Y-130140000D01*
X138599523Y-130187619D01*
X138647142Y-130282857D01*
X138647142Y-130425714D01*
X138599523Y-130520952D01*
X138551904Y-130568571D01*
X138456666Y-130616190D01*
X138075714Y-130616190D01*
X139599523Y-131092380D02*
X139028095Y-131092380D01*
X139313809Y-131092380D02*
X139313809Y-130092380D01*
X139218571Y-130235238D01*
X139123333Y-130330476D01*
X139028095Y-130378095D01*
X140075714Y-131092380D02*
X140266190Y-131092380D01*
X140361428Y-131044761D01*
X140409047Y-130997142D01*
X140504285Y-130854285D01*
X140551904Y-130663809D01*
X140551904Y-130282857D01*
X140504285Y-130187619D01*
X140456666Y-130140000D01*
X140361428Y-130092380D01*
X140170952Y-130092380D01*
X140075714Y-130140000D01*
X140028095Y-130187619D01*
X139980476Y-130282857D01*
X139980476Y-130520952D01*
X140028095Y-130616190D01*
X140075714Y-130663809D01*
X140170952Y-130711428D01*
X140361428Y-130711428D01*
X140456666Y-130663809D01*
X140504285Y-130616190D01*
X140551904Y-130520952D01*
X138607142Y-135809380D02*
X138273809Y-135333190D01*
X138035714Y-135809380D02*
X138035714Y-134809380D01*
X138416666Y-134809380D01*
X138511904Y-134857000D01*
X138559523Y-134904619D01*
X138607142Y-134999857D01*
X138607142Y-135142714D01*
X138559523Y-135237952D01*
X138511904Y-135285571D01*
X138416666Y-135333190D01*
X138035714Y-135333190D01*
X139559523Y-135809380D02*
X138988095Y-135809380D01*
X139273809Y-135809380D02*
X139273809Y-134809380D01*
X139178571Y-134952238D01*
X139083333Y-135047476D01*
X138988095Y-135095095D01*
X140130952Y-135237952D02*
X140035714Y-135190333D01*
X139988095Y-135142714D01*
X139940476Y-135047476D01*
X139940476Y-134999857D01*
X139988095Y-134904619D01*
X140035714Y-134857000D01*
X140130952Y-134809380D01*
X140321428Y-134809380D01*
X140416666Y-134857000D01*
X140464285Y-134904619D01*
X140511904Y-134999857D01*
X140511904Y-135047476D01*
X140464285Y-135142714D01*
X140416666Y-135190333D01*
X140321428Y-135237952D01*
X140130952Y-135237952D01*
X140035714Y-135285571D01*
X139988095Y-135333190D01*
X139940476Y-135428428D01*
X139940476Y-135618904D01*
X139988095Y-135714142D01*
X140035714Y-135761761D01*
X140130952Y-135809380D01*
X140321428Y-135809380D01*
X140416666Y-135761761D01*
X140464285Y-135714142D01*
X140511904Y-135618904D01*
X140511904Y-135428428D01*
X140464285Y-135333190D01*
X140416666Y-135285571D01*
X140321428Y-135237952D01*
X122157142Y-116452380D02*
X121823809Y-115976190D01*
X121585714Y-116452380D02*
X121585714Y-115452380D01*
X121966666Y-115452380D01*
X122061904Y-115500000D01*
X122109523Y-115547619D01*
X122157142Y-115642857D01*
X122157142Y-115785714D01*
X122109523Y-115880952D01*
X122061904Y-115928571D01*
X121966666Y-115976190D01*
X121585714Y-115976190D01*
X123109523Y-116452380D02*
X122538095Y-116452380D01*
X122823809Y-116452380D02*
X122823809Y-115452380D01*
X122728571Y-115595238D01*
X122633333Y-115690476D01*
X122538095Y-115738095D01*
X123442857Y-115452380D02*
X124109523Y-115452380D01*
X123680952Y-116452380D01*
X155257142Y-121432380D02*
X154923809Y-120956190D01*
X154685714Y-121432380D02*
X154685714Y-120432380D01*
X155066666Y-120432380D01*
X155161904Y-120480000D01*
X155209523Y-120527619D01*
X155257142Y-120622857D01*
X155257142Y-120765714D01*
X155209523Y-120860952D01*
X155161904Y-120908571D01*
X155066666Y-120956190D01*
X154685714Y-120956190D01*
X156209523Y-121432380D02*
X155638095Y-121432380D01*
X155923809Y-121432380D02*
X155923809Y-120432380D01*
X155828571Y-120575238D01*
X155733333Y-120670476D01*
X155638095Y-120718095D01*
X157066666Y-120432380D02*
X156876190Y-120432380D01*
X156780952Y-120480000D01*
X156733333Y-120527619D01*
X156638095Y-120670476D01*
X156590476Y-120860952D01*
X156590476Y-121241904D01*
X156638095Y-121337142D01*
X156685714Y-121384761D01*
X156780952Y-121432380D01*
X156971428Y-121432380D01*
X157066666Y-121384761D01*
X157114285Y-121337142D01*
X157161904Y-121241904D01*
X157161904Y-121003809D01*
X157114285Y-120908571D01*
X157066666Y-120860952D01*
X156971428Y-120813333D01*
X156780952Y-120813333D01*
X156685714Y-120860952D01*
X156638095Y-120908571D01*
X156590476Y-121003809D01*
X155202380Y-87402857D02*
X154726190Y-87736190D01*
X155202380Y-87974285D02*
X154202380Y-87974285D01*
X154202380Y-87593333D01*
X154250000Y-87498095D01*
X154297619Y-87450476D01*
X154392857Y-87402857D01*
X154535714Y-87402857D01*
X154630952Y-87450476D01*
X154678571Y-87498095D01*
X154726190Y-87593333D01*
X154726190Y-87974285D01*
X155202380Y-86450476D02*
X155202380Y-87021904D01*
X155202380Y-86736190D02*
X154202380Y-86736190D01*
X154345238Y-86831428D01*
X154440476Y-86926666D01*
X154488095Y-87021904D01*
X154202380Y-85545714D02*
X154202380Y-86021904D01*
X154678571Y-86069523D01*
X154630952Y-86021904D01*
X154583333Y-85926666D01*
X154583333Y-85688571D01*
X154630952Y-85593333D01*
X154678571Y-85545714D01*
X154773809Y-85498095D01*
X155011904Y-85498095D01*
X155107142Y-85545714D01*
X155154761Y-85593333D01*
X155202380Y-85688571D01*
X155202380Y-85926666D01*
X155154761Y-86021904D01*
X155107142Y-86069523D01*
X173539142Y-113702380D02*
X173205809Y-113226190D01*
X172967714Y-113702380D02*
X172967714Y-112702380D01*
X173348666Y-112702380D01*
X173443904Y-112750000D01*
X173491523Y-112797619D01*
X173539142Y-112892857D01*
X173539142Y-113035714D01*
X173491523Y-113130952D01*
X173443904Y-113178571D01*
X173348666Y-113226190D01*
X172967714Y-113226190D01*
X174491523Y-113702380D02*
X173920095Y-113702380D01*
X174205809Y-113702380D02*
X174205809Y-112702380D01*
X174110571Y-112845238D01*
X174015333Y-112940476D01*
X173920095Y-112988095D01*
X175348666Y-113035714D02*
X175348666Y-113702380D01*
X175110571Y-112654761D02*
X174872476Y-113369047D01*
X175491523Y-113369047D01*
X180617142Y-111994380D02*
X180283809Y-111518190D01*
X180045714Y-111994380D02*
X180045714Y-110994380D01*
X180426666Y-110994380D01*
X180521904Y-111042000D01*
X180569523Y-111089619D01*
X180617142Y-111184857D01*
X180617142Y-111327714D01*
X180569523Y-111422952D01*
X180521904Y-111470571D01*
X180426666Y-111518190D01*
X180045714Y-111518190D01*
X181569523Y-111994380D02*
X180998095Y-111994380D01*
X181283809Y-111994380D02*
X181283809Y-110994380D01*
X181188571Y-111137238D01*
X181093333Y-111232476D01*
X180998095Y-111280095D01*
X181902857Y-110994380D02*
X182521904Y-110994380D01*
X182188571Y-111375333D01*
X182331428Y-111375333D01*
X182426666Y-111422952D01*
X182474285Y-111470571D01*
X182521904Y-111565809D01*
X182521904Y-111803904D01*
X182474285Y-111899142D01*
X182426666Y-111946761D01*
X182331428Y-111994380D01*
X182045714Y-111994380D01*
X181950476Y-111946761D01*
X181902857Y-111899142D01*
X180317142Y-106762380D02*
X179983809Y-106286190D01*
X179745714Y-106762380D02*
X179745714Y-105762380D01*
X180126666Y-105762380D01*
X180221904Y-105810000D01*
X180269523Y-105857619D01*
X180317142Y-105952857D01*
X180317142Y-106095714D01*
X180269523Y-106190952D01*
X180221904Y-106238571D01*
X180126666Y-106286190D01*
X179745714Y-106286190D01*
X181269523Y-106762380D02*
X180698095Y-106762380D01*
X180983809Y-106762380D02*
X180983809Y-105762380D01*
X180888571Y-105905238D01*
X180793333Y-106000476D01*
X180698095Y-106048095D01*
X181650476Y-105857619D02*
X181698095Y-105810000D01*
X181793333Y-105762380D01*
X182031428Y-105762380D01*
X182126666Y-105810000D01*
X182174285Y-105857619D01*
X182221904Y-105952857D01*
X182221904Y-106048095D01*
X182174285Y-106190952D01*
X181602857Y-106762380D01*
X182221904Y-106762380D01*
X179892380Y-87302857D02*
X179416190Y-87636190D01*
X179892380Y-87874285D02*
X178892380Y-87874285D01*
X178892380Y-87493333D01*
X178940000Y-87398095D01*
X178987619Y-87350476D01*
X179082857Y-87302857D01*
X179225714Y-87302857D01*
X179320952Y-87350476D01*
X179368571Y-87398095D01*
X179416190Y-87493333D01*
X179416190Y-87874285D01*
X179892380Y-86350476D02*
X179892380Y-86921904D01*
X179892380Y-86636190D02*
X178892380Y-86636190D01*
X179035238Y-86731428D01*
X179130476Y-86826666D01*
X179178095Y-86921904D01*
X179892380Y-85398095D02*
X179892380Y-85969523D01*
X179892380Y-85683809D02*
X178892380Y-85683809D01*
X179035238Y-85779047D01*
X179130476Y-85874285D01*
X179178095Y-85969523D01*
X149112380Y-57775357D02*
X148636190Y-58108690D01*
X149112380Y-58346785D02*
X148112380Y-58346785D01*
X148112380Y-57965833D01*
X148160000Y-57870595D01*
X148207619Y-57822976D01*
X148302857Y-57775357D01*
X148445714Y-57775357D01*
X148540952Y-57822976D01*
X148588571Y-57870595D01*
X148636190Y-57965833D01*
X148636190Y-58346785D01*
X149112380Y-56822976D02*
X149112380Y-57394404D01*
X149112380Y-57108690D02*
X148112380Y-57108690D01*
X148255238Y-57203928D01*
X148350476Y-57299166D01*
X148398095Y-57394404D01*
X148112380Y-56203928D02*
X148112380Y-56108690D01*
X148160000Y-56013452D01*
X148207619Y-55965833D01*
X148302857Y-55918214D01*
X148493333Y-55870595D01*
X148731428Y-55870595D01*
X148921904Y-55918214D01*
X149017142Y-55965833D01*
X149064761Y-56013452D01*
X149112380Y-56108690D01*
X149112380Y-56203928D01*
X149064761Y-56299166D01*
X149017142Y-56346785D01*
X148921904Y-56394404D01*
X148731428Y-56442023D01*
X148493333Y-56442023D01*
X148302857Y-56394404D01*
X148207619Y-56346785D01*
X148160000Y-56299166D01*
X148112380Y-56203928D01*
X174093333Y-106872380D02*
X173760000Y-106396190D01*
X173521904Y-106872380D02*
X173521904Y-105872380D01*
X173902857Y-105872380D01*
X173998095Y-105920000D01*
X174045714Y-105967619D01*
X174093333Y-106062857D01*
X174093333Y-106205714D01*
X174045714Y-106300952D01*
X173998095Y-106348571D01*
X173902857Y-106396190D01*
X173521904Y-106396190D01*
X174569523Y-106872380D02*
X174760000Y-106872380D01*
X174855238Y-106824761D01*
X174902857Y-106777142D01*
X174998095Y-106634285D01*
X175045714Y-106443809D01*
X175045714Y-106062857D01*
X174998095Y-105967619D01*
X174950476Y-105920000D01*
X174855238Y-105872380D01*
X174664761Y-105872380D01*
X174569523Y-105920000D01*
X174521904Y-105967619D01*
X174474285Y-106062857D01*
X174474285Y-106300952D01*
X174521904Y-106396190D01*
X174569523Y-106443809D01*
X174664761Y-106491428D01*
X174855238Y-106491428D01*
X174950476Y-106443809D01*
X174998095Y-106396190D01*
X175045714Y-106300952D01*
X156008333Y-135372380D02*
X155675000Y-134896190D01*
X155436904Y-135372380D02*
X155436904Y-134372380D01*
X155817857Y-134372380D01*
X155913095Y-134420000D01*
X155960714Y-134467619D01*
X156008333Y-134562857D01*
X156008333Y-134705714D01*
X155960714Y-134800952D01*
X155913095Y-134848571D01*
X155817857Y-134896190D01*
X155436904Y-134896190D01*
X156579761Y-134800952D02*
X156484523Y-134753333D01*
X156436904Y-134705714D01*
X156389285Y-134610476D01*
X156389285Y-134562857D01*
X156436904Y-134467619D01*
X156484523Y-134420000D01*
X156579761Y-134372380D01*
X156770238Y-134372380D01*
X156865476Y-134420000D01*
X156913095Y-134467619D01*
X156960714Y-134562857D01*
X156960714Y-134610476D01*
X156913095Y-134705714D01*
X156865476Y-134753333D01*
X156770238Y-134800952D01*
X156579761Y-134800952D01*
X156484523Y-134848571D01*
X156436904Y-134896190D01*
X156389285Y-134991428D01*
X156389285Y-135181904D01*
X156436904Y-135277142D01*
X156484523Y-135324761D01*
X156579761Y-135372380D01*
X156770238Y-135372380D01*
X156865476Y-135324761D01*
X156913095Y-135277142D01*
X156960714Y-135181904D01*
X156960714Y-134991428D01*
X156913095Y-134896190D01*
X156865476Y-134848571D01*
X156770238Y-134800952D01*
X152840380Y-57299166D02*
X152364190Y-57632500D01*
X152840380Y-57870595D02*
X151840380Y-57870595D01*
X151840380Y-57489642D01*
X151888000Y-57394404D01*
X151935619Y-57346785D01*
X152030857Y-57299166D01*
X152173714Y-57299166D01*
X152268952Y-57346785D01*
X152316571Y-57394404D01*
X152364190Y-57489642D01*
X152364190Y-57870595D01*
X151840380Y-56965833D02*
X151840380Y-56299166D01*
X152840380Y-56727738D01*
X160140380Y-57449166D02*
X159664190Y-57782500D01*
X160140380Y-58020595D02*
X159140380Y-58020595D01*
X159140380Y-57639642D01*
X159188000Y-57544404D01*
X159235619Y-57496785D01*
X159330857Y-57449166D01*
X159473714Y-57449166D01*
X159568952Y-57496785D01*
X159616571Y-57544404D01*
X159664190Y-57639642D01*
X159664190Y-58020595D01*
X159140380Y-56592023D02*
X159140380Y-56782500D01*
X159188000Y-56877738D01*
X159235619Y-56925357D01*
X159378476Y-57020595D01*
X159568952Y-57068214D01*
X159949904Y-57068214D01*
X160045142Y-57020595D01*
X160092761Y-56972976D01*
X160140380Y-56877738D01*
X160140380Y-56687261D01*
X160092761Y-56592023D01*
X160045142Y-56544404D01*
X159949904Y-56496785D01*
X159711809Y-56496785D01*
X159616571Y-56544404D01*
X159568952Y-56592023D01*
X159521333Y-56687261D01*
X159521333Y-56877738D01*
X159568952Y-56972976D01*
X159616571Y-57020595D01*
X159711809Y-57068214D01*
X156504380Y-57549166D02*
X156028190Y-57882500D01*
X156504380Y-58120595D02*
X155504380Y-58120595D01*
X155504380Y-57739642D01*
X155552000Y-57644404D01*
X155599619Y-57596785D01*
X155694857Y-57549166D01*
X155837714Y-57549166D01*
X155932952Y-57596785D01*
X155980571Y-57644404D01*
X156028190Y-57739642D01*
X156028190Y-58120595D01*
X155504380Y-56644404D02*
X155504380Y-57120595D01*
X155980571Y-57168214D01*
X155932952Y-57120595D01*
X155885333Y-57025357D01*
X155885333Y-56787261D01*
X155932952Y-56692023D01*
X155980571Y-56644404D01*
X156075809Y-56596785D01*
X156313904Y-56596785D01*
X156409142Y-56644404D01*
X156456761Y-56692023D01*
X156504380Y-56787261D01*
X156504380Y-57025357D01*
X156456761Y-57120595D01*
X156409142Y-57168214D01*
X163826380Y-57399166D02*
X163350190Y-57732500D01*
X163826380Y-57970595D02*
X162826380Y-57970595D01*
X162826380Y-57589642D01*
X162874000Y-57494404D01*
X162921619Y-57446785D01*
X163016857Y-57399166D01*
X163159714Y-57399166D01*
X163254952Y-57446785D01*
X163302571Y-57494404D01*
X163350190Y-57589642D01*
X163350190Y-57970595D01*
X163159714Y-56542023D02*
X163826380Y-56542023D01*
X162778761Y-56780119D02*
X163493047Y-57018214D01*
X163493047Y-56399166D01*
X167712380Y-57349166D02*
X167236190Y-57682500D01*
X167712380Y-57920595D02*
X166712380Y-57920595D01*
X166712380Y-57539642D01*
X166760000Y-57444404D01*
X166807619Y-57396785D01*
X166902857Y-57349166D01*
X167045714Y-57349166D01*
X167140952Y-57396785D01*
X167188571Y-57444404D01*
X167236190Y-57539642D01*
X167236190Y-57920595D01*
X166712380Y-57015833D02*
X166712380Y-56396785D01*
X167093333Y-56730119D01*
X167093333Y-56587261D01*
X167140952Y-56492023D01*
X167188571Y-56444404D01*
X167283809Y-56396785D01*
X167521904Y-56396785D01*
X167617142Y-56444404D01*
X167664761Y-56492023D01*
X167712380Y-56587261D01*
X167712380Y-56872976D01*
X167664761Y-56968214D01*
X167617142Y-57015833D01*
X163572380Y-87126666D02*
X163096190Y-87460000D01*
X163572380Y-87698095D02*
X162572380Y-87698095D01*
X162572380Y-87317142D01*
X162620000Y-87221904D01*
X162667619Y-87174285D01*
X162762857Y-87126666D01*
X162905714Y-87126666D01*
X163000952Y-87174285D01*
X163048571Y-87221904D01*
X163096190Y-87317142D01*
X163096190Y-87698095D01*
X162667619Y-86745714D02*
X162620000Y-86698095D01*
X162572380Y-86602857D01*
X162572380Y-86364761D01*
X162620000Y-86269523D01*
X162667619Y-86221904D01*
X162762857Y-86174285D01*
X162858095Y-86174285D01*
X163000952Y-86221904D01*
X163572380Y-86793333D01*
X163572380Y-86174285D01*
X167682380Y-87026666D02*
X167206190Y-87360000D01*
X167682380Y-87598095D02*
X166682380Y-87598095D01*
X166682380Y-87217142D01*
X166730000Y-87121904D01*
X166777619Y-87074285D01*
X166872857Y-87026666D01*
X167015714Y-87026666D01*
X167110952Y-87074285D01*
X167158571Y-87121904D01*
X167206190Y-87217142D01*
X167206190Y-87598095D01*
X167682380Y-86074285D02*
X167682380Y-86645714D01*
X167682380Y-86360000D02*
X166682380Y-86360000D01*
X166825238Y-86455238D01*
X166920476Y-86550476D01*
X166968095Y-86645714D01*
X122157142Y-111512380D02*
X121823809Y-111036190D01*
X121585714Y-111512380D02*
X121585714Y-110512380D01*
X121966666Y-110512380D01*
X122061904Y-110560000D01*
X122109523Y-110607619D01*
X122157142Y-110702857D01*
X122157142Y-110845714D01*
X122109523Y-110940952D01*
X122061904Y-110988571D01*
X121966666Y-111036190D01*
X121585714Y-111036190D01*
X122538095Y-110607619D02*
X122585714Y-110560000D01*
X122680952Y-110512380D01*
X122919047Y-110512380D01*
X123014285Y-110560000D01*
X123061904Y-110607619D01*
X123109523Y-110702857D01*
X123109523Y-110798095D01*
X123061904Y-110940952D01*
X122490476Y-111512380D01*
X123109523Y-111512380D01*
X123728571Y-110512380D02*
X123823809Y-110512380D01*
X123919047Y-110560000D01*
X123966666Y-110607619D01*
X124014285Y-110702857D01*
X124061904Y-110893333D01*
X124061904Y-111131428D01*
X124014285Y-111321904D01*
X123966666Y-111417142D01*
X123919047Y-111464761D01*
X123823809Y-111512380D01*
X123728571Y-111512380D01*
X123633333Y-111464761D01*
X123585714Y-111417142D01*
X123538095Y-111321904D01*
X123490476Y-111131428D01*
X123490476Y-110893333D01*
X123538095Y-110702857D01*
X123585714Y-110607619D01*
X123633333Y-110560000D01*
X123728571Y-110512380D01*
X118216904Y-65757380D02*
X118216904Y-64757380D01*
X118455000Y-64757380D01*
X118597857Y-64805000D01*
X118693095Y-64900238D01*
X118740714Y-64995476D01*
X118788333Y-65185952D01*
X118788333Y-65328809D01*
X118740714Y-65519285D01*
X118693095Y-65614523D01*
X118597857Y-65709761D01*
X118455000Y-65757380D01*
X118216904Y-65757380D01*
X119645476Y-64757380D02*
X119455000Y-64757380D01*
X119359761Y-64805000D01*
X119312142Y-64852619D01*
X119216904Y-64995476D01*
X119169285Y-65185952D01*
X119169285Y-65566904D01*
X119216904Y-65662142D01*
X119264523Y-65709761D01*
X119359761Y-65757380D01*
X119550238Y-65757380D01*
X119645476Y-65709761D01*
X119693095Y-65662142D01*
X119740714Y-65566904D01*
X119740714Y-65328809D01*
X119693095Y-65233571D01*
X119645476Y-65185952D01*
X119550238Y-65138333D01*
X119359761Y-65138333D01*
X119264523Y-65185952D01*
X119216904Y-65233571D01*
X119169285Y-65328809D01*
X120621904Y-71496666D02*
X121098095Y-71496666D01*
X120526666Y-71782380D02*
X120860000Y-70782380D01*
X121193333Y-71782380D01*
X118314761Y-50872380D02*
X117981428Y-50396190D01*
X117743333Y-50872380D02*
X117743333Y-49872380D01*
X118124285Y-49872380D01*
X118219523Y-49920000D01*
X118267142Y-49967619D01*
X118314761Y-50062857D01*
X118314761Y-50205714D01*
X118267142Y-50300952D01*
X118219523Y-50348571D01*
X118124285Y-50396190D01*
X117743333Y-50396190D01*
X118600476Y-49872380D02*
X118933809Y-50872380D01*
X119267142Y-49872380D01*
X120124285Y-50872380D02*
X119552857Y-50872380D01*
X119838571Y-50872380D02*
X119838571Y-49872380D01*
X119743333Y-50015238D01*
X119648095Y-50110476D01*
X119552857Y-50158095D01*
X178736666Y-95992380D02*
X178736666Y-96706666D01*
X178689047Y-96849523D01*
X178593809Y-96944761D01*
X178450952Y-96992380D01*
X178355714Y-96992380D01*
X179641428Y-95992380D02*
X179450952Y-95992380D01*
X179355714Y-96040000D01*
X179308095Y-96087619D01*
X179212857Y-96230476D01*
X179165238Y-96420952D01*
X179165238Y-96801904D01*
X179212857Y-96897142D01*
X179260476Y-96944761D01*
X179355714Y-96992380D01*
X179546190Y-96992380D01*
X179641428Y-96944761D01*
X179689047Y-96897142D01*
X179736666Y-96801904D01*
X179736666Y-96563809D01*
X179689047Y-96468571D01*
X179641428Y-96420952D01*
X179546190Y-96373333D01*
X179355714Y-96373333D01*
X179260476Y-96420952D01*
X179212857Y-96468571D01*
X179165238Y-96563809D01*
X118736666Y-95992380D02*
X118736666Y-96706666D01*
X118689047Y-96849523D01*
X118593809Y-96944761D01*
X118450952Y-96992380D01*
X118355714Y-96992380D01*
X119689047Y-95992380D02*
X119212857Y-95992380D01*
X119165238Y-96468571D01*
X119212857Y-96420952D01*
X119308095Y-96373333D01*
X119546190Y-96373333D01*
X119641428Y-96420952D01*
X119689047Y-96468571D01*
X119736666Y-96563809D01*
X119736666Y-96801904D01*
X119689047Y-96897142D01*
X119641428Y-96944761D01*
X119546190Y-96992380D01*
X119308095Y-96992380D01*
X119212857Y-96944761D01*
X119165238Y-96897142D01*
X178736666Y-135492380D02*
X178736666Y-136206666D01*
X178689047Y-136349523D01*
X178593809Y-136444761D01*
X178450952Y-136492380D01*
X178355714Y-136492380D01*
X179641428Y-135825714D02*
X179641428Y-136492380D01*
X179403333Y-135444761D02*
X179165238Y-136159047D01*
X179784285Y-136159047D01*
X178736666Y-56492380D02*
X178736666Y-57206666D01*
X178689047Y-57349523D01*
X178593809Y-57444761D01*
X178450952Y-57492380D01*
X178355714Y-57492380D01*
X179117619Y-56492380D02*
X179736666Y-56492380D01*
X179403333Y-56873333D01*
X179546190Y-56873333D01*
X179641428Y-56920952D01*
X179689047Y-56968571D01*
X179736666Y-57063809D01*
X179736666Y-57301904D01*
X179689047Y-57397142D01*
X179641428Y-57444761D01*
X179546190Y-57492380D01*
X179260476Y-57492380D01*
X179165238Y-57444761D01*
X179117619Y-57397142D01*
X118736666Y-56492380D02*
X118736666Y-57206666D01*
X118689047Y-57349523D01*
X118593809Y-57444761D01*
X118450952Y-57492380D01*
X118355714Y-57492380D01*
X119165238Y-56587619D02*
X119212857Y-56540000D01*
X119308095Y-56492380D01*
X119546190Y-56492380D01*
X119641428Y-56540000D01*
X119689047Y-56587619D01*
X119736666Y-56682857D01*
X119736666Y-56778095D01*
X119689047Y-56920952D01*
X119117619Y-57492380D01*
X119736666Y-57492380D01*
X118736666Y-135492380D02*
X118736666Y-136206666D01*
X118689047Y-136349523D01*
X118593809Y-136444761D01*
X118450952Y-136492380D01*
X118355714Y-136492380D01*
X119736666Y-136492380D02*
X119165238Y-136492380D01*
X119450952Y-136492380D02*
X119450952Y-135492380D01*
X119355714Y-135635238D01*
X119260476Y-135730476D01*
X119165238Y-135778095D01*
X148706666Y-50762380D02*
X148706666Y-51476666D01*
X148659047Y-51619523D01*
X148563809Y-51714761D01*
X148420952Y-51762380D01*
X148325714Y-51762380D01*
X149087619Y-50762380D02*
X149754285Y-50762380D01*
X149325714Y-51762380D01*
X145053809Y-96292380D02*
X145053809Y-95292380D01*
X146101428Y-96197142D02*
X146053809Y-96244761D01*
X145910952Y-96292380D01*
X145815714Y-96292380D01*
X145672857Y-96244761D01*
X145577619Y-96149523D01*
X145530000Y-96054285D01*
X145482380Y-95863809D01*
X145482380Y-95720952D01*
X145530000Y-95530476D01*
X145577619Y-95435238D01*
X145672857Y-95340000D01*
X145815714Y-95292380D01*
X145910952Y-95292380D01*
X146053809Y-95340000D01*
X146101428Y-95387619D01*
X146482380Y-95387619D02*
X146530000Y-95340000D01*
X146625238Y-95292380D01*
X146863333Y-95292380D01*
X146958571Y-95340000D01*
X147006190Y-95387619D01*
X147053809Y-95482857D01*
X147053809Y-95578095D01*
X147006190Y-95720952D01*
X146434761Y-96292380D01*
X147053809Y-96292380D01*
X166301904Y-71312380D02*
X166301904Y-70312380D01*
X166682857Y-70312380D01*
X166778095Y-70360000D01*
X166825714Y-70407619D01*
X166873333Y-70502857D01*
X166873333Y-70645714D01*
X166825714Y-70740952D01*
X166778095Y-70788571D01*
X166682857Y-70836190D01*
X166301904Y-70836190D01*
X167825714Y-71312380D02*
X167254285Y-71312380D01*
X167540000Y-71312380D02*
X167540000Y-70312380D01*
X167444761Y-70455238D01*
X167349523Y-70550476D01*
X167254285Y-70598095D01*
X132833015Y-69138095D02*
X131833015Y-69138095D01*
X131833015Y-68900000D01*
X131880635Y-68757142D01*
X131975873Y-68661904D01*
X132071111Y-68614285D01*
X132261587Y-68566666D01*
X132404444Y-68566666D01*
X132594920Y-68614285D01*
X132690158Y-68661904D01*
X132785396Y-68757142D01*
X132833015Y-68900000D01*
X132833015Y-69138095D01*
X131833015Y-67661904D02*
X131833015Y-68138095D01*
X132309206Y-68185714D01*
X132261587Y-68138095D01*
X132213968Y-68042857D01*
X132213968Y-67804761D01*
X132261587Y-67709523D01*
X132309206Y-67661904D01*
X132404444Y-67614285D01*
X132642539Y-67614285D01*
X132737777Y-67661904D01*
X132785396Y-67709523D01*
X132833015Y-67804761D01*
X132833015Y-68042857D01*
X132785396Y-68138095D01*
X132737777Y-68185714D01*
X145970714Y-113461666D02*
X146446904Y-113461666D01*
X145875476Y-113747380D02*
X146208809Y-112747380D01*
X146542142Y-113747380D01*
X147446904Y-113747380D02*
X147113571Y-113271190D01*
X146875476Y-113747380D02*
X146875476Y-112747380D01*
X147256428Y-112747380D01*
X147351666Y-112795000D01*
X147399285Y-112842619D01*
X147446904Y-112937857D01*
X147446904Y-113080714D01*
X147399285Y-113175952D01*
X147351666Y-113223571D01*
X147256428Y-113271190D01*
X146875476Y-113271190D01*
X147875476Y-113747380D02*
X147875476Y-112747380D01*
X148113571Y-112747380D01*
X148256428Y-112795000D01*
X148351666Y-112890238D01*
X148399285Y-112985476D01*
X148446904Y-113175952D01*
X148446904Y-113318809D01*
X148399285Y-113509285D01*
X148351666Y-113604523D01*
X148256428Y-113699761D01*
X148113571Y-113747380D01*
X147875476Y-113747380D01*
X149399285Y-113747380D02*
X148827857Y-113747380D01*
X149113571Y-113747380D02*
X149113571Y-112747380D01*
X149018333Y-112890238D01*
X148923095Y-112985476D01*
X148827857Y-113033095D01*
X132032380Y-58141904D02*
X132841904Y-58141904D01*
X132937142Y-58094285D01*
X132984761Y-58046666D01*
X133032380Y-57951428D01*
X133032380Y-57760952D01*
X132984761Y-57665714D01*
X132937142Y-57618095D01*
X132841904Y-57570476D01*
X132032380Y-57570476D01*
X133032380Y-56570476D02*
X133032380Y-57141904D01*
X133032380Y-56856190D02*
X132032380Y-56856190D01*
X132175238Y-56951428D01*
X132270476Y-57046666D01*
X132318095Y-57141904D01*
X130497619Y-89855238D02*
X130450000Y-89950476D01*
X130354761Y-90045714D01*
X130211904Y-90188571D01*
X130164285Y-90283809D01*
X130164285Y-90379047D01*
X130402380Y-90331428D02*
X130354761Y-90426666D01*
X130259523Y-90521904D01*
X130069047Y-90569523D01*
X129735714Y-90569523D01*
X129545238Y-90521904D01*
X129450000Y-90426666D01*
X129402380Y-90331428D01*
X129402380Y-90140952D01*
X129450000Y-90045714D01*
X129545238Y-89950476D01*
X129735714Y-89902857D01*
X130069047Y-89902857D01*
X130259523Y-89950476D01*
X130354761Y-90045714D01*
X130402380Y-90140952D01*
X130402380Y-90331428D01*
X129402380Y-89569523D02*
X129402380Y-88950476D01*
X129783333Y-89283809D01*
X129783333Y-89140952D01*
X129830952Y-89045714D01*
X129878571Y-88998095D01*
X129973809Y-88950476D01*
X130211904Y-88950476D01*
X130307142Y-88998095D01*
X130354761Y-89045714D01*
X130402380Y-89140952D01*
X130402380Y-89426666D01*
X130354761Y-89521904D01*
X130307142Y-89569523D01*
X122887619Y-89955238D02*
X122840000Y-90050476D01*
X122744761Y-90145714D01*
X122601904Y-90288571D01*
X122554285Y-90383809D01*
X122554285Y-90479047D01*
X122792380Y-90431428D02*
X122744761Y-90526666D01*
X122649523Y-90621904D01*
X122459047Y-90669523D01*
X122125714Y-90669523D01*
X121935238Y-90621904D01*
X121840000Y-90526666D01*
X121792380Y-90431428D01*
X121792380Y-90240952D01*
X121840000Y-90145714D01*
X121935238Y-90050476D01*
X122125714Y-90002857D01*
X122459047Y-90002857D01*
X122649523Y-90050476D01*
X122744761Y-90145714D01*
X122792380Y-90240952D01*
X122792380Y-90431428D01*
X121887619Y-89621904D02*
X121840000Y-89574285D01*
X121792380Y-89479047D01*
X121792380Y-89240952D01*
X121840000Y-89145714D01*
X121887619Y-89098095D01*
X121982857Y-89050476D01*
X122078095Y-89050476D01*
X122220952Y-89098095D01*
X122792380Y-89669523D01*
X122792380Y-89050476D01*
X115017619Y-89645238D02*
X114970000Y-89740476D01*
X114874761Y-89835714D01*
X114731904Y-89978571D01*
X114684285Y-90073809D01*
X114684285Y-90169047D01*
X114922380Y-90121428D02*
X114874761Y-90216666D01*
X114779523Y-90311904D01*
X114589047Y-90359523D01*
X114255714Y-90359523D01*
X114065238Y-90311904D01*
X113970000Y-90216666D01*
X113922380Y-90121428D01*
X113922380Y-89930952D01*
X113970000Y-89835714D01*
X114065238Y-89740476D01*
X114255714Y-89692857D01*
X114589047Y-89692857D01*
X114779523Y-89740476D01*
X114874761Y-89835714D01*
X114922380Y-89930952D01*
X114922380Y-90121428D01*
X114922380Y-88740476D02*
X114922380Y-89311904D01*
X114922380Y-89026190D02*
X113922380Y-89026190D01*
X114065238Y-89121428D01*
X114160476Y-89216666D01*
X114208095Y-89311904D01*
X148325809Y-110310380D02*
X148325809Y-109310380D01*
X149373428Y-110215142D02*
X149325809Y-110262761D01*
X149182952Y-110310380D01*
X149087714Y-110310380D01*
X148944857Y-110262761D01*
X148849619Y-110167523D01*
X148802000Y-110072285D01*
X148754380Y-109881809D01*
X148754380Y-109738952D01*
X148802000Y-109548476D01*
X148849619Y-109453238D01*
X148944857Y-109358000D01*
X149087714Y-109310380D01*
X149182952Y-109310380D01*
X149325809Y-109358000D01*
X149373428Y-109405619D01*
X150325809Y-110310380D02*
X149754380Y-110310380D01*
X150040095Y-110310380D02*
X150040095Y-109310380D01*
X149944857Y-109453238D01*
X149849619Y-109548476D01*
X149754380Y-109596095D01*
X135446666Y-74574285D02*
X135446666Y-74098095D01*
X135732380Y-74669523D02*
X134732380Y-74336190D01*
X135732380Y-74002857D01*
X135732380Y-73145714D02*
X135732380Y-73717142D01*
X135732380Y-73431428D02*
X134732380Y-73431428D01*
X134875238Y-73526666D01*
X134970476Y-73621904D01*
X135018095Y-73717142D01*
M02*
