G04 #@! TF.GenerationSoftware,KiCad,Pcbnew,(5.1.4)-1*
G04 #@! TF.CreationDate,2020-01-03T18:21:15+05:00*
G04 #@! TF.ProjectId,speeduino_ntv650,73706565-6475-4696-9e6f-5f6e74763635,rev?*
G04 #@! TF.SameCoordinates,Original*
G04 #@! TF.FileFunction,Legend,Bot*
G04 #@! TF.FilePolarity,Positive*
%FSLAX46Y46*%
G04 Gerber Fmt 4.6, Leading zero omitted, Abs format (unit mm)*
G04 Created by KiCad (PCBNEW (5.1.4)-1) date 2020-01-03 18:21:15*
%MOMM*%
%LPD*%
G04 APERTURE LIST*
%ADD10C,0.100000*%
%ADD11C,0.150000*%
G04 APERTURE END LIST*
D10*
X110806666Y-38620000D02*
G75*
G03X110806666Y-38620000I-1666666J0D01*
G01*
X106640000Y-38620000D02*
X111640000Y-38620000D01*
X109140000Y-36120000D02*
X109140000Y-41120000D01*
X190016666Y-162490000D02*
G75*
G03X190016666Y-162490000I-1666666J0D01*
G01*
X185850000Y-162490000D02*
X190850000Y-162490000D01*
X188350000Y-159990000D02*
X188350000Y-164990000D01*
D11*
X184070000Y-155040000D02*
G75*
G03X184070000Y-155040000I-3000000J0D01*
G01*
D10*
X190286666Y-38760000D02*
G75*
G03X190286666Y-38760000I-1666666J0D01*
G01*
X186120000Y-38760000D02*
X191120000Y-38760000D01*
X188620000Y-36260000D02*
X188620000Y-41260000D01*
X111396666Y-162190000D02*
G75*
G03X111396666Y-162190000I-1666666J0D01*
G01*
X107230000Y-162190000D02*
X112230000Y-162190000D01*
X109730000Y-159690000D02*
X109730000Y-164690000D01*
D11*
X120070000Y-155040000D02*
G75*
G03X120070000Y-155040000I-3000000J0D01*
G01*
X184070000Y-46040000D02*
G75*
G03X184070000Y-46040000I-3000000J0D01*
G01*
X120070000Y-46040000D02*
G75*
G03X120070000Y-46040000I-3000000J0D01*
G01*
D10*
X112070000Y-160040000D02*
X112070000Y-41040000D01*
X186070000Y-160040000D02*
X112070000Y-160040000D01*
X186070000Y-41040000D02*
X186070000Y-160040000D01*
X112070000Y-41040000D02*
X186070000Y-41040000D01*
D11*
X137388571Y-76441904D02*
X137388571Y-76775238D01*
X137912380Y-76918095D02*
X137912380Y-76441904D01*
X136912380Y-76441904D01*
X136912380Y-76918095D01*
X137912380Y-77346666D02*
X136912380Y-77346666D01*
X137912380Y-77918095D01*
X136912380Y-77918095D01*
X154870000Y-70621904D02*
X154822380Y-70717142D01*
X154822380Y-70860000D01*
X154870000Y-71002857D01*
X154965238Y-71098095D01*
X155060476Y-71145714D01*
X155250952Y-71193333D01*
X155393809Y-71193333D01*
X155584285Y-71145714D01*
X155679523Y-71098095D01*
X155774761Y-71002857D01*
X155822380Y-70860000D01*
X155822380Y-70764761D01*
X155774761Y-70621904D01*
X155727142Y-70574285D01*
X155393809Y-70574285D01*
X155393809Y-70764761D01*
X155822380Y-70145714D02*
X154822380Y-70145714D01*
X155822380Y-69574285D01*
X154822380Y-69574285D01*
X155822380Y-69098095D02*
X154822380Y-69098095D01*
X154822380Y-68860000D01*
X154870000Y-68717142D01*
X154965238Y-68621904D01*
X155060476Y-68574285D01*
X155250952Y-68526666D01*
X155393809Y-68526666D01*
X155584285Y-68574285D01*
X155679523Y-68621904D01*
X155774761Y-68717142D01*
X155822380Y-68860000D01*
X155822380Y-69098095D01*
X152172380Y-68861904D02*
X153172380Y-69195238D01*
X152172380Y-69528571D01*
X153172380Y-70290476D02*
X152172380Y-70290476D01*
X153124761Y-70290476D02*
X153172380Y-70195238D01*
X153172380Y-70004761D01*
X153124761Y-69909523D01*
X153077142Y-69861904D01*
X152981904Y-69814285D01*
X152696190Y-69814285D01*
X152600952Y-69861904D01*
X152553333Y-69909523D01*
X152505714Y-70004761D01*
X152505714Y-70195238D01*
X152553333Y-70290476D01*
X153172380Y-71195238D02*
X152172380Y-71195238D01*
X153124761Y-71195238D02*
X153172380Y-71100000D01*
X153172380Y-70909523D01*
X153124761Y-70814285D01*
X153077142Y-70766666D01*
X152981904Y-70719047D01*
X152696190Y-70719047D01*
X152600952Y-70766666D01*
X152553333Y-70814285D01*
X152505714Y-70909523D01*
X152505714Y-71100000D01*
X152553333Y-71195238D01*
X150592380Y-69745714D02*
X150592380Y-69174285D01*
X150592380Y-69460000D02*
X149592380Y-69460000D01*
X149735238Y-69364761D01*
X149830476Y-69269523D01*
X149878095Y-69174285D01*
X150068571Y-70507619D02*
X150116190Y-70650476D01*
X150163809Y-70698095D01*
X150259047Y-70745714D01*
X150401904Y-70745714D01*
X150497142Y-70698095D01*
X150544761Y-70650476D01*
X150592380Y-70555238D01*
X150592380Y-70174285D01*
X149592380Y-70174285D01*
X149592380Y-70507619D01*
X149640000Y-70602857D01*
X149687619Y-70650476D01*
X149782857Y-70698095D01*
X149878095Y-70698095D01*
X149973333Y-70650476D01*
X150020952Y-70602857D01*
X150068571Y-70507619D01*
X150068571Y-70174285D01*
X148122380Y-69917142D02*
X148122380Y-69345714D01*
X148122380Y-69631428D02*
X147122380Y-69631428D01*
X147265238Y-69536190D01*
X147360476Y-69440952D01*
X147408095Y-69345714D01*
X147836666Y-70298095D02*
X147836666Y-70774285D01*
X148122380Y-70202857D02*
X147122380Y-70536190D01*
X148122380Y-70869523D01*
X144507619Y-69415714D02*
X144460000Y-69463333D01*
X144412380Y-69558571D01*
X144412380Y-69796666D01*
X144460000Y-69891904D01*
X144507619Y-69939523D01*
X144602857Y-69987142D01*
X144698095Y-69987142D01*
X144840952Y-69939523D01*
X145412380Y-69368095D01*
X145412380Y-69987142D01*
X145126666Y-70368095D02*
X145126666Y-70844285D01*
X145412380Y-70272857D02*
X144412380Y-70606190D01*
X145412380Y-70939523D01*
X142097619Y-69314285D02*
X142050000Y-69361904D01*
X142002380Y-69457142D01*
X142002380Y-69695238D01*
X142050000Y-69790476D01*
X142097619Y-69838095D01*
X142192857Y-69885714D01*
X142288095Y-69885714D01*
X142430952Y-69838095D01*
X143002380Y-69266666D01*
X143002380Y-69885714D01*
X142478571Y-70647619D02*
X142526190Y-70790476D01*
X142573809Y-70838095D01*
X142669047Y-70885714D01*
X142811904Y-70885714D01*
X142907142Y-70838095D01*
X142954761Y-70790476D01*
X143002380Y-70695238D01*
X143002380Y-70314285D01*
X142002380Y-70314285D01*
X142002380Y-70647619D01*
X142050000Y-70742857D01*
X142097619Y-70790476D01*
X142192857Y-70838095D01*
X142288095Y-70838095D01*
X142383333Y-70790476D01*
X142430952Y-70742857D01*
X142478571Y-70647619D01*
X142478571Y-70314285D01*
X139570000Y-69368095D02*
X139522380Y-69272857D01*
X139522380Y-69130000D01*
X139570000Y-68987142D01*
X139665238Y-68891904D01*
X139760476Y-68844285D01*
X139950952Y-68796666D01*
X140093809Y-68796666D01*
X140284285Y-68844285D01*
X140379523Y-68891904D01*
X140474761Y-68987142D01*
X140522380Y-69130000D01*
X140522380Y-69225238D01*
X140474761Y-69368095D01*
X140427142Y-69415714D01*
X140093809Y-69415714D01*
X140093809Y-69225238D01*
X140522380Y-69844285D02*
X139522380Y-69844285D01*
X140522380Y-70415714D01*
X139522380Y-70415714D01*
X140522380Y-70891904D02*
X139522380Y-70891904D01*
X139522380Y-71130000D01*
X139570000Y-71272857D01*
X139665238Y-71368095D01*
X139760476Y-71415714D01*
X139950952Y-71463333D01*
X140093809Y-71463333D01*
X140284285Y-71415714D01*
X140379523Y-71368095D01*
X140474761Y-71272857D01*
X140522380Y-71130000D01*
X140522380Y-70891904D01*
X137012380Y-68461904D02*
X138012380Y-68795238D01*
X137012380Y-69128571D01*
X138012380Y-69461904D02*
X137345714Y-69461904D01*
X137440952Y-69461904D02*
X137393333Y-69509523D01*
X137345714Y-69604761D01*
X137345714Y-69747619D01*
X137393333Y-69842857D01*
X137488571Y-69890476D01*
X138012380Y-69890476D01*
X137488571Y-69890476D02*
X137393333Y-69938095D01*
X137345714Y-70033333D01*
X137345714Y-70176190D01*
X137393333Y-70271428D01*
X137488571Y-70319047D01*
X138012380Y-70319047D01*
X138012380Y-70938095D02*
X137964761Y-70842857D01*
X137917142Y-70795238D01*
X137821904Y-70747619D01*
X137536190Y-70747619D01*
X137440952Y-70795238D01*
X137393333Y-70842857D01*
X137345714Y-70938095D01*
X137345714Y-71080952D01*
X137393333Y-71176190D01*
X137440952Y-71223809D01*
X137536190Y-71271428D01*
X137821904Y-71271428D01*
X137917142Y-71223809D01*
X137964761Y-71176190D01*
X138012380Y-71080952D01*
X138012380Y-70938095D01*
X137345714Y-71557142D02*
X137345714Y-71938095D01*
X137012380Y-71700000D02*
X137869523Y-71700000D01*
X137964761Y-71747619D01*
X138012380Y-71842857D01*
X138012380Y-71938095D01*
X155852380Y-75980000D02*
X154852380Y-75980000D01*
X154852380Y-76218095D01*
X154900000Y-76360952D01*
X154995238Y-76456190D01*
X155090476Y-76503809D01*
X155280952Y-76551428D01*
X155423809Y-76551428D01*
X155614285Y-76503809D01*
X155709523Y-76456190D01*
X155804761Y-76360952D01*
X155852380Y-76218095D01*
X155852380Y-75980000D01*
X155852380Y-76980000D02*
X154852380Y-76980000D01*
X155852380Y-78027619D02*
X155376190Y-77694285D01*
X155852380Y-77456190D02*
X154852380Y-77456190D01*
X154852380Y-77837142D01*
X154900000Y-77932380D01*
X154947619Y-77980000D01*
X155042857Y-78027619D01*
X155185714Y-78027619D01*
X155280952Y-77980000D01*
X155328571Y-77932380D01*
X155376190Y-77837142D01*
X155376190Y-77456190D01*
X153124761Y-75360952D02*
X153172380Y-75503809D01*
X153172380Y-75741904D01*
X153124761Y-75837142D01*
X153077142Y-75884761D01*
X152981904Y-75932380D01*
X152886666Y-75932380D01*
X152791428Y-75884761D01*
X152743809Y-75837142D01*
X152696190Y-75741904D01*
X152648571Y-75551428D01*
X152600952Y-75456190D01*
X152553333Y-75408571D01*
X152458095Y-75360952D01*
X152362857Y-75360952D01*
X152267619Y-75408571D01*
X152220000Y-75456190D01*
X152172380Y-75551428D01*
X152172380Y-75789523D01*
X152220000Y-75932380D01*
X152172380Y-76218095D02*
X152172380Y-76789523D01*
X153172380Y-76503809D02*
X152172380Y-76503809D01*
X152648571Y-77122857D02*
X152648571Y-77456190D01*
X153172380Y-77599047D02*
X153172380Y-77122857D01*
X152172380Y-77122857D01*
X152172380Y-77599047D01*
X153172380Y-78027619D02*
X152172380Y-78027619D01*
X152172380Y-78408571D01*
X152220000Y-78503809D01*
X152267619Y-78551428D01*
X152362857Y-78599047D01*
X152505714Y-78599047D01*
X152600952Y-78551428D01*
X152648571Y-78503809D01*
X152696190Y-78408571D01*
X152696190Y-78027619D01*
X150654761Y-75759523D02*
X150702380Y-75902380D01*
X150702380Y-76140476D01*
X150654761Y-76235714D01*
X150607142Y-76283333D01*
X150511904Y-76330952D01*
X150416666Y-76330952D01*
X150321428Y-76283333D01*
X150273809Y-76235714D01*
X150226190Y-76140476D01*
X150178571Y-75950000D01*
X150130952Y-75854761D01*
X150083333Y-75807142D01*
X149988095Y-75759523D01*
X149892857Y-75759523D01*
X149797619Y-75807142D01*
X149750000Y-75854761D01*
X149702380Y-75950000D01*
X149702380Y-76188095D01*
X149750000Y-76330952D01*
X150702380Y-77235714D02*
X150702380Y-76759523D01*
X149702380Y-76759523D01*
X150702380Y-77569047D02*
X149702380Y-77569047D01*
X149702380Y-77950000D01*
X149750000Y-78045238D01*
X149797619Y-78092857D01*
X149892857Y-78140476D01*
X150035714Y-78140476D01*
X150130952Y-78092857D01*
X150178571Y-78045238D01*
X150226190Y-77950000D01*
X150226190Y-77569047D01*
X148292380Y-76402380D02*
X147816190Y-76069047D01*
X148292380Y-75830952D02*
X147292380Y-75830952D01*
X147292380Y-76211904D01*
X147340000Y-76307142D01*
X147387619Y-76354761D01*
X147482857Y-76402380D01*
X147625714Y-76402380D01*
X147720952Y-76354761D01*
X147768571Y-76307142D01*
X147816190Y-76211904D01*
X147816190Y-75830952D01*
X148244761Y-76783333D02*
X148292380Y-76926190D01*
X148292380Y-77164285D01*
X148244761Y-77259523D01*
X148197142Y-77307142D01*
X148101904Y-77354761D01*
X148006666Y-77354761D01*
X147911428Y-77307142D01*
X147863809Y-77259523D01*
X147816190Y-77164285D01*
X147768571Y-76973809D01*
X147720952Y-76878571D01*
X147673333Y-76830952D01*
X147578095Y-76783333D01*
X147482857Y-76783333D01*
X147387619Y-76830952D01*
X147340000Y-76878571D01*
X147292380Y-76973809D01*
X147292380Y-77211904D01*
X147340000Y-77354761D01*
X147292380Y-77640476D02*
X147292380Y-78211904D01*
X148292380Y-77926190D02*
X147292380Y-77926190D01*
X145642380Y-75594285D02*
X144642380Y-75594285D01*
X145356666Y-75927619D01*
X144642380Y-76260952D01*
X145642380Y-76260952D01*
X145594761Y-76689523D02*
X145642380Y-76832380D01*
X145642380Y-77070476D01*
X145594761Y-77165714D01*
X145547142Y-77213333D01*
X145451904Y-77260952D01*
X145356666Y-77260952D01*
X145261428Y-77213333D01*
X145213809Y-77165714D01*
X145166190Y-77070476D01*
X145118571Y-76880000D01*
X145070952Y-76784761D01*
X145023333Y-76737142D01*
X144928095Y-76689523D01*
X144832857Y-76689523D01*
X144737619Y-76737142D01*
X144690000Y-76784761D01*
X144642380Y-76880000D01*
X144642380Y-77118095D01*
X144690000Y-77260952D01*
X144642380Y-77594285D02*
X144642380Y-78213333D01*
X145023333Y-77880000D01*
X145023333Y-78022857D01*
X145070952Y-78118095D01*
X145118571Y-78165714D01*
X145213809Y-78213333D01*
X145451904Y-78213333D01*
X145547142Y-78165714D01*
X145594761Y-78118095D01*
X145642380Y-78022857D01*
X145642380Y-77737142D01*
X145594761Y-77641904D01*
X145547142Y-77594285D01*
X143132380Y-75694285D02*
X142132380Y-75694285D01*
X142846666Y-76027619D01*
X142132380Y-76360952D01*
X143132380Y-76360952D01*
X143084761Y-76789523D02*
X143132380Y-76932380D01*
X143132380Y-77170476D01*
X143084761Y-77265714D01*
X143037142Y-77313333D01*
X142941904Y-77360952D01*
X142846666Y-77360952D01*
X142751428Y-77313333D01*
X142703809Y-77265714D01*
X142656190Y-77170476D01*
X142608571Y-76980000D01*
X142560952Y-76884761D01*
X142513333Y-76837142D01*
X142418095Y-76789523D01*
X142322857Y-76789523D01*
X142227619Y-76837142D01*
X142180000Y-76884761D01*
X142132380Y-76980000D01*
X142132380Y-77218095D01*
X142180000Y-77360952D01*
X142227619Y-77741904D02*
X142180000Y-77789523D01*
X142132380Y-77884761D01*
X142132380Y-78122857D01*
X142180000Y-78218095D01*
X142227619Y-78265714D01*
X142322857Y-78313333D01*
X142418095Y-78313333D01*
X142560952Y-78265714D01*
X143132380Y-77694285D01*
X143132380Y-78313333D01*
X140622380Y-75694285D02*
X139622380Y-75694285D01*
X140336666Y-76027619D01*
X139622380Y-76360952D01*
X140622380Y-76360952D01*
X140574761Y-76789523D02*
X140622380Y-76932380D01*
X140622380Y-77170476D01*
X140574761Y-77265714D01*
X140527142Y-77313333D01*
X140431904Y-77360952D01*
X140336666Y-77360952D01*
X140241428Y-77313333D01*
X140193809Y-77265714D01*
X140146190Y-77170476D01*
X140098571Y-76980000D01*
X140050952Y-76884761D01*
X140003333Y-76837142D01*
X139908095Y-76789523D01*
X139812857Y-76789523D01*
X139717619Y-76837142D01*
X139670000Y-76884761D01*
X139622380Y-76980000D01*
X139622380Y-77218095D01*
X139670000Y-77360952D01*
X140622380Y-78313333D02*
X140622380Y-77741904D01*
X140622380Y-78027619D02*
X139622380Y-78027619D01*
X139765238Y-77932380D01*
X139860476Y-77837142D01*
X139908095Y-77741904D01*
M02*
