G04 #@! TF.GenerationSoftware,KiCad,Pcbnew,(5.1.4)-1*
G04 #@! TF.CreationDate,2019-11-27T23:22:20+05:00*
G04 #@! TF.ProjectId,speeduino_ntv650,73706565-6475-4696-9e6f-5f6e74763635,rev?*
G04 #@! TF.SameCoordinates,Original*
G04 #@! TF.FileFunction,Other,User*
%FSLAX46Y46*%
G04 Gerber Fmt 4.6, Leading zero omitted, Abs format (unit mm)*
G04 Created by KiCad (PCBNEW (5.1.4)-1) date 2019-11-27 23:22:20*
%MOMM*%
%LPD*%
G04 APERTURE LIST*
%ADD10C,0.100000*%
%ADD11C,0.150000*%
%ADD12C,0.050000*%
G04 APERTURE END LIST*
D10*
X110806666Y-38620000D02*
G75*
G03X110806666Y-38620000I-1666666J0D01*
G01*
X106640000Y-38620000D02*
X111640000Y-38620000D01*
X109140000Y-36120000D02*
X109140000Y-41120000D01*
X190016666Y-162490000D02*
G75*
G03X190016666Y-162490000I-1666666J0D01*
G01*
X185850000Y-162490000D02*
X190850000Y-162490000D01*
X188350000Y-159990000D02*
X188350000Y-164990000D01*
D11*
X184070000Y-155040000D02*
G75*
G03X184070000Y-155040000I-3000000J0D01*
G01*
D10*
X190286666Y-38760000D02*
G75*
G03X190286666Y-38760000I-1666666J0D01*
G01*
X186120000Y-38760000D02*
X191120000Y-38760000D01*
X188620000Y-36260000D02*
X188620000Y-41260000D01*
X111396666Y-162190000D02*
G75*
G03X111396666Y-162190000I-1666666J0D01*
G01*
X107230000Y-162190000D02*
X112230000Y-162190000D01*
X109730000Y-159690000D02*
X109730000Y-164690000D01*
D11*
X120070000Y-155040000D02*
G75*
G03X120070000Y-155040000I-3000000J0D01*
G01*
X184070000Y-46040000D02*
G75*
G03X184070000Y-46040000I-3000000J0D01*
G01*
X120070000Y-46040000D02*
G75*
G03X120070000Y-46040000I-3000000J0D01*
G01*
D10*
X112070000Y-160040000D02*
X112070000Y-41040000D01*
X186070000Y-160040000D02*
X112070000Y-160040000D01*
X186070000Y-41040000D02*
X186070000Y-160040000D01*
X112070000Y-41040000D02*
X186070000Y-41040000D01*
D12*
X124570000Y-114624000D02*
X124570000Y-112324000D01*
X120170000Y-112324000D02*
X124570000Y-112324000D01*
X120170000Y-114624000D02*
X120170000Y-112324000D01*
X124570000Y-114624000D02*
X120170000Y-114624000D01*
X124570000Y-121102000D02*
X124570000Y-118802000D01*
X120170000Y-118802000D02*
X124570000Y-118802000D01*
X120170000Y-121102000D02*
X120170000Y-118802000D01*
X124570000Y-121102000D02*
X120170000Y-121102000D01*
X125160000Y-51170000D02*
X112660000Y-51170000D01*
X125160000Y-55570000D02*
X112660000Y-55570000D01*
X112660000Y-55570000D02*
X112660000Y-51170000D01*
X125160000Y-55570000D02*
X125160000Y-51170000D01*
X182320000Y-100540000D02*
G75*
G03X182320000Y-100540000I-3250000J0D01*
G01*
X122320000Y-100540000D02*
G75*
G03X122320000Y-100540000I-3250000J0D01*
G01*
X182320000Y-140040000D02*
G75*
G03X182320000Y-140040000I-3250000J0D01*
G01*
X182320000Y-61040000D02*
G75*
G03X182320000Y-61040000I-3250000J0D01*
G01*
X122320000Y-61040000D02*
G75*
G03X122320000Y-61040000I-3250000J0D01*
G01*
X122320000Y-140040000D02*
G75*
G03X122320000Y-140040000I-3250000J0D01*
G01*
X121970000Y-50860000D02*
X176120000Y-50860000D01*
X121970000Y-32760000D02*
X121970000Y-50860000D01*
X176120000Y-32760000D02*
X121970000Y-32760000D01*
X176120000Y-50860000D02*
X176120000Y-32760000D01*
X150940000Y-95060000D02*
X150940000Y-84360000D01*
X150940000Y-84360000D02*
X141140000Y-84360000D01*
X141140000Y-84360000D02*
X141140000Y-95060000D01*
X141140000Y-95060000D02*
X150940000Y-95060000D01*
X141600000Y-147290000D02*
X136900000Y-147290000D01*
X141600000Y-147290000D02*
X141600000Y-145490000D01*
X136900000Y-145490000D02*
X136900000Y-147290000D01*
X136900000Y-145490000D02*
X141600000Y-145490000D01*
X136900000Y-126763000D02*
X141600000Y-126763000D01*
X136900000Y-126763000D02*
X136900000Y-128563000D01*
X141600000Y-128563000D02*
X141600000Y-126763000D01*
X141600000Y-128563000D02*
X136900000Y-128563000D01*
X140980000Y-55630000D02*
X137780000Y-55630000D01*
X137780000Y-55630000D02*
X137780000Y-60880000D01*
X137780000Y-60880000D02*
X140980000Y-60880000D01*
X140980000Y-60880000D02*
X140980000Y-55630000D01*
X145550000Y-55740000D02*
X142350000Y-55740000D01*
X142350000Y-55740000D02*
X142350000Y-60990000D01*
X142350000Y-60990000D02*
X145550000Y-60990000D01*
X145550000Y-60990000D02*
X145550000Y-55740000D01*
X118700000Y-127296000D02*
X114000000Y-127296000D01*
X118700000Y-127296000D02*
X118700000Y-125496000D01*
X114000000Y-125496000D02*
X114000000Y-127296000D01*
X114000000Y-125496000D02*
X118700000Y-125496000D01*
X118700000Y-133770000D02*
X114000000Y-133770000D01*
X118700000Y-133770000D02*
X118700000Y-131970000D01*
X114000000Y-131970000D02*
X114000000Y-133770000D01*
X114000000Y-131970000D02*
X118700000Y-131970000D01*
X157510000Y-90360000D02*
X157510000Y-95060000D01*
X157510000Y-90360000D02*
X155710000Y-90360000D01*
X155710000Y-95060000D02*
X157510000Y-95060000D01*
X155710000Y-95060000D02*
X155710000Y-90360000D01*
X170584000Y-95060000D02*
X170584000Y-90360000D01*
X170584000Y-95060000D02*
X172384000Y-95060000D01*
X172384000Y-90360000D02*
X170584000Y-90360000D01*
X172384000Y-90360000D02*
X172384000Y-95060000D01*
X173720000Y-142710000D02*
X169020000Y-142710000D01*
X173720000Y-142710000D02*
X173720000Y-140910000D01*
X169020000Y-140910000D02*
X169020000Y-142710000D01*
X169020000Y-140910000D02*
X173720000Y-140910000D01*
X173520000Y-148090000D02*
X168820000Y-148090000D01*
X173520000Y-148090000D02*
X173520000Y-146290000D01*
X168820000Y-146290000D02*
X168820000Y-148090000D01*
X168820000Y-146290000D02*
X173520000Y-146290000D01*
X136900000Y-117370000D02*
X141600000Y-117370000D01*
X136900000Y-117370000D02*
X136900000Y-119170000D01*
X141600000Y-119170000D02*
X141600000Y-117370000D01*
X141600000Y-119170000D02*
X136900000Y-119170000D01*
X136900000Y-122067000D02*
X141600000Y-122067000D01*
X136900000Y-122067000D02*
X136900000Y-123867000D01*
X141600000Y-123867000D02*
X141600000Y-122067000D01*
X141600000Y-123867000D02*
X136900000Y-123867000D01*
X114000000Y-106030000D02*
X118700000Y-106030000D01*
X114000000Y-106030000D02*
X114000000Y-107830000D01*
X118700000Y-107830000D02*
X118700000Y-106030000D01*
X118700000Y-107830000D02*
X114000000Y-107830000D01*
X141600000Y-133260000D02*
X136900000Y-133260000D01*
X141600000Y-133260000D02*
X141600000Y-131460000D01*
X136900000Y-131460000D02*
X136900000Y-133260000D01*
X136900000Y-131460000D02*
X141600000Y-131460000D01*
X136900000Y-136157000D02*
X141600000Y-136157000D01*
X136900000Y-136157000D02*
X136900000Y-137957000D01*
X141600000Y-137957000D02*
X141600000Y-136157000D01*
X141600000Y-137957000D02*
X136900000Y-137957000D01*
X120370000Y-106110000D02*
X125070000Y-106110000D01*
X120370000Y-106110000D02*
X120370000Y-107910000D01*
X125070000Y-107910000D02*
X125070000Y-106110000D01*
X125070000Y-107910000D02*
X120370000Y-107910000D01*
X153550000Y-121780000D02*
X158250000Y-121780000D01*
X153550000Y-121780000D02*
X153550000Y-123580000D01*
X158250000Y-123580000D02*
X158250000Y-121780000D01*
X158250000Y-123580000D02*
X153550000Y-123580000D01*
X155550000Y-89110000D02*
X155550000Y-84410000D01*
X155550000Y-89110000D02*
X157350000Y-89110000D01*
X157350000Y-84410000D02*
X155550000Y-84410000D01*
X157350000Y-84410000D02*
X157350000Y-89110000D01*
X174940000Y-113850000D02*
X174940000Y-118550000D01*
X174940000Y-113850000D02*
X173140000Y-113850000D01*
X173140000Y-118550000D02*
X174940000Y-118550000D01*
X173140000Y-118550000D02*
X173140000Y-113850000D01*
X180180000Y-113920000D02*
X180180000Y-118620000D01*
X180180000Y-113920000D02*
X178380000Y-113920000D01*
X178380000Y-118620000D02*
X180180000Y-118620000D01*
X178380000Y-118620000D02*
X178380000Y-113920000D01*
X178020000Y-110460000D02*
X178020000Y-105760000D01*
X178020000Y-110460000D02*
X179820000Y-110460000D01*
X179820000Y-105760000D02*
X178020000Y-105760000D01*
X179820000Y-105760000D02*
X179820000Y-110460000D01*
X180520000Y-89050000D02*
X180520000Y-84350000D01*
X180520000Y-89050000D02*
X182320000Y-89050000D01*
X182320000Y-84350000D02*
X180520000Y-84350000D01*
X182320000Y-84350000D02*
X182320000Y-89050000D01*
X151740000Y-59600000D02*
X151740000Y-54900000D01*
X151740000Y-59600000D02*
X153540000Y-59600000D01*
X153540000Y-54900000D02*
X151740000Y-54900000D01*
X153540000Y-54900000D02*
X153540000Y-59600000D01*
X173360000Y-110560000D02*
X173360000Y-105860000D01*
X173360000Y-110560000D02*
X175160000Y-110560000D01*
X175160000Y-105860000D02*
X173360000Y-105860000D01*
X175160000Y-105860000D02*
X175160000Y-110560000D01*
X153825000Y-135720000D02*
X158525000Y-135720000D01*
X153825000Y-135720000D02*
X153825000Y-137520000D01*
X158525000Y-137520000D02*
X158525000Y-135720000D01*
X158525000Y-137520000D02*
X153825000Y-137520000D01*
X155792000Y-59600000D02*
X155792000Y-54900000D01*
X155792000Y-59600000D02*
X157592000Y-59600000D01*
X157592000Y-54900000D02*
X155792000Y-54900000D01*
X157592000Y-54900000D02*
X157592000Y-59600000D01*
X125120000Y-127280000D02*
X120420000Y-127280000D01*
X125120000Y-127280000D02*
X125120000Y-125480000D01*
X120420000Y-125480000D02*
X120420000Y-127280000D01*
X120420000Y-125480000D02*
X125120000Y-125480000D01*
X125070000Y-133790000D02*
X120370000Y-133790000D01*
X125070000Y-133790000D02*
X125070000Y-131990000D01*
X120370000Y-131990000D02*
X120370000Y-133790000D01*
X120370000Y-131990000D02*
X125070000Y-131990000D01*
X118700000Y-114324000D02*
X114000000Y-114324000D01*
X118700000Y-114324000D02*
X118700000Y-112524000D01*
X114000000Y-112524000D02*
X114000000Y-114324000D01*
X114000000Y-112524000D02*
X118700000Y-112524000D01*
X118700000Y-120802000D02*
X114000000Y-120802000D01*
X118700000Y-120802000D02*
X118700000Y-119002000D01*
X114000000Y-119002000D02*
X114000000Y-120802000D01*
X114000000Y-119002000D02*
X118700000Y-119002000D01*
X131650000Y-74810000D02*
X131650000Y-79310000D01*
X131650000Y-74810000D02*
X129900000Y-74810000D01*
X129900000Y-79310000D02*
X131650000Y-79310000D01*
X129900000Y-79310000D02*
X129900000Y-74810000D01*
X160570000Y-88850000D02*
X160570000Y-84350000D01*
X160570000Y-88850000D02*
X162320000Y-88850000D01*
X162320000Y-84350000D02*
X160570000Y-84350000D01*
X162320000Y-84350000D02*
X162320000Y-88850000D01*
X158325000Y-128310000D02*
X153825000Y-128310000D01*
X158325000Y-128310000D02*
X158325000Y-126560000D01*
X153825000Y-126560000D02*
X153825000Y-128310000D01*
X153825000Y-126560000D02*
X158325000Y-126560000D01*
X160698000Y-95060000D02*
X160698000Y-90560000D01*
X160698000Y-95060000D02*
X162448000Y-95060000D01*
X162448000Y-90560000D02*
X160698000Y-90560000D01*
X162448000Y-90560000D02*
X162448000Y-95060000D01*
X175110000Y-121480000D02*
X175110000Y-125980000D01*
X175110000Y-121480000D02*
X173360000Y-121480000D01*
X173360000Y-125980000D02*
X175110000Y-125980000D01*
X173360000Y-125980000D02*
X173360000Y-121480000D01*
X174640000Y-129580000D02*
X179140000Y-129580000D01*
X174640000Y-129580000D02*
X174640000Y-131330000D01*
X179140000Y-131330000D02*
X179140000Y-129580000D01*
X179140000Y-131330000D02*
X174640000Y-131330000D01*
X177300000Y-84350000D02*
X177300000Y-88850000D01*
X177300000Y-84350000D02*
X175550000Y-84350000D01*
X175550000Y-88850000D02*
X177300000Y-88850000D01*
X175550000Y-88850000D02*
X175550000Y-84350000D01*
X153380000Y-62880000D02*
X148880000Y-62880000D01*
X153380000Y-62880000D02*
X153380000Y-61130000D01*
X148880000Y-61130000D02*
X148880000Y-62880000D01*
X148880000Y-61130000D02*
X153380000Y-61130000D01*
X158325000Y-132960000D02*
X153825000Y-132960000D01*
X158325000Y-132960000D02*
X158325000Y-131210000D01*
X153825000Y-131210000D02*
X153825000Y-132960000D01*
X153825000Y-131210000D02*
X158325000Y-131210000D01*
X182260000Y-90560000D02*
X182260000Y-95060000D01*
X182260000Y-90560000D02*
X180510000Y-90560000D01*
X180510000Y-95060000D02*
X182260000Y-95060000D01*
X180510000Y-95060000D02*
X180510000Y-90560000D01*
X153825000Y-140430000D02*
X158325000Y-140430000D01*
X153825000Y-140430000D02*
X153825000Y-142180000D01*
X158325000Y-142180000D02*
X158325000Y-140430000D01*
X158325000Y-142180000D02*
X153825000Y-142180000D01*
X179980000Y-121570000D02*
X179980000Y-126070000D01*
X179980000Y-121570000D02*
X178230000Y-121570000D01*
X178230000Y-126070000D02*
X179980000Y-126070000D01*
X178230000Y-126070000D02*
X178230000Y-121570000D01*
X172330000Y-84350000D02*
X172330000Y-88850000D01*
X172330000Y-84350000D02*
X170580000Y-84350000D01*
X170580000Y-88850000D02*
X172330000Y-88850000D01*
X170580000Y-88850000D02*
X170580000Y-84350000D01*
X153825000Y-145350000D02*
X158325000Y-145350000D01*
X153825000Y-145350000D02*
X153825000Y-147100000D01*
X158325000Y-147100000D02*
X158325000Y-145350000D01*
X158325000Y-147100000D02*
X153825000Y-147100000D01*
X177322000Y-90560000D02*
X177322000Y-95060000D01*
X177322000Y-90560000D02*
X175572000Y-90560000D01*
X175572000Y-95060000D02*
X177322000Y-95060000D01*
X175572000Y-95060000D02*
X175572000Y-90560000D01*
X165696000Y-54900000D02*
X165696000Y-59600000D01*
X165696000Y-54900000D02*
X163896000Y-54900000D01*
X163896000Y-59600000D02*
X165696000Y-59600000D01*
X163896000Y-59600000D02*
X163896000Y-54900000D01*
X161644000Y-54900000D02*
X161644000Y-59600000D01*
X161644000Y-54900000D02*
X159844000Y-54900000D01*
X159844000Y-59600000D02*
X161644000Y-59600000D01*
X159844000Y-59600000D02*
X159844000Y-54900000D01*
X169748000Y-54900000D02*
X169748000Y-59600000D01*
X169748000Y-54900000D02*
X167948000Y-54900000D01*
X167948000Y-59600000D02*
X169748000Y-59600000D01*
X167948000Y-59600000D02*
X167948000Y-54900000D01*
X173800000Y-54900000D02*
X173800000Y-59600000D01*
X173800000Y-54900000D02*
X172000000Y-54900000D01*
X172000000Y-59600000D02*
X173800000Y-59600000D01*
X172000000Y-59600000D02*
X172000000Y-54900000D01*
X180640000Y-72120000D02*
X180640000Y-76820000D01*
X180640000Y-72120000D02*
X178840000Y-72120000D01*
X178840000Y-76820000D02*
X180640000Y-76820000D01*
X178840000Y-76820000D02*
X178840000Y-72120000D01*
X167350000Y-84350000D02*
X167350000Y-89050000D01*
X167350000Y-84350000D02*
X165550000Y-84350000D01*
X165550000Y-89050000D02*
X167350000Y-89050000D01*
X165550000Y-89050000D02*
X165550000Y-84350000D01*
X166480000Y-70810000D02*
X166480000Y-76460000D01*
X173880000Y-70810000D02*
X173880000Y-76460000D01*
X166480000Y-70810000D02*
X173880000Y-70810000D01*
X166480000Y-76460000D02*
X173880000Y-76460000D01*
X161300000Y-61360000D02*
X165800000Y-61360000D01*
X161300000Y-61360000D02*
X161300000Y-63110000D01*
X165800000Y-63110000D02*
X165800000Y-61360000D01*
X165800000Y-63110000D02*
X161300000Y-63110000D01*
X173700000Y-63120000D02*
X169200000Y-63120000D01*
X173700000Y-63120000D02*
X173700000Y-61370000D01*
X169200000Y-61370000D02*
X169200000Y-63120000D01*
X169200000Y-61370000D02*
X173700000Y-61370000D01*
X136900000Y-140843000D02*
X141400000Y-140843000D01*
X136900000Y-140843000D02*
X136900000Y-142593000D01*
X141400000Y-142593000D02*
X141400000Y-140843000D01*
X141400000Y-142593000D02*
X136900000Y-142593000D01*
X167396000Y-90560000D02*
X167396000Y-95060000D01*
X167396000Y-90560000D02*
X165646000Y-90560000D01*
X165646000Y-95060000D02*
X167396000Y-95060000D01*
X165646000Y-95060000D02*
X165646000Y-90560000D01*
X124040000Y-72540000D02*
X124040000Y-66640000D01*
X124040000Y-66640000D02*
X114390000Y-66640000D01*
X114390000Y-66640000D02*
X114390000Y-72540000D01*
X114390000Y-72540000D02*
X124040000Y-72540000D01*
X131640000Y-64410000D02*
X127740000Y-64410000D01*
X127740000Y-64410000D02*
X127740000Y-72610000D01*
X127740000Y-72610000D02*
X131640000Y-72610000D01*
X131640000Y-72610000D02*
X131640000Y-64410000D01*
X114530000Y-82770000D02*
X114530000Y-73370000D01*
X114530000Y-82770000D02*
X121330000Y-82770000D01*
X121330000Y-73370000D02*
X114530000Y-73370000D01*
X121330000Y-73370000D02*
X121330000Y-82770000D01*
X128100000Y-74840000D02*
X128100000Y-82740000D01*
X128100000Y-74840000D02*
X122570000Y-74840000D01*
X122570000Y-82740000D02*
X128100000Y-82740000D01*
X122570000Y-82740000D02*
X122570000Y-74840000D01*
X131710000Y-62630000D02*
X131710000Y-52130000D01*
X126800000Y-62630000D02*
X131710000Y-62630000D01*
X126800000Y-52130000D02*
X126800000Y-62630000D01*
X131710000Y-52130000D02*
X126800000Y-52130000D01*
X135700000Y-95060000D02*
X135700000Y-84560000D01*
X130790000Y-95060000D02*
X135700000Y-95060000D01*
X130790000Y-84560000D02*
X130790000Y-95060000D01*
X135700000Y-84560000D02*
X130790000Y-84560000D01*
X127980000Y-95060000D02*
X127980000Y-84560000D01*
X123070000Y-95060000D02*
X127980000Y-95060000D01*
X123070000Y-84560000D02*
X123070000Y-95060000D01*
X127980000Y-84560000D02*
X123070000Y-84560000D01*
X120220000Y-95060000D02*
X120220000Y-84560000D01*
X115310000Y-95060000D02*
X120220000Y-95060000D01*
X115310000Y-84560000D02*
X115310000Y-95060000D01*
X120220000Y-84560000D02*
X115310000Y-84560000D01*
X145552000Y-116108000D02*
X153052000Y-116108000D01*
X145552000Y-110608000D02*
X153052000Y-110608000D01*
X153052000Y-110608000D02*
X153052000Y-116108000D01*
X145552000Y-110608000D02*
X145552000Y-116108000D01*
M02*
