G04 #@! TF.GenerationSoftware,KiCad,Pcbnew,(5.1.4)-1*
G04 #@! TF.CreationDate,2019-11-27T23:22:20+05:00*
G04 #@! TF.ProjectId,speeduino_ntv650,73706565-6475-4696-9e6f-5f6e74763635,rev?*
G04 #@! TF.SameCoordinates,Original*
G04 #@! TF.FileFunction,Copper,L2,Bot*
G04 #@! TF.FilePolarity,Positive*
%FSLAX46Y46*%
G04 Gerber Fmt 4.6, Leading zero omitted, Abs format (unit mm)*
G04 Created by KiCad (PCBNEW (5.1.4)-1) date 2019-11-27 23:22:20*
%MOMM*%
%LPD*%
G04 APERTURE LIST*
%ADD10C,0.100000*%
%ADD11C,0.150000*%
%ADD12C,1.800000*%
%ADD13C,6.000000*%
%ADD14C,4.000000*%
%ADD15C,1.600000*%
%ADD16R,1.600000X1.600000*%
%ADD17O,1.600000X1.600000*%
%ADD18R,2.600000X2.600000*%
%ADD19O,2.600000X2.600000*%
%ADD20R,2.200000X2.200000*%
%ADD21O,2.200000X2.200000*%
%ADD22C,1.524000*%
%ADD23O,1.800000X1.800000*%
%ADD24R,1.800000X1.800000*%
%ADD25R,1.900000X1.900000*%
%ADD26C,1.900000*%
%ADD27C,0.800000*%
%ADD28C,0.600000*%
%ADD29C,0.800000*%
%ADD30C,1.000000*%
G04 APERTURE END LIST*
D10*
X110806666Y-38620000D02*
G75*
G03X110806666Y-38620000I-1666666J0D01*
G01*
X106640000Y-38620000D02*
X111640000Y-38620000D01*
X109140000Y-36120000D02*
X109140000Y-41120000D01*
X190016666Y-162490000D02*
G75*
G03X190016666Y-162490000I-1666666J0D01*
G01*
X185850000Y-162490000D02*
X190850000Y-162490000D01*
X188350000Y-159990000D02*
X188350000Y-164990000D01*
D11*
X184070000Y-155040000D02*
G75*
G03X184070000Y-155040000I-3000000J0D01*
G01*
D10*
X190286666Y-38760000D02*
G75*
G03X190286666Y-38760000I-1666666J0D01*
G01*
X186120000Y-38760000D02*
X191120000Y-38760000D01*
X188620000Y-36260000D02*
X188620000Y-41260000D01*
X111396666Y-162190000D02*
G75*
G03X111396666Y-162190000I-1666666J0D01*
G01*
X107230000Y-162190000D02*
X112230000Y-162190000D01*
X109730000Y-159690000D02*
X109730000Y-164690000D01*
D11*
X120070000Y-155040000D02*
G75*
G03X120070000Y-155040000I-3000000J0D01*
G01*
X184070000Y-46040000D02*
G75*
G03X184070000Y-46040000I-3000000J0D01*
G01*
X120070000Y-46040000D02*
G75*
G03X120070000Y-46040000I-3000000J0D01*
G01*
D10*
X112070000Y-160040000D02*
X112070000Y-41040000D01*
X186070000Y-160040000D02*
X112070000Y-160040000D01*
X186070000Y-41040000D02*
X186070000Y-160040000D01*
X112070000Y-41040000D02*
X186070000Y-41040000D01*
D12*
X122660000Y-54070000D03*
X115160000Y-52670000D03*
D13*
X179070000Y-100540000D03*
X119070000Y-100540000D03*
X179070000Y-140040000D03*
X179070000Y-61040000D03*
X119070000Y-61040000D03*
X119070000Y-140040000D03*
D14*
X125490000Y-47310000D03*
X172590000Y-47310000D03*
D15*
X164275000Y-44770000D03*
X161505000Y-44770000D03*
X158735000Y-44770000D03*
X155965000Y-44770000D03*
X153195000Y-44770000D03*
X150425000Y-44770000D03*
X147655000Y-44770000D03*
X144885000Y-44770000D03*
X142115000Y-44770000D03*
X139345000Y-44770000D03*
X136575000Y-44770000D03*
X133805000Y-44770000D03*
X165660000Y-47610000D03*
X162890000Y-47610000D03*
X160120000Y-47610000D03*
X157350000Y-47610000D03*
X154580000Y-47610000D03*
X151810000Y-47610000D03*
X149040000Y-47610000D03*
X146270000Y-47610000D03*
X143500000Y-47610000D03*
X140730000Y-47610000D03*
X137960000Y-47610000D03*
X135190000Y-47610000D03*
D16*
X132420000Y-47610000D03*
X149840000Y-93510000D03*
D17*
X142220000Y-85890000D03*
X149840000Y-90970000D03*
X142220000Y-88430000D03*
X149840000Y-88430000D03*
X142220000Y-90970000D03*
X149840000Y-85890000D03*
X142220000Y-93510000D03*
D15*
X139380000Y-57230000D03*
D17*
X139380000Y-59770000D03*
D15*
X143950000Y-57340000D03*
D17*
X143950000Y-59880000D03*
D18*
X122390000Y-69590000D03*
D19*
X117310000Y-69590000D03*
D20*
X129690000Y-65860000D03*
D21*
X129690000Y-70940000D03*
D22*
X132605000Y-106645000D03*
X130065000Y-106645000D03*
X132605000Y-109185000D03*
X132605000Y-111725000D03*
X132605000Y-114265000D03*
X132605000Y-116805000D03*
X130065000Y-109185000D03*
X130065000Y-111725000D03*
X130065000Y-114265000D03*
X130065000Y-116805000D03*
X132605000Y-119345000D03*
X132605000Y-121885000D03*
X132605000Y-124425000D03*
X132605000Y-126965000D03*
X132605000Y-129505000D03*
X132605000Y-132045000D03*
X132605000Y-134585000D03*
X132605000Y-137125000D03*
X132605000Y-139665000D03*
X132605000Y-142205000D03*
X132605000Y-144745000D03*
X132605000Y-147285000D03*
X132605000Y-149825000D03*
X132605000Y-152365000D03*
X132605000Y-154905000D03*
X130065000Y-119345000D03*
X130065000Y-121885000D03*
X130065000Y-124425000D03*
X130065000Y-126965000D03*
X130065000Y-129505000D03*
X130065000Y-132045000D03*
X130065000Y-134585000D03*
X130065000Y-137125000D03*
X130065000Y-139665000D03*
X130065000Y-142205000D03*
X130065000Y-144745000D03*
X130065000Y-147285000D03*
X130065000Y-149825000D03*
X130065000Y-152365000D03*
X130065000Y-154905000D03*
X142765000Y-154905000D03*
X145305000Y-154905000D03*
X147845000Y-154905000D03*
X147845000Y-152365000D03*
X145305000Y-152365000D03*
X142765000Y-152365000D03*
X155465000Y-152365000D03*
X158005000Y-152365000D03*
X160545000Y-152365000D03*
X163085000Y-152365000D03*
X165625000Y-152365000D03*
X155465000Y-154905000D03*
X158005000Y-154905000D03*
X160545000Y-154905000D03*
X163085000Y-154905000D03*
X165625000Y-154905000D03*
X163085000Y-149815000D03*
X163085000Y-147275000D03*
X163085000Y-144735000D03*
X163085000Y-142195000D03*
X163085000Y-139655000D03*
X163085000Y-137115000D03*
X163085000Y-134575000D03*
X163085000Y-132035000D03*
X163085000Y-129495000D03*
X163085000Y-126955000D03*
X163085000Y-124415000D03*
X163085000Y-121875000D03*
X163085000Y-119335000D03*
X163085000Y-116795000D03*
X165625000Y-116795000D03*
X165625000Y-119335000D03*
X165625000Y-121875000D03*
X165625000Y-124415000D03*
X165625000Y-126955000D03*
X165625000Y-129495000D03*
X165625000Y-132035000D03*
X165625000Y-134575000D03*
X165625000Y-137115000D03*
X165625000Y-139655000D03*
X165625000Y-142195000D03*
X165625000Y-144735000D03*
X165625000Y-147275000D03*
X165625000Y-149815000D03*
X144445000Y-106645000D03*
X146985000Y-106645000D03*
X149525000Y-106645000D03*
X152065000Y-106645000D03*
X154605000Y-106645000D03*
D23*
X128960000Y-59920000D03*
X128960000Y-57380000D03*
D24*
X128960000Y-54840000D03*
D23*
X132950000Y-92350000D03*
X132950000Y-89810000D03*
D24*
X132950000Y-87270000D03*
D23*
X125230000Y-92350000D03*
X125230000Y-89810000D03*
D24*
X125230000Y-87270000D03*
D23*
X117470000Y-92350000D03*
X117470000Y-89810000D03*
D24*
X117470000Y-87270000D03*
D25*
X160250000Y-67510000D03*
D26*
X157710000Y-67510000D03*
X155170000Y-67510000D03*
X152630000Y-67510000D03*
X150090000Y-67510000D03*
X147550000Y-67510000D03*
D25*
X145010000Y-67510000D03*
D26*
X142470000Y-67510000D03*
X160250000Y-80210000D03*
X157710000Y-80210000D03*
X155170000Y-80210000D03*
X152630000Y-80210000D03*
X150090000Y-80210000D03*
X147550000Y-80210000D03*
X145010000Y-80210000D03*
X142470000Y-80210000D03*
D27*
X154371000Y-143023100D03*
X153477100Y-111632000D03*
X153699800Y-84468300D03*
X115594600Y-104249600D03*
X161110900Y-110277600D03*
X172689600Y-118090500D03*
X169606400Y-121240400D03*
X173282800Y-111252100D03*
X159393200Y-115646100D03*
X174534900Y-89852800D03*
X156975800Y-113029200D03*
X155859700Y-119893800D03*
X155516000Y-114104100D03*
X165068300Y-66715400D03*
X172837100Y-92626700D03*
X169826600Y-74602100D03*
X167857900Y-94159800D03*
X145126900Y-113824700D03*
X134005500Y-102850300D03*
X163300200Y-80547700D03*
X137167100Y-126312900D03*
X153904200Y-54767500D03*
X171224000Y-51797600D03*
X140636000Y-70150900D03*
X145498600Y-117463200D03*
X160252900Y-93587800D03*
X158864700Y-86451000D03*
X139006900Y-70548800D03*
X152549600Y-94707000D03*
X136250200Y-87251900D03*
X116709900Y-128639200D03*
X116759000Y-122439500D03*
X136787900Y-75804700D03*
X164828900Y-54299300D03*
X168202300Y-54449500D03*
D28*
X142470000Y-80210000D02*
X144238900Y-78575100D01*
X144238900Y-78575100D02*
X144396200Y-78509900D01*
X144396200Y-78509900D02*
X145623800Y-78509900D01*
X145623800Y-78509900D02*
X160863800Y-78509900D01*
X160863800Y-78509900D02*
X161021100Y-78575100D01*
X161021100Y-78575100D02*
X161884900Y-79438900D01*
X161884900Y-79438900D02*
X161950100Y-79596200D01*
X161950100Y-79596200D02*
X161950100Y-80823800D01*
X161950100Y-80823800D02*
X161884900Y-80981100D01*
X161884900Y-80981100D02*
X161021100Y-81844900D01*
X161021100Y-81844900D02*
X160863800Y-81910100D01*
X160863800Y-81910100D02*
X152986600Y-82268100D01*
X152986600Y-82268100D02*
X152645400Y-82409400D01*
X152645400Y-82409400D02*
X151640900Y-83413900D01*
X151640900Y-83413900D02*
X151499600Y-83755100D01*
X151499600Y-83755100D02*
X151499600Y-85181500D01*
X151499600Y-85181500D02*
X153699700Y-94230600D01*
X153699700Y-94230600D02*
X153699700Y-95183400D01*
X153699700Y-95183400D02*
X153026000Y-95857100D01*
X153026000Y-95857100D02*
X142533200Y-103446000D01*
X142533200Y-103446000D02*
X141246000Y-104733200D01*
X141246000Y-104733200D02*
X141137300Y-104914500D01*
X141137300Y-104914500D02*
X140884200Y-105525100D01*
X140884200Y-105525100D02*
X140832700Y-105730100D01*
X140832700Y-105730100D02*
X138317200Y-126789300D01*
X138317200Y-126789300D02*
X134080500Y-135249600D01*
X134080500Y-135249600D02*
X132605000Y-137125000D01*
X145010000Y-80210000D02*
X140712200Y-85203900D01*
X140712200Y-85203900D02*
X140669900Y-85306100D01*
X140669900Y-85306100D02*
X137403800Y-93765100D01*
X137403800Y-93765100D02*
X137097800Y-94503400D01*
X137097800Y-94503400D02*
X136894000Y-94843300D01*
X136894000Y-94843300D02*
X127700100Y-105384200D01*
X127700100Y-105384200D02*
X127697800Y-105387900D01*
X127697800Y-105387900D02*
X127503900Y-105855700D01*
X127503900Y-105855700D02*
X127502800Y-105859900D01*
X127502800Y-105859900D02*
X127502800Y-123639900D01*
X127502800Y-123639900D02*
X127502800Y-125210100D01*
X127502800Y-125210100D02*
X128552900Y-135161400D01*
X128552900Y-135161400D02*
X128589500Y-135249600D01*
X128589500Y-135249600D02*
X130065000Y-137125000D01*
D29*
X130065000Y-106645000D02*
X130899100Y-106159500D01*
X130899100Y-106159500D02*
X131230900Y-106159500D01*
X131230900Y-106159500D02*
X131805900Y-106184400D01*
X131805900Y-106184400D02*
X132605000Y-106645000D01*
X147550000Y-80210000D02*
X143812500Y-86632800D01*
X143812500Y-86632800D02*
X142220000Y-88430000D01*
X147550000Y-80210000D02*
X150090000Y-80210000D01*
X142220000Y-88430000D02*
X140627500Y-90227200D01*
X140627500Y-90227200D02*
X140569900Y-90366200D01*
X140569900Y-90366200D02*
X135255600Y-103368100D01*
X135255600Y-103368100D02*
X132605000Y-106645000D01*
X154371000Y-143023100D02*
X153215800Y-114837200D01*
X153215800Y-114837200D02*
X153215800Y-113371000D01*
X153215800Y-113371000D02*
X153477100Y-111632000D01*
X122390000Y-69590000D02*
X123290000Y-70490000D01*
X123290000Y-70490000D02*
X123690000Y-70490000D01*
X123690000Y-70490000D02*
X123855700Y-70490000D01*
X123855700Y-70490000D02*
X128777300Y-72786900D01*
X128777300Y-72786900D02*
X129026500Y-72890100D01*
X129026500Y-72890100D02*
X130353500Y-72890100D01*
X130353500Y-72890100D02*
X130602700Y-72786900D01*
X130602700Y-72786900D02*
X138434100Y-69210600D01*
X138434100Y-69210600D02*
X138462800Y-69198700D01*
X138462800Y-69198700D02*
X140118200Y-68900800D01*
X140118200Y-68900800D02*
X141153800Y-68900800D01*
X141153800Y-68900800D02*
X141642300Y-69229700D01*
X141642300Y-69229700D02*
X141836400Y-69310100D01*
X141836400Y-69310100D02*
X145607900Y-69310100D01*
X145607900Y-69310100D02*
X146312100Y-69310100D01*
X146312100Y-69310100D02*
X155803600Y-69310100D01*
X155803600Y-69310100D02*
X157501800Y-69158000D01*
X157710000Y-67510000D02*
X157501800Y-69158000D01*
X157501800Y-69158000D02*
X170344400Y-73352000D01*
X170344400Y-73352000D02*
X171076700Y-74084300D01*
X171076700Y-74084300D02*
X171076700Y-75119900D01*
X171076700Y-75119900D02*
X169108000Y-94677600D01*
X169108000Y-94677600D02*
X157883400Y-108618800D01*
X157883400Y-108618800D02*
X156578800Y-109923400D01*
X156578800Y-109923400D02*
X156380600Y-110042200D01*
X156380600Y-110042200D02*
X153477100Y-111632000D01*
D28*
X153699800Y-84468300D02*
X155799900Y-93836900D01*
X155799900Y-93836900D02*
X155799900Y-95577100D01*
X155799900Y-95577100D02*
X155765800Y-95712900D01*
X155765800Y-95712900D02*
X155533000Y-96274300D01*
X155533000Y-96274300D02*
X155461100Y-96394400D01*
X155461100Y-96394400D02*
X154237000Y-97618500D01*
X154237000Y-97618500D02*
X143780400Y-105169500D01*
X143780400Y-105169500D02*
X142969500Y-105980400D01*
X142969500Y-105980400D02*
X142932900Y-106068600D01*
X142932900Y-106068600D02*
X140417400Y-127183000D01*
X140417400Y-127183000D02*
X140383300Y-127318800D01*
X140383300Y-127318800D02*
X134117100Y-145321400D01*
X134117100Y-145321400D02*
X134080500Y-145409600D01*
X134080500Y-145409600D02*
X132605000Y-147285000D01*
D29*
X115594600Y-104249600D02*
X115219900Y-101484300D01*
X115219900Y-101484300D02*
X115219900Y-99595700D01*
X115219900Y-99595700D02*
X115719900Y-86017900D01*
X115719900Y-86017900D02*
X120239900Y-67937900D01*
X120239900Y-67937900D02*
X120737900Y-67439900D01*
X120737900Y-67439900D02*
X122692200Y-66494200D01*
X142470000Y-67510000D02*
X139863100Y-67650700D01*
X139863100Y-67650700D02*
X138217100Y-67948600D01*
X138217100Y-67948600D02*
X138205600Y-67951500D01*
X138205600Y-67951500D02*
X129690000Y-70940000D01*
X136575000Y-44770000D02*
X135190000Y-47610000D01*
X122660000Y-54070000D02*
X122920100Y-60095700D01*
X122920100Y-60095700D02*
X122920100Y-61984300D01*
X122920100Y-61984300D02*
X122692200Y-66494200D01*
X129690000Y-70940000D02*
X122692200Y-66494200D01*
X132605000Y-109185000D02*
X134165300Y-107366300D01*
X134165300Y-107366300D02*
X148247500Y-90227200D01*
X148247500Y-90227200D02*
X149840000Y-88430000D01*
X117470000Y-92350000D02*
X125230000Y-92350000D01*
X145010000Y-67510000D02*
X144460000Y-66960000D01*
X144460000Y-66960000D02*
X144460000Y-66560000D01*
X144460000Y-66560000D02*
X144460000Y-66394300D01*
X144460000Y-66394300D02*
X144225700Y-66160000D01*
X144225700Y-66160000D02*
X128960000Y-57380000D01*
X123748300Y-51529000D02*
X125490000Y-47310000D01*
X117310000Y-69590000D02*
X115282800Y-62234700D01*
X115282800Y-62234700D02*
X115219900Y-61984300D01*
X115219900Y-61984300D02*
X115160000Y-52670000D01*
X128960000Y-57380000D02*
X127707900Y-56590100D01*
X127707900Y-56590100D02*
X127209900Y-56092100D01*
X127209900Y-56092100D02*
X123748300Y-51529000D01*
X125230000Y-92350000D02*
X132950000Y-92350000D01*
X158735000Y-44770000D02*
X155965000Y-44770000D01*
X133805000Y-44770000D02*
X132820000Y-46644300D01*
X132820000Y-46644300D02*
X132820000Y-46810000D01*
X132820000Y-46810000D02*
X132820000Y-47210000D01*
X132820000Y-47210000D02*
X132420000Y-47610000D01*
X160250000Y-67510000D02*
X160800000Y-66960000D01*
X160800000Y-66960000D02*
X161200000Y-66960000D01*
X161200000Y-66960000D02*
X161365700Y-66960000D01*
X161365700Y-66960000D02*
X170602700Y-58274500D01*
X170602700Y-58274500D02*
X172027300Y-56849900D01*
X172027300Y-56849900D02*
X172215800Y-56535300D01*
X172215800Y-56535300D02*
X172513400Y-55817400D01*
X172513400Y-55817400D02*
X173524200Y-52530700D01*
X173524200Y-52530700D02*
X173524200Y-51064500D01*
X173524200Y-51064500D02*
X172590000Y-47310000D01*
X123748300Y-51529000D02*
X115160000Y-52670000D01*
D28*
X147550000Y-67510000D02*
X146710100Y-66249300D01*
X146710100Y-66249300D02*
X146270700Y-65809900D01*
X146270700Y-65809900D02*
X138693900Y-61277800D01*
X138693900Y-61277800D02*
X137872200Y-60456100D01*
X137872200Y-60456100D02*
X129561100Y-49464400D01*
X129561100Y-49464400D02*
X129419800Y-49123200D01*
X129419800Y-49123200D02*
X129419800Y-47696800D01*
X129419800Y-47696800D02*
X129419800Y-46096800D01*
X129419800Y-46096800D02*
X129561100Y-45755600D01*
X129561100Y-45755600D02*
X131092200Y-43237700D01*
X131092200Y-43237700D02*
X132272700Y-42057200D01*
X132272700Y-42057200D02*
X132350500Y-42010600D01*
X132350500Y-42010600D02*
X132877800Y-41791900D01*
X132877800Y-41791900D02*
X132965800Y-41769800D01*
X132965800Y-41769800D02*
X134644200Y-41769800D01*
X134644200Y-41769800D02*
X137414200Y-41769800D01*
X137414200Y-41769800D02*
X137502200Y-41791900D01*
X137502200Y-41791900D02*
X142698900Y-43219900D01*
X142698900Y-43219900D02*
X142801100Y-43262200D01*
X142801100Y-43262200D02*
X144885000Y-44770000D01*
X150090000Y-67510000D02*
X146270000Y-47610000D01*
X152630000Y-67510000D02*
X149040000Y-47610000D01*
X155170000Y-67510000D02*
X156938900Y-65875100D01*
X156938900Y-65875100D02*
X169889700Y-57361000D01*
X169889700Y-57361000D02*
X171113800Y-56136900D01*
X171113800Y-56136900D02*
X171185700Y-56016800D01*
X171185700Y-56016800D02*
X171418500Y-55455400D01*
X171418500Y-55455400D02*
X172374100Y-52274000D01*
X172374100Y-52274000D02*
X172374100Y-51321200D01*
X172374100Y-51321200D02*
X170075800Y-48687300D01*
X170075800Y-48687300D02*
X170054600Y-48651800D01*
X170054600Y-48651800D02*
X169850000Y-48158500D01*
X169850000Y-48158500D02*
X169257000Y-46478200D01*
X169257000Y-46478200D02*
X169001700Y-45862300D01*
X169001700Y-45862300D02*
X168889200Y-45674600D01*
X168889200Y-45674600D02*
X167595400Y-44380800D01*
X167595400Y-44380800D02*
X167407700Y-44268300D01*
X167407700Y-44268300D02*
X166791800Y-44013000D01*
X166791800Y-44013000D02*
X164858900Y-43219900D01*
X164858900Y-43219900D02*
X151008900Y-43219900D01*
X151008900Y-43219900D02*
X149841100Y-43219900D01*
X149841100Y-43219900D02*
X149738900Y-43262200D01*
X149738900Y-43262200D02*
X147655000Y-44770000D01*
X161110900Y-110277600D02*
X172806400Y-110102000D01*
X172806400Y-110102000D02*
X173759200Y-110102000D01*
X173759200Y-110102000D02*
X174432900Y-110775700D01*
X174432900Y-110775700D02*
X174432900Y-111728500D01*
X174432900Y-111728500D02*
X173839700Y-118566900D01*
X173839700Y-118566900D02*
X170756500Y-121716800D01*
X170756500Y-121716800D02*
X165625000Y-126955000D01*
X165625000Y-121875000D02*
X169606400Y-121240400D01*
X172689600Y-118090500D02*
X169606400Y-121240400D01*
X159393200Y-115646100D02*
X161827900Y-114427800D01*
X161827900Y-114427800D02*
X162295700Y-114233900D01*
X162295700Y-114233900D02*
X162299900Y-114232800D01*
X162299900Y-114232800D02*
X163870100Y-114232800D01*
X163870100Y-114232800D02*
X163874300Y-114233900D01*
X163874300Y-114233900D02*
X164342100Y-114427800D01*
X164342100Y-114427800D02*
X166289600Y-115319500D01*
X166289600Y-115319500D02*
X167039400Y-115761500D01*
X173282800Y-111252100D02*
X167039400Y-115761500D01*
X167039400Y-115761500D02*
X167137100Y-116218600D01*
X167137100Y-116218600D02*
X167137100Y-117371400D01*
X167137100Y-117371400D02*
X167100500Y-117459600D01*
X167100500Y-117459600D02*
X165625000Y-119335000D01*
X174534900Y-89852800D02*
X173987200Y-93103100D01*
X173987200Y-93103100D02*
X159605000Y-110009300D01*
X159605000Y-110009300D02*
X156975800Y-113029200D01*
X165625000Y-116795000D02*
X163749600Y-115319500D01*
X163749600Y-115319500D02*
X163661400Y-115282900D01*
X163661400Y-115282900D02*
X162508600Y-115282900D01*
X162508600Y-115282900D02*
X162420400Y-115319500D01*
X162420400Y-115319500D02*
X159869600Y-116796200D01*
X159869600Y-116796200D02*
X158916800Y-116796200D01*
X158916800Y-116796200D02*
X158243100Y-116122500D01*
X158243100Y-116122500D02*
X156975800Y-113029200D01*
X163085000Y-116795000D02*
X160106400Y-117846300D01*
X160106400Y-117846300D02*
X158680000Y-117846300D01*
X158680000Y-117846300D02*
X157307800Y-117712500D01*
X155859700Y-119893800D02*
X157307800Y-117712500D01*
X155516000Y-114104100D02*
X157307800Y-117712500D01*
X163085000Y-119335000D02*
X156336100Y-121043900D01*
X156336100Y-121043900D02*
X155383300Y-121043900D01*
X155383300Y-121043900D02*
X154709600Y-120370200D01*
X154709600Y-120370200D02*
X154365900Y-114580500D01*
X154365900Y-114580500D02*
X154365900Y-113627700D01*
X154365900Y-113627700D02*
X155039600Y-112954000D01*
X155039600Y-112954000D02*
X157291800Y-110836900D01*
X157291800Y-110836900D02*
X158796900Y-109331800D01*
X158796900Y-109331800D02*
X172837100Y-92626700D01*
X165068300Y-66715400D02*
X170994300Y-72373700D01*
X170994300Y-72373700D02*
X172055000Y-73434400D01*
X172055000Y-73434400D02*
X172226800Y-73849100D01*
X172226800Y-73849100D02*
X172837100Y-92626700D01*
X167857900Y-94159800D02*
X156969900Y-107905800D01*
X156969900Y-107905800D02*
X155865800Y-109009900D01*
X155865800Y-109009900D02*
X155862100Y-109012200D01*
X155862100Y-109012200D02*
X145126900Y-113824700D01*
X145126900Y-113824700D02*
X146648700Y-116986800D01*
X146648700Y-116986800D02*
X146648700Y-117939600D01*
X146648700Y-117939600D02*
X134117100Y-155481400D01*
X134117100Y-155481400D02*
X134080500Y-155569600D01*
X134080500Y-155569600D02*
X133269600Y-156380500D01*
X133269600Y-156380500D02*
X133181400Y-156417100D01*
X133181400Y-156417100D02*
X132028600Y-156417100D01*
X132028600Y-156417100D02*
X129488600Y-156417100D01*
X129488600Y-156417100D02*
X129400400Y-156380500D01*
X129400400Y-156380500D02*
X128589500Y-155569600D01*
X128589500Y-155569600D02*
X128552900Y-155481400D01*
X128552900Y-155481400D02*
X128552900Y-154328600D01*
X128552900Y-154328600D02*
X128552900Y-141628600D01*
X128552900Y-141628600D02*
X128589500Y-141540400D01*
X128589500Y-141540400D02*
X130065000Y-139665000D01*
X169826600Y-74602100D02*
X167857900Y-94159800D01*
X130065000Y-126965000D02*
X128589500Y-125089600D01*
X128589500Y-125089600D02*
X128552900Y-125001400D01*
X128552900Y-125001400D02*
X128552900Y-123848600D01*
X128552900Y-123848600D02*
X128552900Y-106068600D01*
X128552900Y-106068600D02*
X128589500Y-105980400D01*
X128589500Y-105980400D02*
X129400400Y-105169500D01*
X129400400Y-105169500D02*
X134005500Y-102850300D01*
X132605000Y-139665000D02*
X134080500Y-137789600D01*
X134080500Y-137789600D02*
X139226000Y-127367300D01*
X139226000Y-127367300D02*
X139367300Y-127026100D01*
X139367300Y-127026100D02*
X141882800Y-105859900D01*
X141882800Y-105859900D02*
X141883900Y-105855700D01*
X141883900Y-105855700D02*
X142077800Y-105387900D01*
X142077800Y-105387900D02*
X142080100Y-105384200D01*
X142080100Y-105384200D02*
X143184200Y-104280100D01*
X143184200Y-104280100D02*
X153604000Y-96765900D01*
X153604000Y-96765900D02*
X154608500Y-95761400D01*
X154608500Y-95761400D02*
X154749800Y-95420200D01*
X154749800Y-95420200D02*
X154749800Y-93993800D01*
X154749800Y-93993800D02*
X152549700Y-84944700D01*
X152549700Y-84944700D02*
X152549700Y-83991900D01*
X152549700Y-83991900D02*
X153223400Y-83318200D01*
X153223400Y-83318200D02*
X161058300Y-82960200D01*
X161058300Y-82960200D02*
X161098500Y-82950100D01*
X161098500Y-82950100D02*
X161591800Y-82745500D01*
X161591800Y-82745500D02*
X161627400Y-82724200D01*
X161627400Y-82724200D02*
X162764200Y-81587400D01*
X162764200Y-81587400D02*
X162785500Y-81551800D01*
X162785500Y-81551800D02*
X163300200Y-80547700D01*
X132605000Y-124425000D02*
X137167100Y-126312900D01*
X153904200Y-54767500D02*
X167489100Y-56649700D01*
X167489100Y-56649700D02*
X168915500Y-56649700D01*
X168915500Y-56649700D02*
X169256700Y-56508400D01*
X169256700Y-56508400D02*
X170261200Y-55503900D01*
X170261200Y-55503900D02*
X170402500Y-55162700D01*
X170402500Y-55162700D02*
X171224000Y-51797600D01*
X150425000Y-44770000D02*
X152463400Y-46151200D01*
X152463400Y-46151200D02*
X152541600Y-46228800D01*
X152541600Y-46228800D02*
X152622600Y-46262300D01*
X152622600Y-46262300D02*
X153767400Y-46262300D01*
X153767400Y-46262300D02*
X153848400Y-46228800D01*
X153848400Y-46228800D02*
X153926600Y-46151200D01*
X153926600Y-46151200D02*
X154007600Y-46117700D01*
X154007600Y-46117700D02*
X155152400Y-46117700D01*
X155152400Y-46117700D02*
X155233400Y-46151200D01*
X155233400Y-46151200D02*
X155311600Y-46228800D01*
X155311600Y-46228800D02*
X155392600Y-46262300D01*
X155392600Y-46262300D02*
X156537400Y-46262300D01*
X156537400Y-46262300D02*
X156618400Y-46228800D01*
X156618400Y-46228800D02*
X156696600Y-46151200D01*
X156696600Y-46151200D02*
X156777600Y-46117700D01*
X156777600Y-46117700D02*
X157922400Y-46117700D01*
X157922400Y-46117700D02*
X158003400Y-46151200D01*
X158003400Y-46151200D02*
X158081600Y-46228800D01*
X158081600Y-46228800D02*
X158162600Y-46262300D01*
X158162600Y-46262300D02*
X159307400Y-46262300D01*
X159307400Y-46262300D02*
X159388400Y-46228800D01*
X159388400Y-46228800D02*
X159466600Y-46151200D01*
X159466600Y-46151200D02*
X159547600Y-46117700D01*
X159547600Y-46117700D02*
X160692400Y-46117700D01*
X160692400Y-46117700D02*
X160773400Y-46151200D01*
X160773400Y-46151200D02*
X160851600Y-46228800D01*
X160851600Y-46228800D02*
X160932600Y-46262300D01*
X160932600Y-46262300D02*
X162077400Y-46262300D01*
X162077400Y-46262300D02*
X162158400Y-46228800D01*
X162158400Y-46228800D02*
X162236600Y-46151200D01*
X162236600Y-46151200D02*
X162317600Y-46117700D01*
X162317600Y-46117700D02*
X163462400Y-46117700D01*
X163462400Y-46117700D02*
X163543400Y-46151200D01*
X163543400Y-46151200D02*
X163621600Y-46228800D01*
X163621600Y-46228800D02*
X163702600Y-46262300D01*
X163702600Y-46262300D02*
X164847400Y-46262300D01*
X164847400Y-46262300D02*
X164928400Y-46228800D01*
X164928400Y-46228800D02*
X165006600Y-46151200D01*
X165006600Y-46151200D02*
X165087600Y-46117700D01*
X165087600Y-46117700D02*
X166232400Y-46117700D01*
X166232400Y-46117700D02*
X166313400Y-46151200D01*
X166313400Y-46151200D02*
X167118800Y-46956600D01*
X167118800Y-46956600D02*
X167152300Y-47037600D01*
X167152300Y-47037600D02*
X167152300Y-48182400D01*
X167152300Y-48182400D02*
X167052200Y-53973100D01*
X167052200Y-53973100D02*
X167052200Y-54925900D01*
X167052200Y-54925900D02*
X167725900Y-55599600D01*
X167725900Y-55599600D02*
X168678700Y-55599600D01*
X168678700Y-55599600D02*
X169352400Y-54925900D01*
X169352400Y-54925900D02*
X171224000Y-51797600D01*
X145498600Y-117463200D02*
X143976800Y-114301100D01*
X143976800Y-114301100D02*
X143976800Y-113348300D01*
X143976800Y-113348300D02*
X144650500Y-112674600D01*
X144650500Y-112674600D02*
X155269600Y-108120500D01*
X155269600Y-108120500D02*
X156080500Y-107309600D01*
X156080500Y-107309600D02*
X156117100Y-107221400D01*
X156117100Y-107221400D02*
X160252900Y-93587800D01*
X160252900Y-93587800D02*
X158864700Y-86451000D01*
X140636000Y-70150900D02*
X161098500Y-77469900D01*
X161098500Y-77469900D02*
X161591800Y-77674500D01*
X161591800Y-77674500D02*
X161627400Y-77695800D01*
X161627400Y-77695800D02*
X163776600Y-79397600D01*
X163776600Y-79397600D02*
X164450300Y-80071300D01*
X164450300Y-80071300D02*
X164450300Y-81024100D01*
X164450300Y-81024100D02*
X163598300Y-82238300D01*
X163598300Y-82238300D02*
X162278300Y-83558300D01*
X162278300Y-83558300D02*
X158864700Y-86451000D01*
D30*
X117470000Y-89810000D02*
X118763500Y-89120100D01*
X118763500Y-89120100D02*
X139006900Y-70548800D01*
D28*
X149840000Y-90970000D02*
X150950700Y-91959900D01*
X150950700Y-91959900D02*
X151390100Y-92399300D01*
X151390100Y-92399300D02*
X152549600Y-94707000D01*
D30*
X139380000Y-57230000D02*
X131226500Y-49360100D01*
X131226500Y-49360100D02*
X130669900Y-48803500D01*
X130669900Y-48803500D02*
X130669900Y-48016500D01*
X130669900Y-48016500D02*
X130669900Y-46416500D01*
X130669900Y-46416500D02*
X132127700Y-43970600D01*
X132127700Y-43970600D02*
X133005600Y-43092700D01*
X133005600Y-43092700D02*
X133181300Y-43019900D01*
X133181300Y-43019900D02*
X134428700Y-43019900D01*
X134428700Y-43019900D02*
X137198700Y-43019900D01*
X137198700Y-43019900D02*
X137374400Y-43092700D01*
X137374400Y-43092700D02*
X139345000Y-44770000D01*
X136250200Y-87251900D02*
X136250200Y-93226300D01*
X136250200Y-93226300D02*
X136213700Y-93371600D01*
X136213700Y-93371600D02*
X135978100Y-93939800D01*
X135978100Y-93939800D02*
X135901100Y-94068300D01*
X135901100Y-94068300D02*
X126707100Y-104609200D01*
X126707100Y-104609200D02*
X126578200Y-104824300D01*
X126578200Y-104824300D02*
X126313800Y-105462200D01*
X126313800Y-105462200D02*
X116709900Y-128639200D01*
X116759000Y-122439500D02*
X125276800Y-104176600D01*
X125276800Y-104176600D02*
X125283200Y-104164000D01*
X125283200Y-104164000D02*
X125547200Y-103723200D01*
X125547200Y-103723200D02*
X125561100Y-103704100D01*
X125561100Y-103704100D02*
X134712100Y-93206100D01*
X134712100Y-93206100D02*
X134800100Y-92993600D01*
X134800100Y-92993600D02*
X134800100Y-86687900D01*
X134800100Y-86687900D02*
X136787900Y-75804700D01*
X143950000Y-57340000D02*
X140730000Y-47610000D01*
D28*
X164828900Y-54299300D02*
X162890000Y-47610000D01*
X168202300Y-54449500D02*
X168260200Y-48399800D01*
X168260200Y-48399800D02*
X168260200Y-46820200D01*
X168260200Y-46820200D02*
X168257300Y-46808700D01*
X168257300Y-46808700D02*
X168061200Y-46335800D01*
X168061200Y-46335800D02*
X168055100Y-46325600D01*
X168055100Y-46325600D02*
X166944400Y-45214900D01*
X166944400Y-45214900D02*
X166934200Y-45208800D01*
X166934200Y-45208800D02*
X166461300Y-45012700D01*
X166461300Y-45012700D02*
X166449800Y-45009800D01*
X166449800Y-45009800D02*
X164275000Y-44770000D01*
M02*
