G04 #@! TF.GenerationSoftware,KiCad,Pcbnew,(5.1.4)-1*
G04 #@! TF.CreationDate,2019-11-27T23:22:20+05:00*
G04 #@! TF.ProjectId,speeduino_ntv650,73706565-6475-4696-9e6f-5f6e74763635,rev?*
G04 #@! TF.SameCoordinates,Original*
G04 #@! TF.FileFunction,Soldermask,Bot*
G04 #@! TF.FilePolarity,Negative*
%FSLAX46Y46*%
G04 Gerber Fmt 4.6, Leading zero omitted, Abs format (unit mm)*
G04 Created by KiCad (PCBNEW (5.1.4)-1) date 2019-11-27 23:22:20*
%MOMM*%
%LPD*%
G04 APERTURE LIST*
%ADD10C,0.100000*%
%ADD11C,0.150000*%
%ADD12C,1.800000*%
%ADD13C,6.000000*%
%ADD14C,4.000000*%
%ADD15C,1.600000*%
%ADD16R,1.600000X1.600000*%
%ADD17O,1.600000X1.600000*%
%ADD18R,2.600000X2.600000*%
%ADD19O,2.600000X2.600000*%
%ADD20R,2.200000X2.200000*%
%ADD21O,2.200000X2.200000*%
%ADD22C,1.524000*%
%ADD23O,1.800000X1.800000*%
%ADD24R,1.800000X1.800000*%
%ADD25R,1.900000X1.900000*%
%ADD26C,1.900000*%
G04 APERTURE END LIST*
D10*
X110806666Y-38620000D02*
G75*
G03X110806666Y-38620000I-1666666J0D01*
G01*
X106640000Y-38620000D02*
X111640000Y-38620000D01*
X109140000Y-36120000D02*
X109140000Y-41120000D01*
X190016666Y-162490000D02*
G75*
G03X190016666Y-162490000I-1666666J0D01*
G01*
X185850000Y-162490000D02*
X190850000Y-162490000D01*
X188350000Y-159990000D02*
X188350000Y-164990000D01*
D11*
X184070000Y-155040000D02*
G75*
G03X184070000Y-155040000I-3000000J0D01*
G01*
D10*
X190286666Y-38760000D02*
G75*
G03X190286666Y-38760000I-1666666J0D01*
G01*
X186120000Y-38760000D02*
X191120000Y-38760000D01*
X188620000Y-36260000D02*
X188620000Y-41260000D01*
X111396666Y-162190000D02*
G75*
G03X111396666Y-162190000I-1666666J0D01*
G01*
X107230000Y-162190000D02*
X112230000Y-162190000D01*
X109730000Y-159690000D02*
X109730000Y-164690000D01*
D11*
X120070000Y-155040000D02*
G75*
G03X120070000Y-155040000I-3000000J0D01*
G01*
X184070000Y-46040000D02*
G75*
G03X184070000Y-46040000I-3000000J0D01*
G01*
X120070000Y-46040000D02*
G75*
G03X120070000Y-46040000I-3000000J0D01*
G01*
D10*
X112070000Y-160040000D02*
X112070000Y-41040000D01*
X186070000Y-160040000D02*
X112070000Y-160040000D01*
X186070000Y-41040000D02*
X186070000Y-160040000D01*
X112070000Y-41040000D02*
X186070000Y-41040000D01*
D12*
X122660000Y-54070000D03*
X115160000Y-52670000D03*
D13*
X179070000Y-100540000D03*
X119070000Y-100540000D03*
X179070000Y-140040000D03*
X179070000Y-61040000D03*
X119070000Y-61040000D03*
X119070000Y-140040000D03*
D14*
X125490000Y-47310000D03*
X172590000Y-47310000D03*
D15*
X164275000Y-44770000D03*
X161505000Y-44770000D03*
X158735000Y-44770000D03*
X155965000Y-44770000D03*
X153195000Y-44770000D03*
X150425000Y-44770000D03*
X147655000Y-44770000D03*
X144885000Y-44770000D03*
X142115000Y-44770000D03*
X139345000Y-44770000D03*
X136575000Y-44770000D03*
X133805000Y-44770000D03*
X165660000Y-47610000D03*
X162890000Y-47610000D03*
X160120000Y-47610000D03*
X157350000Y-47610000D03*
X154580000Y-47610000D03*
X151810000Y-47610000D03*
X149040000Y-47610000D03*
X146270000Y-47610000D03*
X143500000Y-47610000D03*
X140730000Y-47610000D03*
X137960000Y-47610000D03*
X135190000Y-47610000D03*
D16*
X132420000Y-47610000D03*
X149840000Y-93510000D03*
D17*
X142220000Y-85890000D03*
X149840000Y-90970000D03*
X142220000Y-88430000D03*
X149840000Y-88430000D03*
X142220000Y-90970000D03*
X149840000Y-85890000D03*
X142220000Y-93510000D03*
D15*
X139380000Y-57230000D03*
D17*
X139380000Y-59770000D03*
D15*
X143950000Y-57340000D03*
D17*
X143950000Y-59880000D03*
D18*
X122390000Y-69590000D03*
D19*
X117310000Y-69590000D03*
D20*
X129690000Y-65860000D03*
D21*
X129690000Y-70940000D03*
D22*
X132605000Y-106645000D03*
X130065000Y-106645000D03*
X132605000Y-109185000D03*
X132605000Y-111725000D03*
X132605000Y-114265000D03*
X132605000Y-116805000D03*
X130065000Y-109185000D03*
X130065000Y-111725000D03*
X130065000Y-114265000D03*
X130065000Y-116805000D03*
X132605000Y-119345000D03*
X132605000Y-121885000D03*
X132605000Y-124425000D03*
X132605000Y-126965000D03*
X132605000Y-129505000D03*
X132605000Y-132045000D03*
X132605000Y-134585000D03*
X132605000Y-137125000D03*
X132605000Y-139665000D03*
X132605000Y-142205000D03*
X132605000Y-144745000D03*
X132605000Y-147285000D03*
X132605000Y-149825000D03*
X132605000Y-152365000D03*
X132605000Y-154905000D03*
X130065000Y-119345000D03*
X130065000Y-121885000D03*
X130065000Y-124425000D03*
X130065000Y-126965000D03*
X130065000Y-129505000D03*
X130065000Y-132045000D03*
X130065000Y-134585000D03*
X130065000Y-137125000D03*
X130065000Y-139665000D03*
X130065000Y-142205000D03*
X130065000Y-144745000D03*
X130065000Y-147285000D03*
X130065000Y-149825000D03*
X130065000Y-152365000D03*
X130065000Y-154905000D03*
X142765000Y-154905000D03*
X145305000Y-154905000D03*
X147845000Y-154905000D03*
X147845000Y-152365000D03*
X145305000Y-152365000D03*
X142765000Y-152365000D03*
X155465000Y-152365000D03*
X158005000Y-152365000D03*
X160545000Y-152365000D03*
X163085000Y-152365000D03*
X165625000Y-152365000D03*
X155465000Y-154905000D03*
X158005000Y-154905000D03*
X160545000Y-154905000D03*
X163085000Y-154905000D03*
X165625000Y-154905000D03*
X163085000Y-149815000D03*
X163085000Y-147275000D03*
X163085000Y-144735000D03*
X163085000Y-142195000D03*
X163085000Y-139655000D03*
X163085000Y-137115000D03*
X163085000Y-134575000D03*
X163085000Y-132035000D03*
X163085000Y-129495000D03*
X163085000Y-126955000D03*
X163085000Y-124415000D03*
X163085000Y-121875000D03*
X163085000Y-119335000D03*
X163085000Y-116795000D03*
X165625000Y-116795000D03*
X165625000Y-119335000D03*
X165625000Y-121875000D03*
X165625000Y-124415000D03*
X165625000Y-126955000D03*
X165625000Y-129495000D03*
X165625000Y-132035000D03*
X165625000Y-134575000D03*
X165625000Y-137115000D03*
X165625000Y-139655000D03*
X165625000Y-142195000D03*
X165625000Y-144735000D03*
X165625000Y-147275000D03*
X165625000Y-149815000D03*
X144445000Y-106645000D03*
X146985000Y-106645000D03*
X149525000Y-106645000D03*
X152065000Y-106645000D03*
X154605000Y-106645000D03*
D23*
X128960000Y-59920000D03*
X128960000Y-57380000D03*
D24*
X128960000Y-54840000D03*
D23*
X132950000Y-92350000D03*
X132950000Y-89810000D03*
D24*
X132950000Y-87270000D03*
D23*
X125230000Y-92350000D03*
X125230000Y-89810000D03*
D24*
X125230000Y-87270000D03*
D23*
X117470000Y-92350000D03*
X117470000Y-89810000D03*
D24*
X117470000Y-87270000D03*
D25*
X160250000Y-67510000D03*
D26*
X157710000Y-67510000D03*
X155170000Y-67510000D03*
X152630000Y-67510000D03*
X150090000Y-67510000D03*
X147550000Y-67510000D03*
D25*
X145010000Y-67510000D03*
D26*
X142470000Y-67510000D03*
X160250000Y-80210000D03*
X157710000Y-80210000D03*
X155170000Y-80210000D03*
X152630000Y-80210000D03*
X150090000Y-80210000D03*
X147550000Y-80210000D03*
X145010000Y-80210000D03*
X142470000Y-80210000D03*
M02*
